# https://github.com/mikedh/trimesh

o Bench_Bench_0
v 1.30232560 0.29651160 0.00000000
v 1.30232560 0.29651160 0.42599565
v 1.30232560 -0.29651166 0.42599565
v 1.30232560 -0.29651166 0.00000000
v -1.30232560 -0.29651166 0.00000000
v -1.30232560 -0.29651166 0.42638013
v -1.30232560 0.29651160 0.42638010
v -1.30232560 0.29651160 0.00000000
v 1.16347805 0.29651160 0.00000000
v 1.16347805 -0.29651166 0.00000000
v 1.03482796 -0.29651166 0.00000000
v 1.03482796 0.29651160 0.00000000
v -1.16393773 -0.29651166 0.00000000
v -1.16393773 0.29651160 0.00000000
v -1.03482796 0.29651160 0.00000000
v -1.03482796 -0.29651166 0.00000000
v 1.16347805 -0.29651166 0.00000000
v 1.16347805 -0.29651160 0.42599565
v 1.03482796 -0.29651166 0.42599568
v 1.03482796 -0.29651166 0.00000000
v -1.16393773 0.29651160 0.00000000
v -1.16393773 0.29651166 0.42638013
v -1.03482796 0.29651160 0.42638013
v -1.03482796 0.29651160 0.00000000
v 1.03482796 -0.29651166 0.42599568
v 1.03482796 0.29651160 0.42599565
v 1.03482796 0.29651160 0.00000000
v 1.03482796 -0.29651166 0.00000000
v -1.03482796 0.29651160 0.42638013
v -1.03482796 -0.29651166 0.42638010
v -1.03482796 -0.29651166 0.00000000
v -1.03482796 0.29651160 0.00000000
v -1.30232560 -0.29651166 0.50000000
v -1.30232560 0.29651160 0.50000000
v -1.30232560 -0.29651166 0.00000000
v -1.16393773 -0.29651166 0.00000000
v -1.16393773 -0.29651160 0.42638013
v -1.30232560 -0.29651166 0.42638013
v -1.30232560 0.29651160 0.50000000
v -1.16393773 0.29651166 0.50000000
v -1.30232560 0.29651160 0.42638010
v 1.30232560 0.29651160 0.50000000
v 1.30232560 -0.29651166 0.50000000
v 1.30232560 -0.29651166 0.50000000
v 1.16347805 -0.29651160 0.50000000
v 1.30232560 -0.29651166 0.42599565
v 1.30232560 0.29651160 0.00000000
v 1.16347805 0.29651160 0.00000000
v 1.16347805 0.29651166 0.42599571
v 1.30232560 0.29651160 0.42599565
v 1.30232560 0.29651160 0.00000000
v 1.30232560 -0.29651166 0.00000000
v -1.30232560 -0.29651166 0.00000000
v -1.30232560 0.29651160 0.00000000
v 1.30232560 -0.29651166 0.50000000
v 1.30232560 0.29651160 0.50000000
v 1.16347805 0.29651166 0.50000000
v 1.16347805 -0.29651160 0.50000000
v -1.30232560 0.29651160 0.50000000
v -1.30232560 -0.29651166 0.50000000
v -1.16393773 -0.29651160 0.50000000
v -1.16393773 0.29651166 0.50000000
v 1.30232560 -0.29651166 0.00000000
v -1.30232560 -0.29651166 0.50000000
v -1.16393773 -0.29651160 0.50000000
v -1.30232560 0.29651160 0.00000000
v 1.30232560 0.29651160 0.50000000
v 1.16347805 0.29651166 0.50000000
v -1.03482796 -0.29651166 0.00000000
v -1.03482796 -0.29651166 0.42638010
v 1.03482796 0.29651160 0.00000000
v 1.03482796 0.29651160 0.42599565
v -1.03482796 -0.29651166 0.42638010
v -1.03482796 0.29651160 0.42638013
v -1.16393773 0.29651166 0.42638013
v -1.16393773 -0.29651160 0.42638013
v -1.16393773 -0.29651160 0.42638013
v -1.16393773 0.29651166 0.42638013
v -1.16393773 0.29651166 0.50000000
v -1.16393773 -0.29651160 0.50000000
v 1.16347805 -0.29651160 0.42599565
v 1.16347805 0.29651166 0.42599571
v 1.03482796 0.29651160 0.42599565
v 1.03482796 -0.29651166 0.42599568
v 1.16347805 0.29651166 0.42599571
v 1.16347805 -0.29651160 0.42599565
v 1.16347805 -0.29651160 0.50000000
v 1.16347805 0.29651166 0.50000000
v -1.16279067 -0.29648721 0.42648317
v -1.16279067 -0.27162208 0.42648317
v 1.16279067 -0.27162208 0.42648317
v 1.16279067 -0.29648721 0.42648317
v -1.16279067 -0.29648721 0.49983230
v 1.16279067 -0.29648721 0.49983230
v 1.16279067 -0.27162208 0.49983230
v -1.16279067 -0.27162208 0.49983230
v -1.16279067 -0.29648721 0.42648317
v 1.16279067 -0.29648721 0.42648317
v 1.16279067 -0.29648721 0.49983230
v -1.16279067 -0.29648721 0.49983230
v 1.16279067 -0.29648721 0.42648317
v 1.16279067 -0.27162208 0.42648317
v 1.16279067 -0.27162208 0.49983230
v 1.16279067 -0.29648721 0.49983230
v 1.16279067 -0.27162208 0.42648317
v -1.16279067 -0.27162208 0.42648317
v -1.16279067 -0.27162208 0.49983230
v 1.16279067 -0.27162208 0.49983230
v -1.16279067 -0.27162208 0.42648317
v -1.16279067 -0.29648721 0.42648317
v -1.16279067 -0.29648721 0.49983230
v -1.16279067 -0.27162208 0.49983230
v -1.16279056 -0.26098032 0.42648317
v -1.16279056 -0.23611522 0.42648317
v 1.16279056 -0.23611522 0.42648317
v 1.16279056 -0.26098032 0.42648317
v -1.16279056 -0.26098032 0.49983230
v 1.16279056 -0.26098032 0.49983230
v 1.16279056 -0.23611523 0.49983230
v -1.16279056 -0.23611523 0.49983230
v -1.16279056 -0.26098032 0.42648317
v 1.16279056 -0.26098032 0.42648317
v 1.16279056 -0.26098032 0.49983230
v -1.16279056 -0.26098032 0.49983230
v 1.16279056 -0.26098032 0.42648317
v 1.16279056 -0.23611522 0.42648317
v 1.16279056 -0.23611523 0.49983230
v 1.16279056 -0.26098032 0.49983230
v 1.16279056 -0.23611522 0.42648317
v -1.16279056 -0.23611522 0.42648317
v -1.16279056 -0.23611523 0.49983230
v 1.16279056 -0.23611523 0.49983230
v -1.16279056 -0.23611522 0.42648317
v -1.16279056 -0.26098032 0.42648317
v -1.16279056 -0.26098032 0.49983230
v -1.16279056 -0.23611523 0.49983230
v -1.16279056 -0.22547352 0.42648315
v -1.16279056 -0.20060840 0.42648315
v 1.16279056 -0.20060840 0.42648315
v 1.16279056 -0.22547352 0.42648315
v -1.16279056 -0.22547352 0.49983224
v 1.16279056 -0.22547352 0.49983224
v 1.16279056 -0.20060840 0.49983224
v -1.16279056 -0.20060840 0.49983224
v -1.16279056 -0.22547352 0.42648315
v 1.16279056 -0.22547352 0.42648315
v 1.16279056 -0.22547352 0.49983224
v -1.16279056 -0.22547352 0.49983224
v 1.16279056 -0.22547352 0.42648315
v 1.16279056 -0.20060840 0.42648315
v 1.16279056 -0.20060840 0.49983224
v 1.16279056 -0.22547352 0.49983224
v 1.16279056 -0.20060840 0.42648315
v -1.16279056 -0.20060840 0.42648315
v -1.16279056 -0.20060840 0.49983224
v 1.16279056 -0.20060840 0.49983224
v -1.16279056 -0.20060840 0.42648315
v -1.16279056 -0.22547352 0.42648315
v -1.16279056 -0.22547352 0.49983224
v -1.16279056 -0.20060840 0.49983224
v -1.16279056 -0.18996670 0.42648315
v -1.16279056 -0.16510158 0.42648315
v 1.16279056 -0.16510158 0.42648315
v 1.16279056 -0.18996670 0.42648315
v -1.16279056 -0.18996670 0.49983230
v 1.16279056 -0.18996670 0.49983230
v 1.16279056 -0.16510159 0.49983230
v -1.16279056 -0.16510159 0.49983230
v -1.16279056 -0.18996670 0.42648315
v 1.16279056 -0.18996670 0.42648315
v 1.16279056 -0.18996670 0.49983230
v -1.16279056 -0.18996670 0.49983230
v 1.16279056 -0.18996670 0.42648315
v 1.16279056 -0.16510158 0.42648315
v 1.16279056 -0.16510159 0.49983230
v 1.16279056 -0.18996670 0.49983230
v 1.16279056 -0.16510158 0.42648315
v -1.16279056 -0.16510158 0.42648315
v -1.16279056 -0.16510159 0.49983230
v 1.16279056 -0.16510159 0.49983230
v -1.16279056 -0.16510158 0.42648315
v -1.16279056 -0.18996670 0.42648315
v -1.16279056 -0.18996670 0.49983230
v -1.16279056 -0.16510159 0.49983230
v -1.16279056 -0.15445990 0.42648317
v -1.16279056 -0.12959480 0.42648317
v 1.16279056 -0.12959480 0.42648317
v 1.16279056 -0.15445990 0.42648317
v -1.16279056 -0.15445992 0.49983230
v 1.16279056 -0.15445992 0.49983230
v 1.16279056 -0.12959481 0.49983230
v -1.16279056 -0.12959481 0.49983230
v -1.16279056 -0.15445990 0.42648317
v 1.16279056 -0.15445990 0.42648317
v 1.16279056 -0.15445992 0.49983230
v -1.16279056 -0.15445992 0.49983230
v 1.16279056 -0.15445990 0.42648317
v 1.16279056 -0.12959480 0.42648317
v 1.16279056 -0.12959481 0.49983230
v 1.16279056 -0.15445992 0.49983230
v 1.16279056 -0.12959480 0.42648317
v -1.16279056 -0.12959480 0.42648317
v -1.16279056 -0.12959481 0.49983230
v 1.16279056 -0.12959481 0.49983230
v -1.16279056 -0.12959480 0.42648317
v -1.16279056 -0.15445990 0.42648317
v -1.16279056 -0.15445992 0.49983230
v -1.16279056 -0.12959481 0.49983230
v -1.16279056 -0.08344626 0.42648317
v -1.16279056 -0.05858114 0.42648317
v 1.16279056 -0.05858114 0.42648317
v 1.16279056 -0.08344626 0.42648317
v -1.16279056 -0.08344628 0.49983230
v 1.16279056 -0.08344628 0.49983230
v 1.16279056 -0.05858116 0.49983230
v -1.16279056 -0.05858116 0.49983230
v -1.16279056 -0.08344626 0.42648317
v 1.16279056 -0.08344626 0.42648317
v 1.16279056 -0.08344628 0.49983230
v -1.16279056 -0.08344628 0.49983230
v 1.16279056 -0.08344626 0.42648317
v 1.16279056 -0.05858114 0.42648317
v 1.16279056 -0.05858116 0.49983230
v 1.16279056 -0.08344628 0.49983230
v 1.16279056 -0.05858114 0.42648317
v -1.16279056 -0.05858114 0.42648317
v -1.16279056 -0.05858116 0.49983230
v 1.16279056 -0.05858116 0.49983230
v -1.16279056 -0.05858114 0.42648317
v -1.16279056 -0.08344626 0.42648317
v -1.16279056 -0.08344628 0.49983230
v -1.16279056 -0.05858116 0.49983230
v -1.16279056 -0.01243264 0.42648317
v -1.16279056 0.01243250 0.42648317
v 1.16279056 0.01243250 0.42648317
v 1.16279056 -0.01243264 0.42648317
v -1.16279056 -0.01243264 0.49983230
v 1.16279056 -0.01243264 0.49983230
v 1.16279056 0.01243250 0.49983230
v -1.16279056 0.01243250 0.49983230
v -1.16279056 -0.01243264 0.42648317
v 1.16279056 -0.01243264 0.42648317
v 1.16279056 -0.01243264 0.49983230
v -1.16279056 -0.01243264 0.49983230
v 1.16279056 -0.01243264 0.42648317
v 1.16279056 0.01243250 0.42648317
v 1.16279056 0.01243250 0.49983230
v 1.16279056 -0.01243264 0.49983230
v 1.16279056 0.01243250 0.42648317
v -1.16279056 0.01243250 0.42648317
v -1.16279056 0.01243250 0.49983230
v 1.16279056 0.01243250 0.49983230
v -1.16279056 0.01243250 0.42648317
v -1.16279056 -0.01243264 0.42648317
v -1.16279056 -0.01243264 0.49983230
v -1.16279056 0.01243250 0.49983230
v -1.16279056 0.05858103 0.42648317
v -1.16279056 0.08344616 0.42648320
v 1.16279056 0.08344616 0.42648320
v 1.16279056 0.05858103 0.42648317
v -1.16279056 0.05858103 0.49983230
v 1.16279056 0.05858103 0.49983230
v 1.16279056 0.08344616 0.49983230
v -1.16279056 0.08344616 0.49983230
v -1.16279056 0.05858103 0.42648317
v 1.16279056 0.05858103 0.42648317
v 1.16279056 0.05858103 0.49983230
v -1.16279056 0.05858103 0.49983230
v 1.16279056 0.05858103 0.42648317
v 1.16279056 0.08344616 0.42648320
v 1.16279056 0.08344616 0.49983230
v 1.16279056 0.05858103 0.49983230
v 1.16279056 0.08344616 0.42648320
v -1.16279056 0.08344616 0.42648320
v -1.16279056 0.08344616 0.49983230
v 1.16279056 0.08344616 0.49983230
v -1.16279056 0.08344616 0.42648320
v -1.16279056 0.05858103 0.42648317
v -1.16279056 0.05858103 0.49983230
v -1.16279056 0.08344616 0.49983230
v -1.16279056 0.09408787 0.42648320
v -1.16279056 0.11895300 0.42648320
v 1.16279056 0.11895300 0.42648320
v 1.16279056 0.09408787 0.42648320
v -1.16279056 0.09408787 0.49983230
v 1.16279056 0.09408787 0.49983230
v 1.16279056 0.11895300 0.49983230
v -1.16279056 0.11895300 0.49983230
v -1.16279056 0.09408787 0.42648320
v 1.16279056 0.09408787 0.42648320
v 1.16279056 0.09408787 0.49983230
v -1.16279056 0.09408787 0.49983230
v 1.16279056 0.09408787 0.42648320
v 1.16279056 0.11895300 0.42648320
v 1.16279056 0.11895300 0.49983230
v 1.16279056 0.09408787 0.49983230
v 1.16279056 0.11895300 0.42648320
v -1.16279056 0.11895300 0.42648320
v -1.16279056 0.11895300 0.49983230
v 1.16279056 0.11895300 0.49983230
v -1.16279056 0.11895300 0.42648320
v -1.16279056 0.09408787 0.42648320
v -1.16279056 0.09408787 0.49983230
v -1.16279056 0.11895300 0.49983230
v -1.16279056 0.16510151 0.42648320
v -1.16279056 0.18996664 0.42648320
v 1.16279056 0.18996664 0.42648320
v 1.16279056 0.16510151 0.42648320
v -1.16279056 0.16510151 0.49983230
v 1.16279056 0.16510151 0.49983230
v 1.16279056 0.18996664 0.49983230
v -1.16279056 0.18996664 0.49983230
v -1.16279056 0.16510151 0.42648320
v 1.16279056 0.16510151 0.42648320
v 1.16279056 0.16510151 0.49983230
v -1.16279056 0.16510151 0.49983230
v 1.16279056 0.16510151 0.42648320
v 1.16279056 0.18996664 0.42648320
v 1.16279056 0.18996664 0.49983230
v 1.16279056 0.16510151 0.49983230
v 1.16279056 0.18996664 0.42648320
v -1.16279056 0.18996664 0.42648320
v -1.16279056 0.18996664 0.49983230
v 1.16279056 0.18996664 0.49983230
v -1.16279056 0.18996664 0.42648320
v -1.16279056 0.16510151 0.42648320
v -1.16279056 0.16510151 0.49983230
v -1.16279056 0.18996664 0.49983230
v -1.16279056 0.20060828 0.42648320
v -1.16279056 0.22547342 0.42648320
v 1.16279056 0.22547342 0.42648320
v 1.16279056 0.20060828 0.42648320
v -1.16279056 0.20060828 0.49983230
v 1.16279056 0.20060828 0.49983230
v 1.16279056 0.22547342 0.49983235
v -1.16279056 0.22547342 0.49983235
v -1.16279056 0.20060828 0.42648320
v 1.16279056 0.20060828 0.42648320
v 1.16279056 0.20060828 0.49983230
v -1.16279056 0.20060828 0.49983230
v 1.16279056 0.20060828 0.42648320
v 1.16279056 0.22547342 0.42648320
v 1.16279056 0.22547342 0.49983235
v 1.16279056 0.20060828 0.49983230
v 1.16279056 0.22547342 0.42648320
v -1.16279056 0.22547342 0.42648320
v -1.16279056 0.22547342 0.49983235
v 1.16279056 0.22547342 0.49983235
v -1.16279056 0.22547342 0.42648320
v -1.16279056 0.20060828 0.42648320
v -1.16279056 0.20060828 0.49983230
v -1.16279056 0.22547342 0.49983235
v -1.16279056 0.27162197 0.42648317
v -1.16279056 0.29648710 0.42648317
v 1.16279056 0.29648710 0.42648317
v 1.16279056 0.27162197 0.42648317
v -1.16279056 0.27162197 0.49983230
v 1.16279056 0.27162197 0.49983230
v 1.16279056 0.29648710 0.49983230
v -1.16279056 0.29648710 0.49983230
v -1.16279056 0.27162197 0.42648317
v 1.16279056 0.27162197 0.42648317
v 1.16279056 0.27162197 0.49983230
v -1.16279056 0.27162197 0.49983230
v 1.16279056 0.27162197 0.42648317
v 1.16279056 0.29648710 0.42648317
v 1.16279056 0.29648710 0.49983230
v 1.16279056 0.27162197 0.49983230
v 1.16279056 0.29648710 0.42648317
v -1.16279056 0.29648710 0.42648317
v -1.16279056 0.29648710 0.49983230
v 1.16279056 0.29648710 0.49983230
v -1.16279056 0.29648710 0.42648317
v -1.16279056 0.27162197 0.42648317
v -1.16279056 0.27162197 0.49983230
v -1.16279056 0.29648710 0.49983230
v -1.16279056 0.23611523 0.42648317
v -1.16279056 0.26098038 0.42648317
v 1.16279056 0.26098038 0.42648317
v 1.16279056 0.23611523 0.42648317
v -1.16279056 0.23611523 0.49983230
v 1.16279056 0.23611523 0.49983230
v 1.16279056 0.26098038 0.49983230
v -1.16279056 0.26098038 0.49983230
v -1.16279056 0.23611523 0.42648317
v 1.16279056 0.23611523 0.42648317
v 1.16279056 0.23611523 0.49983230
v -1.16279056 0.23611523 0.49983230
v 1.16279056 0.23611523 0.42648317
v 1.16279056 0.26098038 0.42648317
v 1.16279056 0.26098038 0.49983230
v 1.16279056 0.23611523 0.49983230
v 1.16279056 0.26098038 0.42648317
v -1.16279056 0.26098038 0.42648317
v -1.16279056 0.26098038 0.49983230
v 1.16279056 0.26098038 0.49983230
v -1.16279056 0.26098038 0.42648317
v -1.16279056 0.23611523 0.42648317
v -1.16279056 0.23611523 0.49983230
v -1.16279056 0.26098038 0.49983230
v -1.16279056 0.12959470 0.42648320
v -1.16279056 0.15445983 0.42648320
v 1.16279056 0.15445983 0.42648320
v 1.16279056 0.12959470 0.42648320
v -1.16279056 0.12959470 0.49983230
v 1.16279056 0.12959470 0.49983230
v 1.16279056 0.15445983 0.49983230
v -1.16279056 0.15445983 0.49983230
v -1.16279056 0.12959470 0.42648320
v 1.16279056 0.12959470 0.42648320
v 1.16279056 0.12959470 0.49983230
v -1.16279056 0.12959470 0.49983230
v 1.16279056 0.12959470 0.42648320
v 1.16279056 0.15445983 0.42648320
v 1.16279056 0.15445983 0.49983230
v 1.16279056 0.12959470 0.49983230
v 1.16279056 0.15445983 0.42648320
v -1.16279056 0.15445983 0.42648320
v -1.16279056 0.15445983 0.49983230
v 1.16279056 0.15445983 0.49983230
v -1.16279056 0.15445983 0.42648320
v -1.16279056 0.12959470 0.42648320
v -1.16279056 0.12959470 0.49983230
v -1.16279056 0.15445983 0.49983230
v -1.16279056 0.02307420 0.42648317
v -1.16279056 0.04793933 0.42648317
v 1.16279056 0.04793933 0.42648317
v 1.16279056 0.02307420 0.42648317
v -1.16279056 0.02307420 0.49983230
v 1.16279056 0.02307420 0.49983230
v 1.16279056 0.04793933 0.49983230
v -1.16279056 0.04793933 0.49983230
v -1.16279056 0.02307420 0.42648317
v 1.16279056 0.02307420 0.42648317
v 1.16279056 0.02307420 0.49983230
v -1.16279056 0.02307420 0.49983230
v 1.16279056 0.02307420 0.42648317
v 1.16279056 0.04793933 0.42648317
v 1.16279056 0.04793933 0.49983230
v 1.16279056 0.02307420 0.49983230
v 1.16279056 0.04793933 0.42648317
v -1.16279056 0.04793933 0.42648317
v -1.16279056 0.04793933 0.49983230
v 1.16279056 0.04793933 0.49983230
v -1.16279056 0.04793933 0.42648317
v -1.16279056 0.02307420 0.42648317
v -1.16279056 0.02307420 0.49983230
v -1.16279056 0.04793933 0.49983230
v -1.16279056 -0.11895308 0.42648317
v -1.16279056 -0.09408796 0.42648317
v 1.16279056 -0.09408796 0.42648317
v 1.16279056 -0.11895308 0.42648317
v -1.16279056 -0.11895310 0.49983230
v 1.16279056 -0.11895310 0.49983230
v 1.16279056 -0.09408798 0.49983230
v -1.16279056 -0.09408798 0.49983230
v -1.16279056 -0.11895308 0.42648317
v 1.16279056 -0.11895308 0.42648317
v 1.16279056 -0.11895310 0.49983230
v -1.16279056 -0.11895310 0.49983230
v 1.16279056 -0.11895308 0.42648317
v 1.16279056 -0.09408796 0.42648317
v 1.16279056 -0.09408798 0.49983230
v 1.16279056 -0.11895310 0.49983230
v 1.16279056 -0.09408796 0.42648317
v -1.16279056 -0.09408796 0.42648317
v -1.16279056 -0.09408798 0.49983230
v 1.16279056 -0.09408798 0.49983230
v -1.16279056 -0.09408796 0.42648317
v -1.16279056 -0.11895308 0.42648317
v -1.16279056 -0.11895310 0.49983230
v -1.16279056 -0.09408798 0.49983230
v -1.16279056 -0.04793944 0.42648317
v -1.16279056 -0.02307431 0.42648317
v 1.16279056 -0.02307431 0.42648317
v 1.16279056 -0.04793944 0.42648317
v -1.16279056 -0.04793946 0.49983230
v 1.16279056 -0.04793946 0.49983230
v 1.16279056 -0.02307431 0.49983230
v -1.16279056 -0.02307431 0.49983230
v -1.16279056 -0.04793944 0.42648317
v 1.16279056 -0.04793944 0.42648317
v 1.16279056 -0.04793946 0.49983230
v -1.16279056 -0.04793946 0.49983230
v 1.16279056 -0.04793944 0.42648317
v 1.16279056 -0.02307431 0.42648317
v 1.16279056 -0.02307431 0.49983230
v 1.16279056 -0.04793946 0.49983230
v 1.16279056 -0.02307431 0.42648317
v -1.16279056 -0.02307431 0.42648317
v -1.16279056 -0.02307431 0.49983230
v 1.16279056 -0.02307431 0.49983230
v -1.16279056 -0.02307431 0.42648317
v -1.16279056 -0.04793944 0.42648317
v -1.16279056 -0.04793946 0.49983230
v -1.16279056 -0.02307431 0.49983230
vn 1.00000000 0.00000000 0.00000000
vn 1.00000000 0.00000000 0.00000000
vn 1.00000000 0.00000000 0.00000000
vn 1.00000000 0.00000000 0.00000000
vn -1.00000000 0.00000000 0.00000000
vn -1.00000000 0.00000000 0.00000000
vn -1.00000000 0.00000000 0.00000000
vn -1.00000000 0.00000000 0.00000000
vn 0.00000000 0.00000000 -1.00000000
vn 0.00000000 0.00000000 -1.00000000
vn 0.00000000 0.00000000 -1.00000000
vn 0.00000000 0.00000000 -1.00000000
vn 0.00000000 0.00000000 -1.00000000
vn 0.00000000 0.00000000 -1.00000000
vn 0.00000000 0.00000000 -1.00000000
vn 0.00000000 0.00000000 -1.00000000
vn 0.00000004 -1.00000000 0.00000008
vn -0.00000010 -1.00000000 0.00000005
vn 0.00000036 -1.00000000 0.00000011
vn 0.00000000 -1.00000000 -0.00000000
vn 0.00000004 1.00000000 -0.00000008
vn -0.00000010 1.00000000 -0.00000005
vn 0.00000035 1.00000000 -0.00000011
vn 0.00000000 1.00000000 0.00000000
vn -1.00000000 0.00000000 0.00000000
vn -1.00000000 0.00000000 0.00000000
vn -1.00000000 0.00000000 0.00000000
vn -1.00000000 0.00000000 0.00000000
vn 1.00000000 0.00000000 0.00000000
vn 1.00000000 0.00000000 0.00000000
vn 1.00000000 0.00000000 0.00000000
vn 1.00000000 0.00000000 0.00000000
vn -1.00000000 0.00000000 0.00000000
vn -1.00000000 0.00000000 0.00000000
vn 0.00000008 -1.00000000 0.00000011
vn 0.00000000 -1.00000000 0.00000013
vn 0.00000013 -1.00000000 0.00000002
vn 0.00000041 -1.00000000 -0.00000000
vn -0.00000041 1.00000000 0.00000000
vn -0.00000041 1.00000000 0.00000000
vn -0.00000041 1.00000000 0.00000000
vn 1.00000000 0.00000000 0.00000000
vn 1.00000000 0.00000000 0.00000000
vn -0.00000041 -1.00000000 -0.00000000
vn -0.00000041 -1.00000000 0.00000000
vn -0.00000041 -1.00000000 -0.00000000
vn 0.00000008 1.00000000 -0.00000011
vn 0.00000000 1.00000000 -0.00000013
vn 0.00000012 1.00000000 -0.00000002
vn 0.00000041 1.00000000 0.00000000
vn 0.00000000 0.00000000 -1.00000000
vn 0.00000000 0.00000000 -1.00000000
vn 0.00000000 0.00000000 -1.00000000
vn 0.00000000 0.00000000 -1.00000000
vn -0.00000000 -0.00000000 1.00000000
vn -0.00000000 -0.00000000 1.00000000
vn -0.00000000 -0.00000000 1.00000000
vn -0.00000000 -0.00000000 1.00000000
vn 0.00000000 -0.00000000 1.00000000
vn 0.00000000 -0.00000000 1.00000000
vn 0.00000000 -0.00000000 1.00000000
vn 0.00000000 -0.00000000 1.00000000
vn -0.00000008 -1.00000000 0.00000011
vn 0.00000041 -1.00000000 -0.00000000
vn 0.00000041 -1.00000000 0.00000000
vn -0.00000008 1.00000000 -0.00000011
vn 0.00000041 1.00000000 0.00000000
vn 0.00000041 1.00000000 0.00000000
vn -0.00000008 -1.00000000 0.00000011
vn -0.00000044 -1.00000000 -0.00000000
vn -0.00000008 1.00000000 -0.00000011
vn -0.00000044 1.00000000 0.00000000
vn 0.00000019 -0.00000001 1.00000000
vn -0.00000000 -0.00000005 1.00000000
vn 0.00000003 -0.00000004 1.00000000
vn 0.00000022 -0.00000000 1.00000000
vn 1.00000000 0.00000000 0.00000000
vn 1.00000000 0.00000000 0.00000000
vn 1.00000000 0.00000000 0.00000000
vn 1.00000000 0.00000000 0.00000000
vn 0.00000013 0.00000003 1.00000000
vn -0.00000044 -0.00000009 1.00000000
vn -0.00000035 -0.00000008 1.00000000
vn 0.00000022 0.00000005 1.00000000
vn -1.00000000 0.00000000 0.00000000
vn -1.00000000 0.00000000 0.00000000
vn -1.00000000 0.00000000 0.00000000
vn -1.00000000 0.00000000 0.00000000
vn 0.00000000 0.00000000 -1.00000000
vn 0.00000000 0.00000000 -1.00000000
vn 0.00000000 0.00000000 -1.00000000
vn 0.00000000 0.00000000 -1.00000000
vn 0.00000000 0.00000000 1.00000000
vn 0.00000000 0.00000000 1.00000000
vn 0.00000000 0.00000000 1.00000000
vn 0.00000000 0.00000000 1.00000000
vn 0.00000000 -1.00000000 0.00000000
vn 0.00000000 -1.00000000 0.00000000
vn 0.00000000 -1.00000000 0.00000000
vn 0.00000000 -1.00000000 0.00000000
vn 1.00000000 0.00000000 0.00000000
vn 1.00000000 0.00000000 0.00000000
vn 1.00000000 0.00000000 0.00000000
vn 1.00000000 0.00000000 0.00000000
vn 0.00000000 1.00000000 0.00000000
vn 0.00000000 1.00000000 0.00000000
vn 0.00000000 1.00000000 0.00000000
vn 0.00000000 1.00000000 0.00000000
vn -1.00000000 0.00000000 0.00000000
vn -1.00000000 0.00000000 0.00000000
vn -1.00000000 0.00000000 0.00000000
vn -1.00000000 0.00000000 0.00000000
vn 0.00000000 0.00000000 -1.00000000
vn 0.00000000 0.00000000 -1.00000000
vn 0.00000000 0.00000000 -1.00000000
vn 0.00000000 0.00000000 -1.00000000
vn 0.00000000 -0.00000000 1.00000000
vn 0.00000000 -0.00000000 1.00000000
vn 0.00000000 -0.00000000 1.00000000
vn 0.00000000 -0.00000000 1.00000000
vn 0.00000000 -1.00000000 0.00000000
vn 0.00000000 -1.00000000 0.00000000
vn 0.00000000 -1.00000000 0.00000000
vn 0.00000000 -1.00000000 0.00000000
vn 1.00000000 0.00000000 0.00000000
vn 1.00000000 0.00000000 0.00000000
vn 1.00000000 0.00000000 0.00000000
vn 1.00000000 0.00000000 0.00000000
vn 0.00000000 1.00000000 0.00000019
vn 0.00000000 1.00000000 0.00000019
vn 0.00000000 1.00000000 0.00000019
vn 0.00000000 1.00000000 0.00000019
vn -1.00000000 0.00000000 0.00000000
vn -1.00000000 0.00000000 0.00000000
vn -1.00000000 0.00000000 0.00000000
vn -1.00000000 0.00000000 0.00000000
vn 0.00000000 0.00000000 -1.00000000
vn 0.00000000 0.00000000 -1.00000000
vn 0.00000000 0.00000000 -1.00000000
vn 0.00000000 0.00000000 -1.00000000
vn 0.00000000 0.00000000 1.00000000
vn 0.00000000 0.00000000 1.00000000
vn 0.00000000 0.00000000 1.00000000
vn 0.00000000 0.00000000 1.00000000
vn 0.00000000 -1.00000000 -0.00000000
vn 0.00000000 -1.00000000 -0.00000000
vn 0.00000000 -1.00000000 -0.00000000
vn 0.00000000 -1.00000000 -0.00000000
vn 1.00000000 0.00000000 0.00000000
vn 1.00000000 0.00000000 0.00000000
vn 1.00000000 0.00000000 0.00000000
vn 1.00000000 0.00000000 0.00000000
vn 0.00000000 1.00000000 0.00000000
vn 0.00000000 1.00000000 0.00000000
vn 0.00000000 1.00000000 0.00000000
vn 0.00000000 1.00000000 0.00000000
vn -1.00000000 0.00000000 0.00000000
vn -1.00000000 0.00000000 0.00000000
vn -1.00000000 0.00000000 0.00000000
vn -1.00000000 0.00000000 0.00000000
vn 0.00000000 0.00000000 -1.00000000
vn 0.00000000 0.00000000 -1.00000000
vn 0.00000000 0.00000000 -1.00000000
vn 0.00000000 0.00000000 -1.00000000
vn 0.00000000 -0.00000000 1.00000000
vn 0.00000000 -0.00000000 1.00000000
vn 0.00000000 -0.00000000 1.00000000
vn 0.00000000 -0.00000000 1.00000000
vn 0.00000000 -1.00000000 -0.00000000
vn 0.00000000 -1.00000000 -0.00000000
vn 0.00000000 -1.00000000 -0.00000000
vn 0.00000000 -1.00000000 -0.00000000
vn 1.00000000 0.00000000 0.00000000
vn 1.00000000 0.00000000 0.00000000
vn 1.00000000 0.00000000 0.00000000
vn 1.00000000 0.00000000 0.00000000
vn 0.00000000 1.00000000 0.00000019
vn 0.00000000 1.00000000 0.00000019
vn 0.00000000 1.00000000 0.00000019
vn 0.00000000 1.00000000 0.00000019
vn -1.00000000 0.00000000 0.00000000
vn -1.00000000 0.00000000 0.00000000
vn -1.00000000 0.00000000 0.00000000
vn -1.00000000 0.00000000 0.00000000
vn 0.00000000 0.00000000 -1.00000000
vn 0.00000000 0.00000000 -1.00000000
vn 0.00000000 0.00000000 -1.00000000
vn 0.00000000 0.00000000 -1.00000000
vn 0.00000000 0.00000000 1.00000000
vn 0.00000000 0.00000000 1.00000000
vn 0.00000000 0.00000000 1.00000000
vn 0.00000000 0.00000000 1.00000000
vn 0.00000000 -1.00000000 -0.00000019
vn 0.00000000 -1.00000000 -0.00000019
vn 0.00000000 -1.00000000 -0.00000019
vn 0.00000000 -1.00000000 -0.00000019
vn 1.00000000 0.00000000 0.00000000
vn 1.00000000 0.00000000 0.00000000
vn 1.00000000 0.00000000 0.00000000
vn 1.00000000 0.00000000 0.00000000
vn 0.00000000 1.00000000 0.00000019
vn 0.00000000 1.00000000 0.00000019
vn 0.00000000 1.00000000 0.00000019
vn 0.00000000 1.00000000 0.00000019
vn -1.00000000 0.00000000 0.00000000
vn -1.00000000 0.00000000 0.00000000
vn -1.00000000 0.00000000 0.00000000
vn -1.00000000 0.00000000 0.00000000
vn 0.00000000 0.00000000 -1.00000000
vn 0.00000000 0.00000000 -1.00000000
vn 0.00000000 0.00000000 -1.00000000
vn 0.00000000 0.00000000 -1.00000000
vn 0.00000000 0.00000000 1.00000000
vn 0.00000000 0.00000000 1.00000000
vn 0.00000000 0.00000000 1.00000000
vn 0.00000000 0.00000000 1.00000000
vn 0.00000000 -1.00000000 -0.00000019
vn 0.00000000 -1.00000000 -0.00000019
vn 0.00000000 -1.00000000 -0.00000019
vn 0.00000000 -1.00000000 -0.00000019
vn 1.00000000 0.00000000 0.00000000
vn 1.00000000 0.00000000 0.00000000
vn 1.00000000 0.00000000 0.00000000
vn 1.00000000 0.00000000 0.00000000
vn 0.00000000 1.00000000 0.00000019
vn 0.00000000 1.00000000 0.00000019
vn 0.00000000 1.00000000 0.00000019
vn 0.00000000 1.00000000 0.00000019
vn -1.00000000 0.00000000 0.00000000
vn -1.00000000 0.00000000 0.00000000
vn -1.00000000 0.00000000 0.00000000
vn -1.00000000 0.00000000 0.00000000
vn 0.00000000 0.00000000 -1.00000000
vn 0.00000000 0.00000000 -1.00000000
vn 0.00000000 0.00000000 -1.00000000
vn 0.00000000 0.00000000 -1.00000000
vn 0.00000000 0.00000000 1.00000000
vn 0.00000000 0.00000000 1.00000000
vn 0.00000000 0.00000000 1.00000000
vn 0.00000000 0.00000000 1.00000000
vn 0.00000000 -1.00000000 -0.00000000
vn 0.00000000 -1.00000000 -0.00000000
vn 0.00000000 -1.00000000 -0.00000000
vn 0.00000000 -1.00000000 -0.00000000
vn 1.00000000 0.00000000 0.00000000
vn 1.00000000 0.00000000 0.00000000
vn 1.00000000 0.00000000 0.00000000
vn 1.00000000 0.00000000 0.00000000
vn 0.00000000 1.00000000 0.00000000
vn 0.00000000 1.00000000 0.00000000
vn 0.00000000 1.00000000 0.00000000
vn 0.00000000 1.00000000 0.00000000
vn -1.00000000 0.00000000 0.00000000
vn -1.00000000 0.00000000 0.00000000
vn -1.00000000 0.00000000 0.00000000
vn -1.00000000 0.00000000 0.00000000
vn 0.00000000 0.00000113 -1.00000000
vn 0.00000000 0.00000113 -1.00000000
vn 0.00000000 0.00000113 -1.00000000
vn 0.00000000 0.00000113 -1.00000000
vn 0.00000000 0.00000000 1.00000000
vn 0.00000000 0.00000000 1.00000000
vn 0.00000000 0.00000000 1.00000000
vn 0.00000000 0.00000000 1.00000000
vn 0.00000000 -1.00000000 -0.00000000
vn 0.00000000 -1.00000000 -0.00000000
vn 0.00000000 -1.00000000 -0.00000000
vn 0.00000000 -1.00000000 -0.00000000
vn 1.00000000 0.00000000 0.00000000
vn 1.00000000 0.00000000 0.00000000
vn 1.00000000 0.00000000 0.00000000
vn 1.00000000 0.00000000 0.00000000
vn 0.00000000 1.00000000 0.00000000
vn 0.00000000 1.00000000 0.00000000
vn 0.00000000 1.00000000 0.00000000
vn 0.00000000 1.00000000 0.00000000
vn -1.00000000 0.00000000 0.00000000
vn -1.00000000 0.00000000 0.00000000
vn -1.00000000 0.00000000 0.00000000
vn -1.00000000 0.00000000 0.00000000
vn 0.00000000 0.00000000 -1.00000000
vn 0.00000000 0.00000000 -1.00000000
vn 0.00000000 0.00000000 -1.00000000
vn 0.00000000 0.00000000 -1.00000000
vn 0.00000000 0.00000000 1.00000000
vn 0.00000000 0.00000000 1.00000000
vn 0.00000000 0.00000000 1.00000000
vn 0.00000000 0.00000000 1.00000000
vn 0.00000000 -1.00000000 -0.00000000
vn 0.00000000 -1.00000000 -0.00000000
vn 0.00000000 -1.00000000 -0.00000000
vn 0.00000000 -1.00000000 -0.00000000
vn 1.00000000 0.00000000 0.00000000
vn 1.00000000 0.00000000 0.00000000
vn 1.00000000 0.00000000 0.00000000
vn 1.00000000 0.00000000 0.00000000
vn 0.00000000 1.00000000 0.00000000
vn 0.00000000 1.00000000 0.00000000
vn 0.00000000 1.00000000 0.00000000
vn 0.00000000 1.00000000 0.00000000
vn -1.00000000 0.00000000 0.00000000
vn -1.00000000 0.00000000 0.00000000
vn -1.00000000 0.00000000 0.00000000
vn -1.00000000 0.00000000 0.00000000
vn 0.00000000 0.00000000 -1.00000000
vn 0.00000000 0.00000000 -1.00000000
vn 0.00000000 0.00000000 -1.00000000
vn 0.00000000 0.00000000 -1.00000000
vn 0.00000000 0.00000000 1.00000000
vn 0.00000000 0.00000000 1.00000000
vn 0.00000000 0.00000000 1.00000000
vn 0.00000000 0.00000000 1.00000000
vn 0.00000000 -1.00000000 -0.00000000
vn 0.00000000 -1.00000000 -0.00000000
vn 0.00000000 -1.00000000 -0.00000000
vn 0.00000000 -1.00000000 -0.00000000
vn 1.00000000 0.00000000 0.00000000
vn 1.00000000 0.00000000 0.00000000
vn 1.00000000 0.00000000 0.00000000
vn 1.00000000 0.00000000 0.00000000
vn 0.00000000 1.00000000 0.00000000
vn 0.00000000 1.00000000 0.00000000
vn 0.00000000 1.00000000 0.00000000
vn 0.00000000 1.00000000 0.00000000
vn -1.00000000 0.00000000 0.00000000
vn -1.00000000 0.00000000 0.00000000
vn -1.00000000 0.00000000 0.00000000
vn -1.00000000 0.00000000 0.00000000
vn 0.00000000 0.00000000 -1.00000000
vn 0.00000000 0.00000000 -1.00000000
vn 0.00000000 0.00000000 -1.00000000
vn 0.00000000 0.00000000 -1.00000000
vn 0.00000000 -0.00000227 1.00000000
vn 0.00000000 -0.00000227 1.00000000
vn 0.00000000 -0.00000227 1.00000000
vn 0.00000000 -0.00000227 1.00000000
vn 0.00000000 -1.00000000 -0.00000000
vn 0.00000000 -1.00000000 -0.00000000
vn 0.00000000 -1.00000000 -0.00000000
vn 0.00000000 -1.00000000 -0.00000000
vn 1.00000000 0.00000000 0.00000000
vn 1.00000000 0.00000000 0.00000000
vn 1.00000000 0.00000000 0.00000000
vn 1.00000000 0.00000000 0.00000000
vn 0.00000000 1.00000000 0.00000000
vn 0.00000000 1.00000000 0.00000000
vn 0.00000000 1.00000000 0.00000000
vn 0.00000000 1.00000000 0.00000000
vn -1.00000000 0.00000000 0.00000000
vn -1.00000000 0.00000000 0.00000000
vn -1.00000000 0.00000000 0.00000000
vn -1.00000000 0.00000000 0.00000000
vn 0.00000000 0.00000000 -1.00000000
vn 0.00000000 0.00000000 -1.00000000
vn 0.00000000 0.00000000 -1.00000000
vn 0.00000000 0.00000000 -1.00000000
vn 0.00000000 0.00000000 1.00000000
vn 0.00000000 0.00000000 1.00000000
vn 0.00000000 0.00000000 1.00000000
vn 0.00000000 0.00000000 1.00000000
vn 0.00000000 -1.00000000 0.00000000
vn 0.00000000 -1.00000000 0.00000000
vn 0.00000000 -1.00000000 0.00000000
vn 0.00000000 -1.00000000 0.00000000
vn 1.00000000 0.00000000 0.00000000
vn 1.00000000 0.00000000 0.00000000
vn 1.00000000 0.00000000 0.00000000
vn 1.00000000 0.00000000 0.00000000
vn 0.00000000 1.00000000 0.00000000
vn 0.00000000 1.00000000 0.00000000
vn 0.00000000 1.00000000 0.00000000
vn 0.00000000 1.00000000 0.00000000
vn -1.00000000 0.00000000 0.00000000
vn -1.00000000 0.00000000 0.00000000
vn -1.00000000 0.00000000 0.00000000
vn -1.00000000 0.00000000 0.00000000
vn 0.00000000 0.00000000 -1.00000000
vn 0.00000000 0.00000000 -1.00000000
vn 0.00000000 0.00000000 -1.00000000
vn 0.00000000 0.00000000 -1.00000000
vn 0.00000000 -0.00000000 1.00000000
vn 0.00000000 -0.00000000 1.00000000
vn 0.00000000 -0.00000000 1.00000000
vn 0.00000000 -0.00000000 1.00000000
vn 0.00000000 -1.00000000 -0.00000000
vn 0.00000000 -1.00000000 -0.00000000
vn 0.00000000 -1.00000000 -0.00000000
vn 0.00000000 -1.00000000 -0.00000000
vn 1.00000000 0.00000000 0.00000000
vn 1.00000000 0.00000000 0.00000000
vn 1.00000000 0.00000000 0.00000000
vn 1.00000000 0.00000000 0.00000000
vn 0.00000000 1.00000000 0.00000000
vn 0.00000000 1.00000000 0.00000000
vn 0.00000000 1.00000000 0.00000000
vn 0.00000000 1.00000000 0.00000000
vn -1.00000000 0.00000000 0.00000000
vn -1.00000000 0.00000000 0.00000000
vn -1.00000000 0.00000000 0.00000000
vn -1.00000000 0.00000000 0.00000000
vn 0.00000000 0.00000000 -1.00000000
vn 0.00000000 0.00000000 -1.00000000
vn 0.00000000 0.00000000 -1.00000000
vn 0.00000000 0.00000000 -1.00000000
vn 0.00000000 0.00000000 1.00000000
vn 0.00000000 0.00000000 1.00000000
vn 0.00000000 0.00000000 1.00000000
vn 0.00000000 0.00000000 1.00000000
vn 0.00000000 -1.00000000 -0.00000000
vn 0.00000000 -1.00000000 -0.00000000
vn 0.00000000 -1.00000000 -0.00000000
vn 0.00000000 -1.00000000 -0.00000000
vn 1.00000000 0.00000000 0.00000000
vn 1.00000000 0.00000000 0.00000000
vn 1.00000000 0.00000000 0.00000000
vn 1.00000000 0.00000000 0.00000000
vn 0.00000000 1.00000000 0.00000000
vn 0.00000000 1.00000000 0.00000000
vn 0.00000000 1.00000000 0.00000000
vn 0.00000000 1.00000000 0.00000000
vn -1.00000000 0.00000000 0.00000000
vn -1.00000000 0.00000000 0.00000000
vn -1.00000000 0.00000000 0.00000000
vn -1.00000000 0.00000000 0.00000000
vn 0.00000000 0.00000000 -1.00000000
vn 0.00000000 0.00000000 -1.00000000
vn 0.00000000 0.00000000 -1.00000000
vn 0.00000000 0.00000000 -1.00000000
vn 0.00000000 -0.00000000 1.00000000
vn 0.00000000 -0.00000000 1.00000000
vn 0.00000000 -0.00000000 1.00000000
vn 0.00000000 -0.00000000 1.00000000
vn 0.00000000 -1.00000000 0.00000002
vn 0.00000000 -1.00000000 0.00000002
vn 0.00000000 -1.00000000 0.00000002
vn 0.00000000 -1.00000000 0.00000002
vn 1.00000000 0.00000000 0.00000000
vn 1.00000000 0.00000000 0.00000000
vn 1.00000000 0.00000000 0.00000000
vn 1.00000000 0.00000000 0.00000000
vn 0.00000000 1.00000000 0.00000000
vn 0.00000000 1.00000000 0.00000000
vn 0.00000000 1.00000000 0.00000000
vn 0.00000000 1.00000000 0.00000000
vn -1.00000000 0.00000000 0.00000000
vn -1.00000000 0.00000000 0.00000000
vn -1.00000000 0.00000000 0.00000000
vn -1.00000000 0.00000000 0.00000000
vn 0.00000000 0.00000000 -1.00000000
vn 0.00000000 0.00000000 -1.00000000
vn 0.00000000 0.00000000 -1.00000000
vn 0.00000000 0.00000000 -1.00000000
vn 0.00000000 0.00000000 1.00000000
vn 0.00000000 0.00000000 1.00000000
vn 0.00000000 0.00000000 1.00000000
vn 0.00000000 0.00000000 1.00000000
vn 0.00000000 -1.00000000 -0.00000019
vn 0.00000000 -1.00000000 -0.00000019
vn 0.00000000 -1.00000000 -0.00000019
vn 0.00000000 -1.00000000 -0.00000019
vn 1.00000000 0.00000000 0.00000000
vn 1.00000000 0.00000000 0.00000000
vn 1.00000000 0.00000000 0.00000000
vn 1.00000000 0.00000000 0.00000000
vn 0.00000000 1.00000000 0.00000019
vn 0.00000000 1.00000000 0.00000019
vn 0.00000000 1.00000000 0.00000019
vn 0.00000000 1.00000000 0.00000019
vn -1.00000000 0.00000000 0.00000000
vn -1.00000000 0.00000000 0.00000000
vn -1.00000000 0.00000000 0.00000000
vn -1.00000000 0.00000000 0.00000000
vn 0.00000000 0.00000000 -1.00000000
vn 0.00000000 0.00000000 -1.00000000
vn 0.00000000 0.00000000 -1.00000000
vn 0.00000000 0.00000000 -1.00000000
vn 0.00000000 -0.00000000 1.00000000
vn 0.00000000 -0.00000000 1.00000000
vn 0.00000000 -0.00000000 1.00000000
vn 0.00000000 -0.00000000 1.00000000
vn 0.00000000 -1.00000000 -0.00000019
vn 0.00000000 -1.00000000 -0.00000019
vn 0.00000000 -1.00000000 -0.00000019
vn 0.00000000 -1.00000000 -0.00000019
vn 1.00000000 0.00000000 0.00000000
vn 1.00000000 0.00000000 0.00000000
vn 1.00000000 0.00000000 0.00000000
vn 1.00000000 0.00000000 0.00000000
vn 0.00000000 1.00000000 -0.00000002
vn 0.00000000 1.00000000 -0.00000002
vn 0.00000000 1.00000000 -0.00000002
vn 0.00000000 1.00000000 -0.00000002
vn -1.00000000 0.00000000 0.00000000
vn -1.00000000 0.00000000 0.00000000
vn -1.00000000 0.00000000 0.00000000
vn -1.00000000 0.00000000 0.00000000
vt 0.66430467 0.69334328
vt 0.66430467 0.81215549
vt 0.82970154 0.81215549
vt 0.82970154 0.69334328
vt 0.66430467 0.83343971
vt 0.66430467 0.95235908
vt 0.82970154 0.95235902
vt 0.82970154 0.83343971
vt 0.66232908 0.29291195
vt 0.82772607 0.29291195
vt 0.82772607 0.25703084
vt 0.66232908 0.25703084
vt 0.99376696 0.43572414
vt 0.82837003 0.43572414
vt 0.82837003 0.47173351
vt 0.99376696 0.47173351
vt 0.66430467 0.53451777
vt 0.78311688 0.53451777
vt 0.78311688 0.49863672
vt 0.66430467 0.49863672
vt 0.82858473 0.29304010
vt 0.94750404 0.29304010
vt 0.94750404 0.25703084
vt 0.82858473 0.25703084
vt 0.66430467 0.69269925
vt 0.82970154 0.69269925
vt 0.82970154 0.57388705
vt 0.66430467 0.57388705
vt 0.66232908 0.47173351
vt 0.82772607 0.47173351
vt 0.82772607 0.35281414
vt 0.66232908 0.35281414
vt 0.66430467 0.97289199
vt 0.82970154 0.97289199
vt 0.66232908 0.10610068
vt 0.66232908 0.14469767
vt 0.78124839 0.14469767
vt 0.78124839 0.10610068
vt 0.96803695 0.33163714
vt 0.96803695 0.29304010
vt 0.94750404 0.33163714
vt 0.66430467 0.83279562
vt 0.82970154 0.83279562
vt 0.80375695 0.57324302
vt 0.80375695 0.53451777
vt 0.78311688 0.57324302
vt 0.66232908 0.18156576
vt 0.66232908 0.22029096
vt 0.78114128 0.22029096
vt 0.78114128 0.18156576
vt 0.66232908 0.33163714
vt 0.82772607 0.33163714
vt 0.99376696 0.39712715
vt 0.82837003 0.39712715
vt 0.82837003 0.39626843
vt 0.99376696 0.39626843
vt 0.99376696 0.35754317
vt 0.82837003 0.35754317
vt 0.82772607 0.06664497
vt 0.66232908 0.06664497
vt 0.66232908 0.10524189
vt 0.82772607 0.10524189
vt 0.66430467 0.57324302
vt 0.80178136 0.10610068
vt 0.80178136 0.14469767
vt 0.82858473 0.33163714
vt 0.80178136 0.18156576
vt 0.80178136 0.22029096
vt 0.66232908 0.18070698
vt 0.78124839 0.18070698
vt 0.66232908 0.25617200
vt 0.78114128 0.25617200
vt 0.80264020 0.18070698
vt 0.96803695 0.18070698
vt 0.96803695 0.14469767
vt 0.80264020 0.14469767
vt 0.96803695 0.19267666
vt 0.80264020 0.19267666
vt 0.80264020 0.21320957
vt 0.96803695 0.21320957
vt 0.80330676 0.25308508
vt 0.96870357 0.25282168
vt 0.96864635 0.21694070
vt 0.80324978 0.21720397
vt 0.82970154 0.47713786
vt 0.66430467 0.47713780
vt 0.66430467 0.49777800
vt 0.82970154 0.49777800
vt 0.63114715 0.23845971
vt 0.63114715 0.23176736
vt 0.00522265 0.23176736
vt 0.00522265 0.23845971
vt 0.63114715 0.23958516
vt 0.00522265 0.23958516
vt 0.00522265 0.24627751
vt 0.63114715 0.24627751
vt 0.63114715 0.89129269
vt 0.00522265 0.89129269
vt 0.00522265 0.91084838
vt 0.63114715 0.91084838
vt 0.63227260 0.57325679
vt 0.63227260 0.57994914
vt 0.65182823 0.57994914
vt 0.65182823 0.57325679
vt 0.63114715 0.87061155
vt 0.00522265 0.87061155
vt 0.00522265 0.89016718
vt 0.63114715 0.89016718
vt 0.63227260 0.80075002
vt 0.63227260 0.80744243
vt 0.65182823 0.80744243
vt 0.65182823 0.80075002
vt 0.63114703 0.03519326
vt 0.63114703 0.02850091
vt 0.00522265 0.02850091
vt 0.00522265 0.03519326
vt 0.63114703 0.00504708
vt 0.00522265 0.00504708
vt 0.00522265 0.01173949
vt 0.63114703 0.01173949
vt 0.63114703 0.80856794
vt 0.00522265 0.80856794
vt 0.00522265 0.82812363
vt 0.63114703 0.82812363
vt 0.63227260 0.30440140
vt 0.63227260 0.31109369
vt 0.65182823 0.31109369
vt 0.65182823 0.30440140
vt 0.63114703 0.78788680
vt 0.00522265 0.78788680
vt 0.00522265 0.80744243
vt 0.63114703 0.80744243
vt 0.63227260 0.28372020
vt 0.63227260 0.29041255
vt 0.65182823 0.29041255
vt 0.65182823 0.28372020
vt 0.63114703 0.06646502
vt 0.63114703 0.05977261
vt 0.00522265 0.05977261
vt 0.00522265 0.06646502
vt 0.63114703 0.06759065
vt 0.00522265 0.06759065
vt 0.00522265 0.07428300
vt 0.63114703 0.07428300
vt 0.63114703 0.43630618
vt 0.00522265 0.43630618
vt 0.00522265 0.45586193
vt 0.63114703 0.45586193
vt 0.63227260 0.32508254
vt 0.63227260 0.33177489
vt 0.65182823 0.33177489
vt 0.65182823 0.32508254
vt 0.63114703 0.41562510
vt 0.00522265 0.41562510
vt 0.00522265 0.43518078
vt 0.63114703 0.43518078
vt 0.63227260 0.34576380
vt 0.63227260 0.35245609
vt 0.65182823 0.35245609
vt 0.65182823 0.34576380
vt 0.63114703 0.05082911
vt 0.63114703 0.04413676
vt 0.00522265 0.04413676
vt 0.00522265 0.05082911
vt 0.63114703 0.02068299
vt 0.00522265 0.02068299
vt 0.00522265 0.02737534
vt 0.63114703 0.02737534
vt 0.63114703 0.91197389
vt 0.00522265 0.91197389
vt 0.00522265 0.93152958
vt 0.63114703 0.93152958
vt 0.63227260 0.53189445
vt 0.63227260 0.53858674
vt 0.65182823 0.53858674
vt 0.65182823 0.53189445
vt 0.63114703 0.93265510
vt 0.00522265 0.93265510
vt 0.00522265 0.95221078
vt 0.63114703 0.95221078
vt 0.63227260 0.55257559
vt 0.63227260 0.55926800
vt 0.65182823 0.55926800
vt 0.65182823 0.55257559
vt 0.63114703 0.04301119
vt 0.63114703 0.03631884
vt 0.00522265 0.03631884
vt 0.00522265 0.04301119
vt 0.63114703 0.01286501
vt 0.00522265 0.01286501
vt 0.00522265 0.01955736
vt 0.63114703 0.01955736
vt 0.63114703 0.51903117
vt 0.00522265 0.51903117
vt 0.00522265 0.53858674
vt 0.63114703 0.53858674
vt 0.63227260 0.38712609
vt 0.63227260 0.39381850
vt 0.65182823 0.39381850
vt 0.65182823 0.38712609
vt 0.63114703 0.53971231
vt 0.00522265 0.53971231
vt 0.00522265 0.55926800
vt 0.63114703 0.55926800
vt 0.63227260 0.36644483
vt 0.63227260 0.37313724
vt 0.65182823 0.37313724
vt 0.65182823 0.36644483
vt 0.63114703 0.05864710
vt 0.63114703 0.05195481
vt 0.00522265 0.05195481
vt 0.00522265 0.05864710
vt 0.63114703 0.08322650
vt 0.00522265 0.08322650
vt 0.00522265 0.08991885
vt 0.63114703 0.08991885
vt 0.63114703 0.84993035
vt 0.00522265 0.84993035
vt 0.00522265 0.86948597
vt 0.63114703 0.86948597
vt 0.63227260 0.59393799
vt 0.63227260 0.60063040
vt 0.65182823 0.60063040
vt 0.65182823 0.59393799
vt 0.63114703 0.64311838
vt 0.00522265 0.64311838
vt 0.00522265 0.66267407
vt 0.63114703 0.66267407
vt 0.63227260 0.78006881
vt 0.63227260 0.78676116
vt 0.65182823 0.78676116
vt 0.65182823 0.78006881
vt 0.63114703 0.19155198
vt 0.63114703 0.18485963
vt 0.00522265 0.18485963
vt 0.00522265 0.19155198
vt 0.63114703 0.22394937
vt 0.00522265 0.22394937
vt 0.00522265 0.23064172
vt 0.63114703 0.23064172
vt 0.63114703 0.66379952
vt 0.00522265 0.66379952
vt 0.00522265 0.68335521
vt 0.63114703 0.68335521
vt 0.63227260 0.75938761
vt 0.63227260 0.76607996
vt 0.65182823 0.76607996
vt 0.65182823 0.75938761
vt 0.63114703 0.47766870
vt 0.00522265 0.47766870
vt 0.00522265 0.49722439
vt 0.63114703 0.49722439
vt 0.63227260 0.84211242
vt 0.63227260 0.84880477
vt 0.65182823 0.84880477
vt 0.65182823 0.84211242
vt 0.63114703 0.16809815
vt 0.63114703 0.16140592
vt 0.00522265 0.16140592
vt 0.00522265 0.16809815
vt 0.63114703 0.16922379
vt 0.00522265 0.16922379
vt 0.00522265 0.17591614
vt 0.63114703 0.17591614
vt 0.63114703 0.56039351
vt 0.00522265 0.56039351
vt 0.00522265 0.57994914
vt 0.63114703 0.57994914
vt 0.63227260 0.82143122
vt 0.63227260 0.82812357
vt 0.65182823 0.82812357
vt 0.65182823 0.82143122
vt 0.63114703 0.45698756
vt 0.00522265 0.45698756
vt 0.00522265 0.47654313
vt 0.63114703 0.47654313
vt 0.63227260 0.71802521
vt 0.63227260 0.72471756
vt 0.65182823 0.72471756
vt 0.65182823 0.71802521
vt 0.63114703 0.12119061
vt 0.63114703 0.11449820
vt 0.00522265 0.11449820
vt 0.00522265 0.12119061
vt 0.63114703 0.12231618
vt 0.00522265 0.12231618
vt 0.00522265 0.12900859
vt 0.63114703 0.12900859
vt 0.63114703 0.39494389
vt 0.00522265 0.39494389
vt 0.00522265 0.41449958
vt 0.63114703 0.41449958
vt 0.63227260 0.42848843
vt 0.63227260 0.43518078
vt 0.65182823 0.43518078
vt 0.65182823 0.42848843
vt 0.63114703 0.29153806
vt 0.00522265 0.29153806
vt 0.00522265 0.31109369
vt 0.63114703 0.31109369
vt 0.63227260 0.44916964
vt 0.63227260 0.45586193
vt 0.65182823 0.45586193
vt 0.65182823 0.44916964
vt 0.63114703 0.16028029
vt 0.63114703 0.15358794
vt 0.00522265 0.15358794
vt 0.00522265 0.16028029
vt 0.63114703 0.14577001
vt 0.00522265 0.14577001
vt 0.00522265 0.15246242
vt 0.63114703 0.15246242
vt 0.63114703 0.27085686
vt 0.00522265 0.27085686
vt 0.00522265 0.29041255
vt 0.63114703 0.29041255
vt 0.63227260 0.49053204
vt 0.63227260 0.49722439
vt 0.65182823 0.49722439
vt 0.65182823 0.49053204
vt 0.63114703 0.33290046
vt 0.00522265 0.33290046
vt 0.00522265 0.35245609
vt 0.63114703 0.35245609
vt 0.63227260 0.40780717
vt 0.63227260 0.41449958
vt 0.65182823 0.41449958
vt 0.65182823 0.40780717
vt 0.63114703 0.22282374
vt 0.63114703 0.21613139
vt 0.00522265 0.21613139
vt 0.00522265 0.22282374
vt 0.63114703 0.13795203
vt 0.00522265 0.13795203
vt 0.00522265 0.14464432
vt 0.63114703 0.14464432
vt 0.63114703 0.31221920
vt 0.00522265 0.31221920
vt 0.00522265 0.33177489
vt 0.63114703 0.33177489
vt 0.63227260 0.86279356
vt 0.63227260 0.86948597
vt 0.65182823 0.86948597
vt 0.65182823 0.86279356
vt 0.63114703 0.95333636
vt 0.00522265 0.95333636
vt 0.00522265 0.97289199
vt 0.63114703 0.97289199
vt 0.63227260 0.88347483
vt 0.63227260 0.89016718
vt 0.65182823 0.89016718
vt 0.65182823 0.88347483
vt 0.63114703 0.19937003
vt 0.63114703 0.19267762
vt 0.00522265 0.19267762
vt 0.00522265 0.19937003
vt 0.63114703 0.09886235
vt 0.00522265 0.09886235
vt 0.00522265 0.10555476
vt 0.63114703 0.10555476
vt 0.63114703 0.58107471
vt 0.00522265 0.58107471
vt 0.00522265 0.60063040
vt 0.63114703 0.60063040
vt 0.63227260 0.65598166
vt 0.63227260 0.66267407
vt 0.65182823 0.66267407
vt 0.65182823 0.65598166
vt 0.63114703 0.68448073
vt 0.00522265 0.68448073
vt 0.00522265 0.70403641
vt 0.63114703 0.70403641
vt 0.63227260 0.69734406
vt 0.63227260 0.70403641
vt 0.65182823 0.70403641
vt 0.65182823 0.69734406
vt 0.63114703 0.25409549
vt 0.63114703 0.24740314
vt 0.00522265 0.24740314
vt 0.00522265 0.25409549
vt 0.63114703 0.25522107
vt 0.00522265 0.25522107
vt 0.00522265 0.26191342
vt 0.63114703 0.26191342
vt 0.63114703 0.82924914
vt 0.00522265 0.82924914
vt 0.00522265 0.84880483
vt 0.63114703 0.84880483
vt 0.63227260 0.94551837
vt 0.63227260 0.95221078
vt 0.65182823 0.95221078
vt 0.65182823 0.94551837
vt 0.63114703 0.76720560
vt 0.00522265 0.76720560
vt 0.00522265 0.78676122
vt 0.63114703 0.78676122
vt 0.63227260 0.92483717
vt 0.63227260 0.93152958
vt 0.65182823 0.93152958
vt 0.65182823 0.92483717
vt 0.63114703 0.21500587
vt 0.63114703 0.20831347
vt 0.00522265 0.20831347
vt 0.00522265 0.21500587
vt 0.63114703 0.17704177
vt 0.00522265 0.17704177
vt 0.00522265 0.18373412
vt 0.63114703 0.18373412
vt 0.63114703 0.37426275
vt 0.00522265 0.37426275
vt 0.00522265 0.39381850
vt 0.63114703 0.39381850
vt 0.63227260 0.46985078
vt 0.63227260 0.47654313
vt 0.65182823 0.47654313
vt 0.65182823 0.46985078
vt 0.63114703 0.35358161
vt 0.00522265 0.35358161
vt 0.00522265 0.37313724
vt 0.63114703 0.37313724
vt 0.63227260 0.51121318
vt 0.63227260 0.51790559
vt 0.65182823 0.51790559
vt 0.65182823 0.51121318
vt 0.63114703 0.11337268
vt 0.63114703 0.10668027
vt 0.00522265 0.10668027
vt 0.00522265 0.11337268
vt 0.63114703 0.20049548
vt 0.00522265 0.20049548
vt 0.00522265 0.20718801
vt 0.63114703 0.20718801
vt 0.63114703 0.49834996
vt 0.00522265 0.49834996
vt 0.00522265 0.51790559
vt 0.63114703 0.51790559
vt 0.63227260 0.63530040
vt 0.63227260 0.64199281
vt 0.65182823 0.64199281
vt 0.65182823 0.63530040
vt 0.63114703 0.70516199
vt 0.00522265 0.70516199
vt 0.00522265 0.72471762
vt 0.63114703 0.72471762
vt 0.63227260 0.61461926
vt 0.63227260 0.62131160
vt 0.65182823 0.62131160
vt 0.65182823 0.61461926
vt 0.63114703 0.08210093
vt 0.63114703 0.07540852
vt 0.00522265 0.07540852
vt 0.00522265 0.08210093
vt 0.63114703 0.09104437
vt 0.00522265 0.09104437
vt 0.00522265 0.09773678
vt 0.63114703 0.09773678
vt 0.63114703 0.62243712
vt 0.00522265 0.62243712
vt 0.00522265 0.64199281
vt 0.63114703 0.64199281
vt 0.63227260 0.67666280
vt 0.63227260 0.68335521
vt 0.65182823 0.68335521
vt 0.65182823 0.67666280
vt 0.63114703 0.60175598
vt 0.00522265 0.60175598
vt 0.00522265 0.62131160
vt 0.63114703 0.62131160
vt 0.63227260 0.73870647
vt 0.63227260 0.74539876
vt 0.65182823 0.74539876
vt 0.65182823 0.73870647
vt 0.63114703 0.13682652
vt 0.63114703 0.13013411
vt 0.00522265 0.13013411
vt 0.00522265 0.13682652
vt 0.63114703 0.26303899
vt 0.00522265 0.26303899
vt 0.00522265 0.26973140
vt 0.63114703 0.26973140
vt 0.63114703 0.74652433
vt 0.00522265 0.74652433
vt 0.00522265 0.76608002
vt 0.63114703 0.76608002
vt 0.63227260 0.96619958
vt 0.63227260 0.97289199
vt 0.65182823 0.97289199
vt 0.65182823 0.96619958
vt 0.63114703 0.72584319
vt 0.00522265 0.72584319
vt 0.00522265 0.74539882
vt 0.63114703 0.74539882
vt 0.63227260 0.90415597
vt 0.63227260 0.91084838
vt 0.65182823 0.91084838
vt 0.65182823 0.90415597
f 1/1/1 2/2/2 3/3/3
f 1/1/1 3/3/3 4/4/4
f 5/5/5 6/6/6 7/7/7
f 5/5/5 7/7/7 8/8/8
f 9/9/9 10/10/10 11/11/11
f 9/9/9 11/11/11 12/12/12
f 13/13/13 14/14/14 15/15/15
f 13/13/13 15/15/15 16/16/16
f 17/17/17 18/18/18 19/19/19
f 17/17/17 19/19/19 20/20/20
f 21/21/21 22/22/22 23/23/23
f 21/21/21 23/23/23 24/24/24
f 25/25/25 26/26/26 27/27/27
f 25/25/25 27/27/27 28/28/28
f 29/29/29 30/30/30 31/31/31
f 29/29/29 31/31/31 32/32/32
f 33/33/33 34/34/34 7/7/7
f 33/33/33 7/7/7 6/6/6
f 35/35/35 36/36/36 37/37/37
f 35/35/35 37/37/37 38/38/38
f 39/39/39 40/40/40 22/22/22
f 39/39/39 22/22/22 41/41/41
f 42/42/42 43/43/43 3/3/3
f 42/42/42 3/3/3 2/2/2
f 44/44/44 45/45/45 18/18/18
f 44/44/44 18/18/18 46/46/46
f 47/47/47 48/48/48 49/49/49
f 47/47/47 49/49/49 50/50/50
f 51/51/51 52/52/52 10/10/10
f 51/51/51 10/10/10 9/9/9
f 53/53/53 54/54/54 14/14/14
f 53/53/53 14/14/14 13/13/13
f 55/55/55 56/56/56 57/57/57
f 55/55/55 57/57/57 58/58/58
f 59/59/59 60/60/60 61/61/61
f 59/59/59 61/61/61 62/62/62
f 63/63/63 46/46/46 18/18/18
f 63/63/63 18/18/18 17/17/17
f 64/64/64 38/38/38 37/37/37
f 64/64/64 37/37/37 65/65/65
f 66/66/66 41/41/41 22/22/22
f 66/66/66 22/22/22 21/21/21
f 67/67/67 50/50/50 49/49/49
f 67/67/67 49/49/49 68/68/68
f 69/69/69 70/70/70 37/37/37
f 69/69/69 37/37/37 36/36/36
f 71/71/71 72/72/72 49/49/49
f 71/71/71 49/49/49 48/48/48
f 73/73/73 74/74/74 75/75/75
f 73/73/73 75/75/75 76/76/76
f 77/77/77 78/78/78 79/79/79
f 77/77/77 79/79/79 80/80/80
f 81/81/81 82/82/82 83/83/83
f 81/81/81 83/83/83 84/84/84
f 85/85/85 86/86/86 87/87/87
f 85/85/85 87/87/87 88/88/88
f 89/89/89 90/90/90 91/91/91
f 89/89/89 91/91/91 92/92/92
f 93/93/93 94/94/94 95/95/95
f 93/93/93 95/95/95 96/96/96
f 97/97/97 98/98/98 99/99/99
f 97/97/97 99/99/99 100/100/100
f 101/101/101 102/102/102 103/103/103
f 101/101/101 103/103/103 104/104/104
f 105/105/105 106/106/106 107/107/107
f 105/105/105 107/107/107 108/108/108
f 109/109/109 110/110/110 111/111/111
f 109/109/109 111/111/111 112/112/112
f 113/113/113 114/114/114 115/115/115
f 113/113/113 115/115/115 116/116/116
f 117/117/117 118/118/118 119/119/119
f 117/117/117 119/119/119 120/120/120
f 121/121/121 122/122/122 123/123/123
f 121/121/121 123/123/123 124/124/124
f 125/125/125 126/126/126 127/127/127
f 125/125/125 127/127/127 128/128/128
f 129/129/129 130/130/130 131/131/131
f 129/129/129 131/131/131 132/132/132
f 133/133/133 134/134/134 135/135/135
f 133/133/133 135/135/135 136/136/136
f 137/137/137 138/138/138 139/139/139
f 137/137/137 139/139/139 140/140/140
f 141/141/141 142/142/142 143/143/143
f 141/141/141 143/143/143 144/144/144
f 145/145/145 146/146/146 147/147/147
f 145/145/145 147/147/147 148/148/148
f 149/149/149 150/150/150 151/151/151
f 149/149/149 151/151/151 152/152/152
f 153/153/153 154/154/154 155/155/155
f 153/153/153 155/155/155 156/156/156
f 157/157/157 158/158/158 159/159/159
f 157/157/157 159/159/159 160/160/160
f 161/161/161 162/162/162 163/163/163
f 161/161/161 163/163/163 164/164/164
f 165/165/165 166/166/166 167/167/167
f 165/165/165 167/167/167 168/168/168
f 169/169/169 170/170/170 171/171/171
f 169/169/169 171/171/171 172/172/172
f 173/173/173 174/174/174 175/175/175
f 173/173/173 175/175/175 176/176/176
f 177/177/177 178/178/178 179/179/179
f 177/177/177 179/179/179 180/180/180
f 181/181/181 182/182/182 183/183/183
f 181/181/181 183/183/183 184/184/184
f 185/185/185 186/186/186 187/187/187
f 185/185/185 187/187/187 188/188/188
f 189/189/189 190/190/190 191/191/191
f 189/189/189 191/191/191 192/192/192
f 193/193/193 194/194/194 195/195/195
f 193/193/193 195/195/195 196/196/196
f 197/197/197 198/198/198 199/199/199
f 197/197/197 199/199/199 200/200/200
f 201/201/201 202/202/202 203/203/203
f 201/201/201 203/203/203 204/204/204
f 205/205/205 206/206/206 207/207/207
f 205/205/205 207/207/207 208/208/208
f 209/209/209 210/210/210 211/211/211
f 209/209/209 211/211/211 212/212/212
f 213/213/213 214/214/214 215/215/215
f 213/213/213 215/215/215 216/216/216
f 217/217/217 218/218/218 219/219/219
f 217/217/217 219/219/219 220/220/220
f 221/221/221 222/222/222 223/223/223
f 221/221/221 223/223/223 224/224/224
f 225/225/225 226/226/226 227/227/227
f 225/225/225 227/227/227 228/228/228
f 229/229/229 230/230/230 231/231/231
f 229/229/229 231/231/231 232/232/232
f 233/233/233 234/234/234 235/235/235
f 233/233/233 235/235/235 236/236/236
f 237/237/237 238/238/238 239/239/239
f 237/237/237 239/239/239 240/240/240
f 241/241/241 242/242/242 243/243/243
f 241/241/241 243/243/243 244/244/244
f 245/245/245 246/246/246 247/247/247
f 245/245/245 247/247/247 248/248/248
f 249/249/249 250/250/250 251/251/251
f 249/249/249 251/251/251 252/252/252
f 253/253/253 254/254/254 255/255/255
f 253/253/253 255/255/255 256/256/256
f 257/257/257 258/258/258 259/259/259
f 257/257/257 259/259/259 260/260/260
f 261/261/261 262/262/262 263/263/263
f 261/261/261 263/263/263 264/264/264
f 265/265/265 266/266/266 267/267/267
f 265/265/265 267/267/267 268/268/268
f 269/269/269 270/270/270 271/271/271
f 269/269/269 271/271/271 272/272/272
f 273/273/273 274/274/274 275/275/275
f 273/273/273 275/275/275 276/276/276
f 277/277/277 278/278/278 279/279/279
f 277/277/277 279/279/279 280/280/280
f 281/281/281 282/282/282 283/283/283
f 281/281/281 283/283/283 284/284/284
f 285/285/285 286/286/286 287/287/287
f 285/285/285 287/287/287 288/288/288
f 289/289/289 290/290/290 291/291/291
f 289/289/289 291/291/291 292/292/292
f 293/293/293 294/294/294 295/295/295
f 293/293/293 295/295/295 296/296/296
f 297/297/297 298/298/298 299/299/299
f 297/297/297 299/299/299 300/300/300
f 301/301/301 302/302/302 303/303/303
f 301/301/301 303/303/303 304/304/304
f 305/305/305 306/306/306 307/307/307
f 305/305/305 307/307/307 308/308/308
f 309/309/309 310/310/310 311/311/311
f 309/309/309 311/311/311 312/312/312
f 313/313/313 314/314/314 315/315/315
f 313/313/313 315/315/315 316/316/316
f 317/317/317 318/318/318 319/319/319
f 317/317/317 319/319/319 320/320/320
f 321/321/321 322/322/322 323/323/323
f 321/321/321 323/323/323 324/324/324
f 325/325/325 326/326/326 327/327/327
f 325/325/325 327/327/327 328/328/328
f 329/329/329 330/330/330 331/331/331
f 329/329/329 331/331/331 332/332/332
f 333/333/333 334/334/334 335/335/335
f 333/333/333 335/335/335 336/336/336
f 337/337/337 338/338/338 339/339/339
f 337/337/337 339/339/339 340/340/340
f 341/341/341 342/342/342 343/343/343
f 341/341/341 343/343/343 344/344/344
f 345/345/345 346/346/346 347/347/347
f 345/345/345 347/347/347 348/348/348
f 349/349/349 350/350/350 351/351/351
f 349/349/349 351/351/351 352/352/352
f 353/353/353 354/354/354 355/355/355
f 353/353/353 355/355/355 356/356/356
f 357/357/357 358/358/358 359/359/359
f 357/357/357 359/359/359 360/360/360
f 361/361/361 362/362/362 363/363/363
f 361/361/361 363/363/363 364/364/364
f 365/365/365 366/366/366 367/367/367
f 365/365/365 367/367/367 368/368/368
f 369/369/369 370/370/370 371/371/371
f 369/369/369 371/371/371 372/372/372
f 373/373/373 374/374/374 375/375/375
f 373/373/373 375/375/375 376/376/376
f 377/377/377 378/378/378 379/379/379
f 377/377/377 379/379/379 380/380/380
f 381/381/381 382/382/382 383/383/383
f 381/381/381 383/383/383 384/384/384
f 385/385/385 386/386/386 387/387/387
f 385/385/385 387/387/387 388/388/388
f 389/389/389 390/390/390 391/391/391
f 389/389/389 391/391/391 392/392/392
f 393/393/393 394/394/394 395/395/395
f 393/393/393 395/395/395 396/396/396
f 397/397/397 398/398/398 399/399/399
f 397/397/397 399/399/399 400/400/400
f 401/401/401 402/402/402 403/403/403
f 401/401/401 403/403/403 404/404/404
f 405/405/405 406/406/406 407/407/407
f 405/405/405 407/407/407 408/408/408
f 409/409/409 410/410/410 411/411/411
f 409/409/409 411/411/411 412/412/412
f 413/413/413 414/414/414 415/415/415
f 413/413/413 415/415/415 416/416/416
f 417/417/417 418/418/418 419/419/419
f 417/417/417 419/419/419 420/420/420
f 421/421/421 422/422/422 423/423/423
f 421/421/421 423/423/423 424/424/424
f 425/425/425 426/426/426 427/427/427
f 425/425/425 427/427/427 428/428/428
f 429/429/429 430/430/430 431/431/431
f 429/429/429 431/431/431 432/432/432
f 433/433/433 434/434/434 435/435/435
f 433/433/433 435/435/435 436/436/436
f 437/437/437 438/438/438 439/439/439
f 437/437/437 439/439/439 440/440/440
f 441/441/441 442/442/442 443/443/443
f 441/441/441 443/443/443 444/444/444
f 445/445/445 446/446/446 447/447/447
f 445/445/445 447/447/447 448/448/448
f 449/449/449 450/450/450 451/451/451
f 449/449/449 451/451/451 452/452/452
f 453/453/453 454/454/454 455/455/455
f 453/453/453 455/455/455 456/456/456
f 457/457/457 458/458/458 459/459/459
f 457/457/457 459/459/459 460/460/460
f 461/461/461 462/462/462 463/463/463
f 461/461/461 463/463/463 464/464/464
f 465/465/465 466/466/466 467/467/467
f 465/465/465 467/467/467 468/468/468
f 469/469/469 470/470/470 471/471/471
f 469/469/469 471/471/471 472/472/472
f 473/473/473 474/474/474 475/475/475
f 473/473/473 475/475/475 476/476/476
f 477/477/477 478/478/478 479/479/479
f 477/477/477 479/479/479 480/480/480
f 481/481/481 482/482/482 483/483/483
f 481/481/481 483/483/483 484/484/484
f 485/485/485 486/486/486 487/487/487
f 485/485/485 487/487/487 488/488/488
f 489/489/489 490/490/490 491/491/491
f 489/489/489 491/491/491 492/492/492
f 493/493/493 494/494/494 495/495/495
f 493/493/493 495/495/495 496/496/496

