# https://github.com/mikedh/trimesh
v -2.33622726 0.25977712 0.67193489
v -2.35414001 0.26032992 0.63537165
v -2.33622726 0.21281520 0.67193489
v -2.35414001 0.21355192 0.63537165
v -2.35414001 0.18312276 0.63537165
v -2.33622726 0.18238704 0.67193489
v -2.35414001 0.22993191 0.63537165
v -2.33622726 0.22934896 0.67193489
v -2.35414001 -0.18312276 0.63537165
v -2.35414001 -0.22993191 0.63537165
v -2.33622726 -0.18238704 0.67193489
v -2.33622726 -0.22934896 0.67193489
v -2.35414001 -0.21355192 0.63537165
v -2.35414001 -0.26032992 0.63537165
v -2.33622726 -0.21281520 0.67193489
v -2.33622726 -0.25977712 0.67193489
v 1.96226371 0.68885886 0.51094026
v 1.96074737 0.69417245 0.51207756
v 1.99090120 0.68923795 0.51777025
v 1.99052206 0.69341423 0.51871489
v 1.77828923 -0.84931689 0.58775424
v 1.80806393 -0.84267949 0.58225422
v 1.79365203 -0.83584957 0.58263331
v 1.81603125 -0.83793766 0.58073782
v 1.79365203 -0.83584957 0.58263331
v 1.81603125 -0.83793766 0.58073782
v 1.90365269 -0.80455844 0.52080302
v 1.94993369 -0.80019565 0.50923121
v 1.91484541 -0.79734929 0.51625385
v 1.97117562 -0.78653571 0.50524758
v 1.95410377 -0.74651908 0.51075382
v 1.99962669 -0.74405181 0.50183570
v 1.99659391 -0.69284248 0.50468204
v 2.03718229 -0.68677693 0.49728653
v 2.01347305 -0.66799602 0.50202836
v 2.03111044 -0.64220489 0.49918202
v 2.06145699 -0.64334219 0.49348933
v 2.04856142 -0.61640756 0.49633567
v 2.09957814 -0.57506101 0.48533562
v 2.07833621 -0.57240732 0.49083565
v 1.97724746 -0.69322156 0.54090767
v 1.97781300 -0.68905148 0.54109411
v 1.94253821 -0.69379336 0.54128677
v 1.94519186 -0.68847973 0.54166587
v 1.85168509 0.80000303 0.52668215
v 1.86269139 0.76927740 0.52402846
v 1.85339415 0.76832656 0.52137477
v 1.85301511 0.73741451 0.52440756
v 1.99052206 0.68601251 0.52269853
v 1.97781300 0.68905148 0.54109411
v 1.96472473 0.68449612 0.51814935
v 1.94519186 0.68847973 0.54166587
v 1.97781300 -0.68905148 0.54109411
v 1.97724746 -0.69322156 0.54090767
v 1.99052206 -0.68601251 0.52269853
v 1.98938476 -0.69682614 0.52497312
v 1.99090120 0.68923795 0.51777025
v 1.99052206 0.68601251 0.52269853
v 1.96226371 0.68885886 0.51094026
v 1.96472473 0.68449612 0.51814935
v 1.96226371 -0.68885886 0.51094026
v 1.99090120 -0.68923795 0.51777025
v 1.96074737 -0.69417245 0.51207756
v 1.99052206 -0.69341423 0.51871489
v 1.96510386 0.66268865 0.53692403
v 1.99773121 0.66325419 0.53654494
v 1.96245021 0.66799602 0.53654493
v 1.99715946 0.66743048 0.53616584
v 1.99052206 -0.68601251 0.52269853
v 1.96472473 -0.68449612 0.51814935
v 1.97781300 -0.68905148 0.54109411
v 1.94519186 -0.68847973 0.54166587
v 2.03585227 -0.58340737 0.51131938
v 2.05595698 -0.58359383 0.51264933
v 2.04780325 -0.57828645 0.49994021
v 2.06354508 -0.58131923 0.50828660
v 2.06468238 -0.58435825 0.50278656
v 2.04552244 -0.58264920 0.49690743
v 2.06448976 -0.58075368 0.50430295
v 2.04780325 -0.57828645 0.49994021
v 2.02921497 0.63670485 0.51018208
v 2.02959410 0.63310032 0.51416572
v 2.00076399 0.63632576 0.50486849
v 2.00303859 0.63158393 0.51056117
v 1.99052206 -0.68601251 0.52269853
v 1.98938476 -0.69682614 0.52497312
v 1.99090120 -0.68923795 0.51777025
v 1.99052206 -0.69341423 0.51871489
v 1.99090120 -0.68923795 0.51777025
v 1.96226371 -0.68885886 0.51094026
v 1.99052206 -0.68601251 0.52269853
v 1.96472473 -0.68449612 0.51814935
v 2.02959410 0.63310032 0.51416572
v 2.02921497 0.63670485 0.51018208
v 2.02940138 0.64580942 0.51587477
v 2.02902235 0.64106759 0.51094027
v 1.99715946 -0.66743048 0.53616584
v 1.99773121 -0.66325419 0.53654494
v 1.96245021 -0.66799602 0.53654493
v 1.96510386 -0.66268865 0.53692403
v 2.01365955 -0.61014934 0.51966575
v 2.03718229 -0.61034201 0.52023129
v 2.02541782 -0.60464929 0.50486849
v 2.04703878 -0.60654481 0.50980299
v -2.40248118 -0.26363487 0.69510674
v -2.40190942 -0.26780497 0.69055134
v -2.40190943 -0.26780497 0.69965591
v -2.39565107 -0.31218431 0.69946326
v -2.39565107 -0.31256963 0.69036490
v -2.38313473 -0.39241643 0.69889772
v -2.38313473 -0.39241643 0.68979315
v -2.36682096 -0.48041694 0.68922140
v -2.36663463 -0.48060961 0.69832597
v -2.34065088 -0.57373104 0.69718868
v -2.34027175 -0.57430279 0.68827677
v -2.28886970 -0.67160055 0.69491410
v -2.28868319 -0.67197964 0.68600218
v -2.22229757 -0.76681017 0.69130957
v -2.22173211 -0.76738192 0.68220500
v -2.17829738 -0.81897034 0.67955131
v -2.17640191 -0.82124495 0.68846323
v -2.16634631 -0.83148678 0.67803492
v -2.15895093 -0.83850321 0.68580955
v -2.15382997 -0.84267949 0.67443038
v -2.14339542 -0.85007506 0.68220501
v -2.06146040 -0.90887258 0.62568830
v -2.05710400 -0.91038892 0.63213298
v -2.05918580 -0.91038892 0.62493011
v -2.05482310 -0.91209798 0.62947929
v -2.05520223 -0.91266353 0.62511655
v -2.05349938 -0.91342179 0.62606741
v 2.00929676 -0.67102880 0.52042394
v 2.01043406 -0.66022137 0.51814935
v 1.99715946 -0.66743048 0.53616584
v 1.99773121 -0.66325419 0.53654494
v 2.01043406 -0.66022137 0.51814935
v 1.98464293 -0.65870499 0.51359395
v 1.99773121 -0.66325419 0.53654494
v 1.96510386 -0.66268865 0.53692403
v 2.02921497 -0.63670485 0.51018208
v 2.00076399 -0.63632576 0.50486849
v 2.02959410 -0.63310032 0.51416572
v 2.00303859 -0.63158393 0.51056117
v 2.02959410 -0.63310032 0.51416572
v 2.00303859 -0.63158393 0.51056117
v 2.01631319 -0.63632576 0.52877032
v 1.98369214 -0.63594668 0.52914941
v 2.01631319 0.63632576 0.52877032
v 2.02959410 0.63310032 0.51416572
v 2.01574765 0.64106759 0.52857766
v 2.02940138 0.64580942 0.51587477
v 1.98217571 -0.66306773 0.50639109
v 2.01062678 -0.66344682 0.51302842
v 1.98065937 -0.66837511 0.50733573
v 2.01043406 -0.66761689 0.51397306
v 1.98369214 -0.63594668 0.52914941
v 1.98103840 -0.64163314 0.52877031
v 2.01631319 -0.63632576 0.52877032
v 2.01574765 -0.64106759 0.52857766
v 2.01043406 -0.66022137 0.51814935
v 2.00929676 -0.67102880 0.52042394
v 2.01062678 -0.66344682 0.51302842
v 2.01043406 -0.66761689 0.51397306
v 1.98464293 -0.65870499 0.51359395
v 2.01043406 -0.66022137 0.51814935
v 1.98217571 -0.66306773 0.50639109
v 2.01062678 -0.66344682 0.51302842
v 2.01043406 0.66022137 0.51814935
v 2.01062678 0.66344682 0.51302842
v 2.00929676 0.67102880 0.52042394
v 2.01043406 0.66761689 0.51397306
v 1.98217571 0.66306773 0.50639109
v 1.98065937 0.66837511 0.50733573
v 2.01062678 0.66344682 0.51302842
v 2.01043406 0.66761689 0.51397306
v 2.01631319 -0.63632576 0.52877032
v 2.01574765 -0.64106759 0.52857766
v 2.02959410 -0.63310032 0.51416572
v 2.02940138 -0.64580942 0.51587477
v 1.98464293 0.65870499 0.51359395
v 1.98217571 0.66306773 0.50639109
v 2.01043406 0.66022137 0.51814935
v 2.01062678 0.66344682 0.51302842
v 2.00076399 -0.63632576 0.50486849
v 2.02921497 -0.63670485 0.51018208
v 1.99924756 -0.64201222 0.50563290
v 2.02902235 -0.64106759 0.51094027
v 1.98369214 0.63594668 0.52914941
v 2.01631319 0.63632576 0.52877032
v 1.98103840 0.64163314 0.52877031
v 2.01574765 0.64106759 0.52857766
v 2.02902235 -0.64106759 0.51094027
v 2.02921497 -0.63670485 0.51018208
v 2.02940138 -0.64580942 0.51587477
v 2.02959410 -0.63310032 0.51416572
v 1.83082231 -0.86316325 0.46068175
v 1.86382870 -0.84078402 0.47414286
v 1.89682889 -0.84533323 0.47111008
v 1.90194985 -0.81195391 0.48780283
v 1.93874098 -0.81422851 0.48761018
v 1.89094975 -0.79393118 0.48571468
v 1.95903831 -0.79905214 0.49386841
v 1.97231292 -0.78559103 0.49671476
v 1.95486204 -0.71920536 0.48192371
v 1.99829677 -0.74329364 0.49273112
v 1.99165937 -0.67425424 0.47907737
v 2.03585227 -0.68658426 0.48818195
v 2.02959411 -0.62494038 0.47566549
v 2.06164341 -0.63802861 0.48533561
v 2.07112707 -0.56804458 0.47186830
v 2.09806171 -0.57411638 0.47907739
v 2.01365955 -0.61014934 0.51966575
v 2.01081320 -0.61508384 0.51909399
v 2.03718229 -0.61034201 0.52023129
v 2.03698957 -0.61413300 0.52042395
v 1.96510386 0.66268865 0.53692403
v 1.98464293 0.65870499 0.51359395
v 1.99773121 0.66325419 0.53654494
v 2.01043406 0.66022137 0.51814935
v -2.15895093 -0.83850321 0.68580955
v -2.14339542 -0.85007506 0.68220501
v -2.14472544 -0.84362417 0.68998584
v -2.04363660 -0.89104247 0.72317250
v -2.04325747 -0.88649336 0.72962338
v -2.04079025 -0.89161432 0.72506798
v -2.04097676 -0.88819621 0.72962338
v -2.03870215 -0.89066343 0.72848608
v 2.03718229 -0.61034201 0.52023129
v 2.03698957 -0.61413300 0.52042395
v 2.04703878 -0.60654481 0.50980299
v 2.04590148 -0.61792394 0.51283577
v 2.04703878 -0.61110018 0.50657754
v 2.02257767 -0.61356125 0.50145660
v 2.04723150 -0.60749565 0.50809394
v 2.02617599 -0.60881942 0.50107750
v 1.77791010 -0.85747053 0.57922143
v 1.89057062 -0.82845400 0.51189111
v 1.80806393 -0.84552585 0.57940787
v 1.94045003 -0.81081661 0.50601198
v 1.93153813 -0.81669574 0.49880290
v 1.88715260 -0.83489869 0.50127014
v 1.88544976 -0.85310783 0.47642366
v 1.83025676 -0.87264691 0.47888469
v 1.88753165 -0.85159140 0.47338467
v 1.82077310 -0.87397063 0.46523094
v 2.03585227 -0.58340737 0.51131938
v 2.03376418 -0.58852833 0.51018208
v 2.05595698 -0.58359383 0.51264933
v 2.05614340 -0.58795658 0.51321487
v 2.02959410 0.63310032 0.51416572
v 2.01631319 0.63632576 0.52877032
v 2.00303859 0.63158393 0.51056117
v 1.98369214 0.63594668 0.52914941
v 2.02541782 -0.60464929 0.50486849
v 2.04703878 -0.60654481 0.50980299
v 2.02617599 -0.60881942 0.50107750
v 2.04723150 -0.60749565 0.50809394
v 1.85301511 -0.73741451 0.52440756
v 1.86269139 -0.76927740 0.52402846
v 1.85339415 -0.76832656 0.52137477
v 1.85168509 -0.80000303 0.52668215
v 2.04703878 -0.61110018 0.50657754
v 2.04723150 -0.60749565 0.50809394
v 2.04590148 -0.61792394 0.51283577
v 2.04703878 -0.60654481 0.50980299
v 2.05595698 -0.58359383 0.51264933
v 2.05614340 -0.58795658 0.51321487
v 2.06354508 -0.58131923 0.50828660
v 2.06335246 -0.59099556 0.50752840
v 2.01365955 0.61014934 0.51966575
v 2.03718229 0.61034201 0.52023129
v 2.01081320 0.61508384 0.51909399
v 2.03698957 0.61413300 0.52042395
v 1.99773121 0.66325419 0.53654494
v 2.01043406 0.66022137 0.51814935
v 1.99715946 0.66743048 0.53616584
v 2.00929676 0.67102880 0.52042394
v 2.06354508 -0.58131923 0.50828660
v 2.06335246 -0.59099556 0.50752840
v 2.06448976 -0.58075368 0.50430295
v 2.06468238 -0.58435825 0.50278656
v 2.03718229 0.61034201 0.52023129
v 2.04703878 0.60654481 0.50980299
v 2.03698957 0.61413300 0.52042395
v 2.04590148 0.61792394 0.51283577
v 2.06468238 0.58435825 0.50278656
v 2.06335246 0.59099556 0.50752840
v 2.06448976 0.58075368 0.50430295
v 2.06354508 0.58131923 0.50828660
v 1.89682889 0.84533323 0.47111008
v 1.88753165 0.85159140 0.47338467
v 1.88544976 0.85310783 0.47642366
v 1.83025676 0.87264691 0.47888469
v 1.88715260 0.83489869 0.50127014
v 1.93153813 0.81669574 0.49880290
v 1.89057062 0.82845400 0.51189111
v 1.94045003 0.81081661 0.50601198
v 1.80806393 0.84552585 0.57940787
v 2.05595698 0.58359383 0.51264933
v 2.06354508 0.58131923 0.50828660
v 2.05614340 0.58795658 0.51321487
v 2.06335246 0.59099556 0.50752840
v -2.05349938 0.91342179 0.62606741
v -2.05520223 0.91266353 0.62511655
v -2.05482310 0.91209798 0.62947929
v -2.05918580 0.91038892 0.62493011
v -2.05710400 0.91038892 0.63213298
v -2.06146040 0.90887258 0.62568830
v -2.14339542 0.85007506 0.68220501
v -2.15382997 0.84267949 0.67443038
v -2.15895093 0.83850321 0.68580955
v -2.16634631 0.83148678 0.67803492
v -2.17640191 0.82124495 0.68846323
v -2.17829738 0.81897034 0.67955131
v -2.22229757 0.76681017 0.69130957
v -2.22173211 0.76738192 0.68220500
v -2.28868319 0.67197964 0.68600218
v -2.28886970 0.67160055 0.69491410
v -2.34027175 0.57430279 0.68827677
v -2.34065088 0.57373104 0.69718868
v -2.36682096 0.48041694 0.68922140
v -2.36663463 0.48060961 0.69832597
v -2.38313473 0.39241643 0.69889772
v -2.38313473 0.39241643 0.68979315
v -2.39565107 0.31256963 0.69036490
v -2.39565107 0.31218431 0.69946326
v -2.40190942 0.26780497 0.69055134
v -2.40190943 0.26780497 0.69965591
v -2.40248118 0.26363487 0.69510674
v 2.06468238 0.58435825 0.50278656
v 2.06448976 0.58075368 0.50430295
v 2.04552244 0.58264920 0.49690743
v 2.04780325 0.57828645 0.49994021
v -2.15895093 0.83850321 0.68580955
v -2.14472544 0.84362417 0.68998584
v -2.14339542 0.85007506 0.68220501
v -2.04363660 0.89104247 0.72317250
v -2.04325747 0.88649336 0.72962338
v -2.04079025 0.89161432 0.72506798
v -2.04097676 0.88819621 0.72962338
v -2.03870215 0.89066343 0.72848608
v 2.03585227 0.58340737 0.51131938
v 2.05595698 0.58359383 0.51264933
v 2.03376418 0.58852833 0.51018208
v 2.05614340 0.58795658 0.51321487
v 2.04703878 0.60654481 0.50980299
v 2.03718229 0.61034201 0.52023129
v 2.02541782 0.60464929 0.50486849
v 2.01365955 0.61014934 0.51966575
v 2.04703878 0.61110018 0.50657754
v 2.04590148 0.61792394 0.51283577
v 2.04723150 0.60749565 0.50809394
v 2.04703878 0.60654481 0.50980299
v 2.02541782 0.60464929 0.50486849
v 2.02617599 0.60881942 0.50107750
v 2.04703878 0.60654481 0.50980299
v 2.04723150 0.60749565 0.50809394
v 2.09806171 0.57411638 0.47907739
v 2.07112707 0.56804458 0.47186830
v 2.06164341 0.63802861 0.48533561
v 2.02959411 0.62494038 0.47566549
v 2.03585227 0.68658426 0.48818195
v 1.99165937 0.67425424 0.47907737
v 1.99829677 0.74329364 0.49273112
v 1.95486204 0.71920536 0.48192371
v 1.97231292 0.78559103 0.49671476
v 1.89094975 0.79393118 0.48571468
v 1.95903831 0.79905214 0.49386841
v 1.93874098 0.81422851 0.48761018
v 1.90194985 0.81195391 0.48780283
v 1.89682889 0.84533323 0.47111008
v 1.86382870 0.84078402 0.47414286
v 1.83082231 0.86316325 0.46068175
v 1.80806393 0.84552585 0.57940787
v 1.81603125 0.83793766 0.58073782
v 1.94045003 0.81081661 0.50601198
v 1.94993369 0.80019565 0.50923121
v 1.95903831 0.79905214 0.49386841
v 1.97117562 0.78653571 0.50524758
v 1.97231292 0.78559103 0.49671476
v 1.99962669 0.74405181 0.50183570
v 1.99829677 0.74329364 0.49273112
v 2.03718229 0.68677693 0.49728653
v 2.03585227 0.68658426 0.48818195
v 2.06145699 0.64334219 0.49348933
v 2.06164341 0.63802861 0.48533561
v 2.09957814 0.57506101 0.48533562
v 2.09806171 0.57411638 0.47907739
v 1.93874098 0.81422851 0.48761018
v 1.93153813 0.81669574 0.49880290
v 1.89682889 0.84533323 0.47111008
v 1.88544976 0.85310783 0.47642366
v 1.79365203 0.83584957 0.58263331
v 1.90365269 0.80455844 0.52080302
v 1.81603125 0.83793766 0.58073782
v 1.94993369 0.80019565 0.50923121
v 1.91484541 0.79734929 0.51625385
v 1.97117562 0.78653571 0.50524758
v 1.95410377 0.74651908 0.51075382
v 1.99962669 0.74405181 0.50183570
v 1.99659391 0.69284248 0.50468204
v 2.03718229 0.68677693 0.49728653
v 2.01347305 0.66799602 0.50202836
v 2.03111044 0.64220489 0.49918202
v 2.06145699 0.64334219 0.49348933
v 2.04856142 0.61640756 0.49633567
v 2.09957814 0.57506101 0.48533562
v 2.07833621 0.57240732 0.49083565
v 1.88544976 -0.85310783 0.47642366
v 1.89682889 -0.84533323 0.47111008
v 1.93153813 -0.81669574 0.49880290
v 1.93874098 -0.81422851 0.48761018
v 1.94045003 -0.81081661 0.50601198
v 1.95903831 -0.79905214 0.49386841
v 1.94993369 -0.80019565 0.50923121
v 1.97117562 -0.78653571 0.50524758
v 1.97231292 -0.78559103 0.49671476
v 1.99962669 -0.74405181 0.50183570
v 1.99829677 -0.74329364 0.49273112
v 2.03718229 -0.68677693 0.49728653
v 2.03585227 -0.68658426 0.48818195
v 2.06145699 -0.64334219 0.49348933
v 2.06164341 -0.63802861 0.48533561
v 2.09957814 -0.57506101 0.48533562
v 1.89682889 0.84533323 0.47111008
v 1.83082231 0.86316325 0.46068175
v 1.88753165 0.85159140 0.47338467
v 1.82077310 0.87397063 0.46523094
v 1.81603125 -0.83793766 0.58073782
v 1.80806393 -0.84267949 0.58225422
v 1.80806393 -0.84552585 0.57940787
v 1.77828923 -0.84931689 0.58775424
v 1.77791010 -0.85747053 0.57922143
v 1.81603125 -0.83793766 0.58073782
v 1.80806393 -0.84552585 0.57940787
v 1.49834067 1.07615433 0.71748660
v 1.53380806 0.78634929 0.82464713
v 2.17449666 1.11389635 0.24825628
v 2.25415696 0.75638183 0.34574047
v 1.58577556 0.48515877 0.88552658
v 2.35050397 0.38748193 0.39694983
v 1.77791010 0.85747053 0.57922143
v 1.77828923 0.84931689 0.58775424
v 1.80806393 0.84552585 0.57940787
v 1.80806393 0.84267949 0.58225422
v 1.81603125 0.83793766 0.58073782
v 1.98938476 0.69682614 0.52497312
v 1.97724746 0.69322156 0.54090767
v 1.99052206 0.68601251 0.52269853
v 1.97781300 0.68905148 0.54109411
v 1.81603125 0.83793766 0.58073782
v 1.80806393 0.84267949 0.58225422
v 1.79365203 0.83584957 0.58263331
v 1.77828923 0.84931689 0.58775424
v 1.49834067 -1.07615433 0.71748660
v 2.17449666 -1.11389635 0.24825628
v 1.53380806 -0.78634929 0.82464713
v 2.25415696 -0.75638183 0.34574047
v 1.58577556 -0.48515877 0.88552658
v 2.35050397 -0.38748193 0.39694983
v 1.94519186 0.68847973 0.54166587
v 1.97781300 0.68905148 0.54109411
v 1.94253821 0.69379336 0.54128677
v 1.97724746 0.69322156 0.54090767
v -2.25245771 0.16291904 0.74972798
v -2.25245770 0.16291904 0.74251890
v -2.25890239 0.00000000 0.74991442
v -2.25890239 0.00000000 0.74271156
v -2.25245770 -0.16291904 0.74251890
v 1.99052206 0.68601251 0.52269853
v 1.99090120 0.68923795 0.51777025
v 1.98938476 0.69682614 0.52497312
v 1.99052206 0.69341423 0.51871489
v 2.04703878 0.61110018 0.50657754
v 2.04723150 0.60749565 0.50809394
v 2.02257767 0.61356125 0.50145660
v 2.02617599 0.60881942 0.50107750
v 2.06354508 0.58131923 0.50828660
v 2.05595698 0.58359383 0.51264933
v 2.04780325 0.57828645 0.49994021
v 2.03585227 0.58340737 0.51131938
v 1.89682889 -0.84533323 0.47111008
v 1.88753165 -0.85159140 0.47338467
v 1.83082231 -0.86316325 0.46068175
v 1.82077310 -0.87397063 0.46523094
v 2.00076399 0.63632576 0.50486849
v 1.99924756 0.64201222 0.50563290
v 2.02921497 0.63670485 0.51018208
v 2.02902235 0.64106759 0.51094027
v 1.85586137 -0.73950265 0.56631967
v 1.86363606 -0.76624462 0.56973777
v 1.86003154 -0.73912357 0.54545683
v 1.86932869 -0.76738192 0.54735854
v 1.85301511 -0.73741451 0.52440756
v 1.86269139 -0.76927740 0.52402846
v 1.85130605 -0.72755172 0.54507773
v 1.85130605 -0.72755172 0.54944047
v 1.85168509 -0.80000303 0.52668215
v 1.86192701 -0.79564023 0.54811674
v 1.85111954 -0.80683295 0.54678678
v 1.85092692 -0.80626120 0.55323767
v 1.85794955 -0.79222842 0.56916601
v 1.85130605 0.72755172 0.54944047
v 1.85130605 0.72755172 0.54507773
v 1.86003154 0.73912357 0.54545683
v 1.85301511 0.73741451 0.52440756
v 1.86932869 0.76738192 0.54735854
v 1.86269139 0.76927740 0.52402846
v 1.85168509 0.80000303 0.52668215
v 1.86192701 0.79564023 0.54811674
v 1.86363606 0.76624462 0.56973777
v 1.85586137 0.73950265 0.56631967
v 1.85111954 0.80683295 0.54678678
v 1.85092692 0.80626120 0.55323767
v 1.85794955 0.79222842 0.56916601
v 2.09957814 0.57506101 0.48533562
v 2.10052893 0.57354462 0.48097288
v 2.09806171 0.57411638 0.47907739
v 1.77791010 0.85747053 0.57922143
v 1.82077310 0.87397063 0.46523094
v 1.94253821 0.69379336 0.54128677
v 1.97724746 0.69322156 0.54090767
v 1.98938476 0.69682614 0.52497312
v 1.98938476 0.69682614 0.52497312
v 1.95278005 0.69929336 0.51947308
v 1.94253821 0.69379336 0.54128677
v 1.95278005 0.69929336 0.51947308
v 1.98938476 0.69682614 0.52497312
v 1.99052206 0.69341423 0.51871489
v 1.99052206 0.69341423 0.51871489
v 1.96074737 0.69417245 0.51207756
v 1.95278005 0.69929336 0.51947308
v 1.96245021 0.66799602 0.53654493
v 1.99715946 0.66743048 0.53616584
v 2.00929676 0.67102880 0.52042394
v 2.00929676 0.67102880 0.52042394
v 1.97269205 0.67349602 0.51492391
v 1.96245021 0.66799602 0.53654493
v 1.97269205 0.67349602 0.51492391
v 2.00929676 0.67102880 0.52042394
v 2.01043406 0.66761689 0.51397306
v 2.01043406 0.66761689 0.51397306
v 1.98065937 0.66837511 0.50733573
v 1.97269205 0.67349602 0.51492391
v 1.98103840 0.64163314 0.52877031
v 2.01574765 0.64106759 0.52857766
v 2.02940138 0.64580942 0.51587477
v 2.02940138 0.64580942 0.51587477
v 1.99128033 0.64846311 0.51151203
v 1.98103840 0.64163314 0.52877031
v 1.99128033 0.64846311 0.51151203
v 2.02940138 0.64580942 0.51587477
v 2.02902235 0.64106759 0.51094027
v 2.02902235 0.64106759 0.51094027
v 1.99924756 0.64201222 0.50563290
v 1.99128033 0.64846311 0.51151203
v 2.01081320 0.61508384 0.51909399
v 2.03698957 0.61413300 0.52042395
v 2.04590148 0.61792394 0.51283577
v 2.04590148 0.61792394 0.51283577
v 2.01385218 0.62077030 0.50752839
v 2.01081320 0.61508384 0.51909399
v 2.01385218 0.62077030 0.50752839
v 2.04590148 0.61792394 0.51283577
v 2.04703878 0.61110018 0.50657754
v 2.04703878 0.61110018 0.50657754
v 2.02257767 0.61356125 0.50145660
v 2.01385218 0.62077030 0.50752839
v 2.03376418 0.58852833 0.51018208
v 2.05614340 0.58795658 0.51321487
v 2.06335246 0.59099556 0.50752840
v 2.06335246 0.59099556 0.50752840
v 2.03603878 0.59289103 0.50354475
v 2.03376418 0.58852833 0.51018208
v 2.03603878 0.59289103 0.50354475
v 2.06335246 0.59099556 0.50752840
v 2.06468238 0.58435825 0.50278656
v 2.06468238 0.58435825 0.50278656
v 2.04552244 0.58264920 0.49690743
v 2.03603878 0.59289103 0.50354475
v 2.06354508 0.58131923 0.50828660
v 2.04780325 0.57828645 0.49994021
v 2.06448976 0.58075368 0.50430295
v 2.09806171 -0.57411638 0.47907739
v 2.09957814 -0.57506101 0.48533562
v 2.09806171 -0.57411638 0.47907739
v 2.10052893 -0.57354462 0.48097288
v 1.89682889 -0.84533323 0.47111008
v 1.94253821 -0.69379336 0.54128677
v 1.95278005 -0.69929336 0.51947308
v 1.98938476 -0.69682614 0.52497312
v 1.98938476 -0.69682614 0.52497312
v 1.97724746 -0.69322156 0.54090767
v 1.94253821 -0.69379336 0.54128677
v 1.95278005 -0.69929336 0.51947308
v 1.96074737 -0.69417245 0.51207756
v 1.99052206 -0.69341423 0.51871489
v 1.99052206 -0.69341423 0.51871489
v 1.98938476 -0.69682614 0.52497312
v 1.95278005 -0.69929336 0.51947308
v 1.96245021 -0.66799602 0.53654493
v 1.97269205 -0.67349602 0.51492391
v 2.00929676 -0.67102880 0.52042394
v 2.00929676 -0.67102880 0.52042394
v 1.99715946 -0.66743048 0.53616584
v 1.96245021 -0.66799602 0.53654493
v 1.97269205 -0.67349602 0.51492391
v 1.98065937 -0.66837511 0.50733573
v 2.01043406 -0.66761689 0.51397306
v 2.01043406 -0.66761689 0.51397306
v 2.00929676 -0.67102880 0.52042394
v 1.97269205 -0.67349602 0.51492391
v 1.98103840 -0.64163314 0.52877031
v 1.99128033 -0.64846311 0.51151203
v 2.02940138 -0.64580942 0.51587477
v 2.02940138 -0.64580942 0.51587477
v 2.01574765 -0.64106759 0.52857766
v 1.98103840 -0.64163314 0.52877031
v 1.99128033 -0.64846311 0.51151203
v 1.99924756 -0.64201222 0.50563290
v 2.02902235 -0.64106759 0.51094027
v 2.02902235 -0.64106759 0.51094027
v 2.02940138 -0.64580942 0.51587477
v 1.99128033 -0.64846311 0.51151203
v 2.01081320 -0.61508384 0.51909399
v 2.01385218 -0.62077030 0.50752839
v 2.04590148 -0.61792394 0.51283577
v 2.04590148 -0.61792394 0.51283577
v 2.03698957 -0.61413300 0.52042395
v 2.01081320 -0.61508384 0.51909399
v 2.01385218 -0.62077030 0.50752839
v 2.02257767 -0.61356125 0.50145660
v 2.04703878 -0.61110018 0.50657754
v 2.04703878 -0.61110018 0.50657754
v 2.04590148 -0.61792394 0.51283577
v 2.01385218 -0.62077030 0.50752839
v 2.03376418 -0.58852833 0.51018208
v 2.03603878 -0.59289103 0.50354475
v 2.06335246 -0.59099556 0.50752840
v 2.06335246 -0.59099556 0.50752840
v 2.05614340 -0.58795658 0.51321487
v 2.03376418 -0.58852833 0.51018208
v 2.03603878 -0.59289103 0.50354475
v 2.04552244 -0.58264920 0.49690743
v 2.06468238 -0.58435825 0.50278656
v 2.06468238 -0.58435825 0.50278656
v 2.06335246 -0.59099556 0.50752840
v 2.03603878 -0.59289103 0.50354475
v 2.06354508 -0.58131923 0.50828660
v 2.06448976 -0.58075368 0.50430295
v 2.04780325 -0.57828645 0.49994021
v -2.25245771 -0.16291904 0.74972798
v -2.05178609 0.91242494 0.62609952
v -2.05345771 0.91164385 0.62498450
v -2.05312192 0.91114382 0.62944091
v -2.05735570 0.90947225 0.62487318
v -2.05540670 0.90941749 0.63211440
v -2.05974998 0.90802509 0.62559766
v -2.14167543 0.84926863 0.68207115
v -2.15203359 0.84180475 0.67438465
v -2.15726924 0.83757284 0.68563519
v -2.16456520 0.83055607 0.67789394
v -2.17470073 0.82036395 0.68841999
v -2.17659498 0.81807918 0.67950898
v -2.22042554 0.76589603 0.69114821
v -2.21986894 0.76650739 0.68218246
v -2.28686849 0.67099367 0.68580123
v -2.28709113 0.67071451 0.69476881
v -2.33855161 0.57341970 0.68814075
v -2.33877425 0.57274998 0.69710833
v -2.36495068 0.47951925 0.68914262
v -2.36495068 0.47963057 0.69816495
v -2.38126716 0.39158074 0.69883468
v -2.38132372 0.39141285 0.68981236
v -2.39379878 0.31166086 0.69025763
v -2.39391009 0.31132508 0.69927996
v -2.40009287 0.26693792 0.69048027
v -2.40014762 0.26693792 0.69955734
v -2.40070422 0.26276072 0.69499143
v -2.03691678 0.88975778 0.72835257
v -2.03914317 0.89075963 0.72495460
v -2.03925448 0.88730691 0.72946576
v -2.04159401 0.88558058 0.72946576
v -2.04192797 0.89020304 0.72311692
v -2.14295651 0.84264056 0.68986714
v -2.14167543 0.84926863 0.68207115
v -2.15726924 0.83757284 0.68563519
v -2.05178609 -0.91242494 0.62609952
v -2.05312192 -0.91114382 0.62944091
v -2.05345771 -0.91164385 0.62498450
v -2.05735570 -0.90947225 0.62487318
v -2.05540670 -0.90941749 0.63211440
v -2.05974998 -0.90802509 0.62559766
v -2.14167543 -0.84926863 0.68207115
v -2.15203359 -0.84180475 0.67438465
v -2.15726924 -0.83757284 0.68563519
v -2.16456520 -0.83055607 0.67789394
v -2.17470073 -0.82036395 0.68841999
v -2.17659498 -0.81807918 0.67950898
v -2.22042554 -0.76589603 0.69114821
v -2.21986894 -0.76650739 0.68218246
v -2.28686849 -0.67099367 0.68580123
v -2.28709113 -0.67071451 0.69476881
v -2.33855161 -0.57341970 0.68814075
v -2.33877425 -0.57274998 0.69710833
v -2.36495068 -0.47951925 0.68914262
v -2.36495068 -0.47963057 0.69816495
v -2.38126716 -0.39158074 0.69883468
v -2.38132372 -0.39141285 0.68981236
v -2.39379878 -0.31166086 0.69025763
v -2.39391009 -0.31132508 0.69927996
v -2.40009287 -0.26693792 0.69048027
v -2.40014762 -0.26693792 0.69955734
v -2.40070422 -0.26276072 0.69499143
v -2.15726924 -0.83757284 0.68563519
v -2.14167543 -0.84926863 0.68207115
v -2.14295651 -0.84264056 0.68986714
v -2.04192797 -0.89020304 0.72311692
v -2.04159401 -0.88558058 0.72946576
v -2.03914317 -0.89075963 0.72495460
v -2.03925448 -0.88725035 0.72946576
v -2.03691678 -0.88975778 0.72835257
v -2.03984973 0.88942253 0.73134259
v -2.02883497 0.88706769 0.73103891
v -2.03749494 0.89200384 0.73005069
v -2.02177059 0.89086623 0.72944333
v -2.02898679 0.91327663 0.61617676
v -2.03172243 0.91145199 0.61693596
v -2.05823502 0.91069279 0.62339297
v -2.06188172 0.90917438 0.62430402
v -2.12265581 0.84627206 0.66806186
v -2.15608094 0.84179148 0.67239059
v -2.14157133 0.83039581 0.67474787
v -2.16869128 0.83054766 0.67611445
v -2.15418167 0.81770829 0.67649281
v -2.18061709 0.81808916 0.67778471
v -2.20272378 0.75921437 0.67938028
v -2.22391941 0.76643057 0.68059502
v -2.26562615 0.66911735 0.68287513
v -2.28978145 0.67093946 0.68439354
v -2.31682672 0.57218250 0.68553360
v -2.34144004 0.57347442 0.68682549
v -2.34584594 0.47828947 0.68652181
v -2.36787546 0.47950421 0.68796555
v -2.36331773 0.38963371 0.68735818
v -2.38413250 0.39138115 0.68857291
v -2.37592807 0.31055398 0.68796555
v -2.39666818 0.31161685 0.68902844
v -2.40304802 0.26694798 0.68933212
v -2.41079694 0.18870212 0.68834390
v -2.40411340 0.26269390 0.69578913
v -2.40304802 0.26694798 0.70049872
v -2.40304802 0.26694798 0.68933212
v -2.39682001 0.31131318 0.70027220
v -2.39666818 0.31161685 0.68902844
v -2.38413250 0.39138115 0.68857291
v -2.38413250 0.39153297 0.69981668
v -2.36772363 0.47957887 0.69913215
v -2.36787546 0.47950421 0.68796555
v -2.34174374 0.57279237 0.69799210
v -2.34144004 0.57347442 0.68682549
v -2.28993329 0.67078761 0.69548547
v -2.28978145 0.67093946 0.68439354
v -2.22452678 0.76582322 0.69176410
v -2.22391941 0.76643057 0.68059502
v -2.18061709 0.81808916 0.67778471
v -2.17871783 0.82029213 0.68887663
v -2.16869128 0.83054766 0.67611445
v -2.16132322 0.83761208 0.68591447
v -2.15608094 0.84179148 0.67239059
v -2.14681361 0.85143714 0.68325600
v -2.06188172 0.90917438 0.62430402
v -2.05747581 0.91069279 0.63304116
v -2.11270395 0.85402098 0.68143141
v -2.02800107 0.91380682 0.62833157
v -2.05405564 0.91236305 0.62939446
v -2.05823502 0.91069279 0.62339297
v -2.05436182 0.91289576 0.62347014
v -2.05261439 0.91358026 0.62498856
v -2.02405069 0.91661714 0.61655512
v -2.02298531 0.91737879 0.61815070
v -2.02526542 0.91578324 0.62407751
v -2.03749494 -0.89200384 0.73005069
v -2.03984973 -0.88942253 0.73134259
v -2.03977505 -0.89299205 0.72587131
v -2.04228168 -0.88774974 0.73134259
v -2.04258537 -0.89238463 0.72366836
v -2.14681361 -0.85143714 0.68325600
v -2.14681361 -0.84399438 0.69146043
v -2.16132322 -0.83761208 0.68591447
v -1.99320685 1.11284166 0.40901466
v -2.05595491 0.97982318 0.67664467
v -1.88024403 1.10380083 0.87879353
v -2.30938150 0.68468989 0.68492623
v -2.37539783 0.74364183 0.49652780
v -2.36407696 0.75230180 0.88327652
v -2.46200000 0.21878423 0.68902843
v -2.04258537 0.89238463 0.72366836
v -2.02306249 0.89170013 0.72169441
v -2.03977505 0.89299205 0.72587131
v -2.02078237 0.89230748 0.72404921
v -2.03749494 0.89200384 0.73005069
v -2.02177059 0.89086623 0.72944333
v -2.41034141 -0.18870212 0.70323436
v -2.40304802 -0.26694798 0.70049872
v -2.37752365 -0.18421904 0.70733659
v -2.36491330 -0.30531169 0.70680390
v -2.39682001 -0.31131318 0.70027220
v -2.35260665 -0.38781163 0.70634837
v -2.38413250 -0.39153297 0.69981668
v -2.36772363 -0.47957887 0.69913215
v -2.33642678 -0.47654203 0.70566633
v -2.34174374 -0.57279237 0.69799210
v -2.31014071 -0.57134864 0.70452628
v -2.28993329 -0.67078761 0.69548547
v -2.25818092 -0.66987655 0.70194249
v -2.22452678 -0.76582322 0.69176410
v -2.18958075 -0.76635594 0.69806929
v -2.17871783 -0.82029213 0.68887663
v -2.14066028 -0.82135504 0.69525897
v -2.16132322 -0.83761208 0.68591447
v -2.13442979 -0.82955945 0.69434544
v -2.14681361 -0.84399438 0.69146043
v -2.11779190 -0.84011869 0.69617003
v -2.04228168 -0.88774974 0.73134259
v -2.03476178 -0.88395121 0.72974701
v -2.03984973 -0.88942253 0.73134259
v -2.02883497 -0.88706769 0.73103891
v -2.40411340 -0.26269390 0.69578913
v -2.40304802 -0.26694798 0.68933212
v -2.40304802 -0.26694798 0.70049872
v -2.39682001 -0.31131318 0.70027220
v -2.39666818 -0.31161685 0.68902844
v -2.38413250 -0.39138115 0.68857291
v -2.38413250 -0.39153297 0.69981668
v -2.36772363 -0.47957887 0.69913215
v -2.36787546 -0.47950421 0.68796555
v -2.34174374 -0.57279237 0.69799210
v -2.34144004 -0.57347442 0.68682549
v -2.28993329 -0.67078761 0.69548547
v -2.28978145 -0.67093946 0.68439354
v -2.22452678 -0.76582322 0.69176410
v -2.22391941 -0.76643057 0.68059502
v -2.18061709 -0.81808916 0.67778471
v -2.17871783 -0.82029213 0.68887663
v -2.16869128 -0.83054766 0.67611445
v -2.16132322 -0.83761208 0.68591447
v -2.15608094 -0.84179148 0.67239059
v -2.14681361 -0.85143714 0.68325600
v -2.06188172 -0.90917438 0.62430402
v -2.05747581 -0.91069279 0.63304116
v -2.05823502 -0.91069279 0.62339297
v -2.05405564 -0.91236305 0.62939446
v -2.05436182 -0.91289576 0.62347014
v -2.05261439 -0.91358026 0.62498856
v -2.02405069 -0.91661714 0.61655512
v -2.02298531 -0.91737879 0.61815070
v -2.02526542 -0.91578324 0.62407751
v -2.02800107 -0.91380682 0.62833157
v -2.11270395 -0.85402098 0.68143141
v -2.04258537 -0.89238463 0.72366836
v -2.02306249 -0.89170013 0.72169441
v -2.03977505 -0.89299205 0.72587131
v -2.02078237 -0.89230748 0.72404921
v -2.03749494 -0.89200384 0.73005069
v -2.40304802 -0.26694798 0.68933212
v -2.40570899 -0.26261675 0.69578913
v -2.41079694 -0.18870212 0.68834390
v -2.41307705 -0.18900580 0.69609281
v -2.41034141 -0.18870212 0.70323436
v -2.40304802 -0.26694798 0.70049872
v -2.41034141 0.18870212 0.70323436
v -2.37752365 0.18421904 0.70733659
v -2.40304802 0.26694798 0.70049872
v -2.36491330 0.30531169 0.70680390
v -2.39682001 0.31131318 0.70027220
v -2.35260665 0.38781163 0.70634837
v -2.38413250 0.39153297 0.69981668
v -2.36772363 0.47957887 0.69913215
v -2.33642678 0.47654203 0.70566633
v -2.34174374 0.57279237 0.69799210
v -2.31014071 0.57134864 0.70452628
v -2.28993329 0.67078761 0.69548547
v -2.25818092 0.66987655 0.70194249
v -2.22452678 0.76582322 0.69176410
v -2.18958075 0.76635594 0.69806929
v -2.17871783 0.82029213 0.68887663
v -2.14066028 0.82135504 0.69525897
v -2.16132322 0.83761208 0.68591447
v -2.13442979 0.82955945 0.69434544
v -2.14681361 0.84399438 0.69146043
v -2.11779190 0.84011869 0.69617003
v -2.04228168 0.88774974 0.73134259
v -2.03476178 0.88395121 0.72974701
v -2.03984973 0.88942253 0.73134259
v -2.41079694 -0.18870212 0.68834390
v -2.37592807 -0.31055398 0.68796555
v -2.40304802 -0.26694798 0.68933212
v -2.39666818 -0.31161685 0.68902844
v -2.38413250 -0.39138115 0.68857291
v -2.36331773 -0.38963371 0.68735818
v -2.36787546 -0.47950421 0.68796555
v -2.34584594 -0.47828947 0.68652181
v -2.34144004 -0.57347442 0.68682549
v -2.31682672 -0.57218250 0.68553360
v -2.28978145 -0.67093946 0.68439354
v -2.26562615 -0.66911735 0.68287513
v -2.22391941 -0.76643057 0.68059502
v -2.20272378 -0.75921437 0.67938028
v -2.18061709 -0.81808916 0.67778471
v -2.15418167 -0.81770829 0.67649281
v -2.16869128 -0.83054766 0.67611445
v -2.14157133 -0.83039581 0.67474787
v -2.15608094 -0.84179148 0.67239059
v -2.12265581 -0.84627206 0.66806186
v -2.06188172 -0.90917438 0.62430402
v -2.03172243 -0.91145199 0.61693596
v -2.05823502 -0.91069279 0.62339297
v -2.02898679 -0.91327663 0.61617676
v -2.02405069 0.91661714 0.61655512
v -2.02898679 0.91327663 0.61617676
v -2.05436182 0.91289576 0.62347014
v -2.05823502 0.91069279 0.62339297
v -2.02177059 -0.89086623 0.72944333
v -2.02883497 -0.88706769 0.73103891
v -2.03749494 -0.89200384 0.73005069
v -2.03984973 -0.88942253 0.73134259
v -2.25460890 -0.16294874 0.74881433
v -2.26114308 0.00000000 0.74896617
v -2.25460890 -0.16294874 0.74258633
v -2.26114308 0.00000000 0.74266100
v -2.25460890 0.16294874 0.74258633
v -2.25460890 0.16294874 0.74881433
v -2.02405069 -0.91661714 0.61655512
v -2.05436182 -0.91289576 0.62347014
v -2.02898679 -0.91327663 0.61617676
v -2.05823502 -0.91069279 0.62339297
v -2.03749494 0.89200384 0.73005069
v -2.03977505 0.89299205 0.72587131
v -2.03984973 0.88942253 0.73134259
v -2.04228168 0.88774974 0.73134259
v -2.04258537 0.89238463 0.72366836
v -2.14681361 0.85143714 0.68325600
v -2.14681361 0.84399438 0.69146043
v -2.16132322 0.83761208 0.68591447
v -2.43389186 -0.27948364 0.78763354
v -2.43389186 0.00000000 0.78778539
v -2.30262081 -0.22493756 0.75572686
v -2.30262081 0.00000000 0.75587870
v -2.42409182 -0.27948364 0.72055429
v -2.42409182 0.00000000 0.72063145
v -2.30262081 0.22493756 0.75572686
v -2.42409182 0.27948364 0.72055429
v -1.99320685 -1.11284166 0.40901466
v -2.05595491 -0.97982318 0.67664467
v -2.30938150 -0.68468989 0.68492623
v -1.88024403 -1.10380083 0.87879353
v -2.36407696 -0.75230180 0.88327652
v -2.37539783 -0.74364183 0.49652780
v -2.46200000 -0.21878423 0.68902843
v -2.40304802 0.26694798 0.70049872
v -2.40570899 0.26261675 0.69578913
v -2.41034141 0.18870212 0.70323436
v -2.41307705 0.18900580 0.69609281
v -2.41079694 0.18870212 0.68834390
v -2.40304802 0.26694798 0.68933212
v -2.25460890 -0.16294874 0.74258633
v -2.26114308 0.00000000 0.74266100
v -2.32487934 0.00000000 0.73339366
v -2.25460890 0.16294874 0.74258633
v -2.31827049 0.16294874 0.73331649
v -2.26319419 0.17153403 0.74174995
v -2.31827049 -0.16294874 0.73331649
v -2.26319419 -0.17153403 0.74174995
v -2.25460890 -0.16294874 0.74881433
v -2.26319419 -0.17153403 0.74881433
v -2.34683418 -0.16294874 0.77206106
v -2.26114308 0.00000000 0.74896617
v -2.35344304 0.00000000 0.77221290
v -2.34683418 0.16294874 0.77206106
v -2.25460890 0.16294874 0.74881433
v -2.26319419 0.17153403 0.74881433
v -2.40570899 0.26261675 0.69578913
v -2.40304802 0.26694798 0.70049872
v -2.40411340 0.26269390 0.69578913
v -2.40411340 0.26269390 0.69578913
v -2.40304802 0.26694798 0.68933212
v -2.40570899 0.26261675 0.69578913
v -2.02883497 0.88706769 0.73103891
v -2.02177059 -0.89086623 0.72944333
v -2.40570899 -0.26261675 0.69578913
v -2.40411340 -0.26269390 0.69578913
v -2.40304802 -0.26694798 0.70049872
v -2.40411340 -0.26269390 0.69578913
v -2.40570899 -0.26261675 0.69578913
v -2.40304802 -0.26694798 0.68933212
v -2.43389186 0.27948364 0.78763354
vt 0.82016498 0.13281101
vt 0.81801200 0.29089803
vt 1.00237000 0.13281101
vt 0.99946499 0.29089898
vt 0.99946499 0.29089898
vt 1.00237000 0.13281101
vt 0.81801200 0.29089803
vt 0.82016498 0.13281101
vt 0.99946499 0.29089898
vt 0.81801200 0.29089803
vt 1.00237000 0.13281101
vt 0.82016498 0.13281101
vt 0.99946499 0.29089898
vt 0.81801200 0.29089803
vt 1.00237000 0.13281101
vt 0.82016498 0.13281101
vt 0.16684499 0.64809096
vt 0.17133100 0.64809096
vt 0.16684499 0.68605602
vt 0.17133100 0.68605602
vt 0.02435400 0.65675801
vt 0.03979600 0.66289300
vt 0.03781200 0.65636200
vt 0.04702900 0.66469300
vt 0.03781200 0.65636200
vt 0.04702900 0.66469300
vt 0.13223700 0.70424497
vt 0.15900099 0.72920901
vt 0.14404701 0.70738900
vt 0.17926601 0.73497701
vt 0.19916400 0.70848703
vt 0.22138099 0.73494697
vt 0.25684401 0.71343100
vt 0.27796301 0.73546600
vt 0.28287601 0.71504903
vt 0.30924401 0.71864998
vt 0.31916299 0.73760200
vt 0.33503199 0.72209799
vt 0.37311900 0.74089801
vt 0.36777899 0.72804999
vt 0.20545100 0.68605602
vt 0.20953999 0.68605602
vt 0.20545100 0.64809096
vt 0.20953999 0.64809096
vt 0.86407101 0.96319503
vt 0.90884101 0.95449698
vt 0.91289997 0.96645999
vt 0.95522898 0.94802701
vt 0.23725100 0.68605602
vt 0.20953999 0.68605602
vt 0.23725100 0.64809096
vt 0.20953999 0.64809096
vt 0.15292799 0.67262799
vt 0.15314201 0.65825403
vt 0.23352800 0.69237304
vt 0.22666100 0.64415401
vt 0.24610101 0.68605602
vt 0.23725100 0.68605602
vt 0.24610101 0.64809096
vt 0.23725100 0.64809096
vt 0.16684499 0.64809096
vt 0.16684499 0.68605602
vt 0.17133100 0.64809096
vt 0.17133100 0.68605602
vt 0.20953999 0.64809096
vt 0.20953999 0.68605602
vt 0.20545100 0.64809096
vt 0.20545100 0.68605602
vt 0.23725100 0.68605602
vt 0.23725100 0.64809096
vt 0.20953999 0.68605602
vt 0.20953999 0.64809096
vt 0.20953999 0.64809096
vt 0.20953999 0.68605602
vt 0.24167600 0.64809096
vt 0.23725100 0.68605602
vt 0.17133100 0.68605602
vt 0.17133100 0.64809096
vt 0.16684499 0.68605602
vt 0.16684499 0.64809096
vt 0.24610101 0.68605602
vt 0.23725100 0.68605602
vt 0.24610101 0.64809096
vt 0.23725100 0.64809096
vt 0.23352800 0.69237304
vt 0.22666100 0.64415401
vt 0.25226599 0.67580199
vt 0.24906200 0.66173303
vt 0.24610101 0.68605602
vt 0.24610101 0.64809096
vt 0.23725100 0.68605602
vt 0.23725100 0.64809096
vt 0.23352800 0.69237304
vt 0.25226599 0.67580199
vt 0.22666100 0.64415401
vt 0.24906200 0.66173303
vt 0.20545100 0.68605602
vt 0.20953999 0.68605602
vt 0.20545100 0.64809096
vt 0.20953999 0.64809096
vt 0.20953999 0.64809096
vt 0.20953999 0.68605602
vt 0.23725100 0.64809096
vt 0.23725100 0.68605602
vt 0.08282700 0.06112897
vt 0.08465800 0.06701899
vt 0.08456700 0.05581802
vt 0.10693700 0.05581802
vt 0.10693700 0.06701899
vt 0.14700800 0.05581802
vt 0.14700800 0.06701899
vt 0.19119801 0.06701899
vt 0.19119801 0.05581802
vt 0.23883800 0.05581802
vt 0.23883800 0.06701899
vt 0.29310000 0.05581802
vt 0.29310000 0.06701899
vt 0.35056600 0.05581802
vt 0.35056600 0.06701899
vt 0.38520500 0.06701899
vt 0.38520500 0.05581802
vt 0.39387199 0.06701899
vt 0.39875501 0.05581802
vt 0.40275300 0.06787300
vt 0.40702501 0.06170797
vt 0.45765600 0.12121999
vt 0.46458301 0.11508501
vt 0.45863199 0.12195200
vt 0.46589601 0.11645901
vt 0.46424800 0.12131101
vt 0.46516299 0.12088400
vt 0.22666100 0.64415401
vt 0.23352800 0.69237304
vt 0.15314201 0.65825403
vt 0.15292799 0.67262799
vt 0.23725100 0.68605602
vt 0.23725100 0.64809096
vt 0.20953999 0.68605602
vt 0.20953999 0.64809096
vt 0.24610101 0.68605602
vt 0.24610101 0.64809096
vt 0.23725100 0.68605602
vt 0.23725100 0.64809096
vt 0.23725100 0.68605602
vt 0.23725100 0.64809096
vt 0.20953999 0.68605602
vt 0.20953999 0.64809096
vt 0.15292799 0.67262799
vt 0.23352800 0.69237304
vt 0.15314201 0.65825403
vt 0.22666100 0.64415401
vt 0.16684499 0.64809096
vt 0.16684499 0.68605602
vt 0.17133100 0.64809096
vt 0.17133100 0.68605602
vt 0.20953999 0.64809096
vt 0.20545100 0.64809096
vt 0.20953999 0.68605602
vt 0.20545100 0.68605602
vt 0.23352800 0.69237304
vt 0.22666100 0.64415401
vt 0.25226599 0.67580199
vt 0.24906200 0.66173303
vt 0.23725100 0.64809096
vt 0.23725100 0.68605602
vt 0.24610101 0.64809096
vt 0.24610101 0.68605602
vt 0.23352800 0.69237304
vt 0.25226599 0.67580199
vt 0.22666100 0.64415401
vt 0.24906200 0.66173303
vt 0.16684499 0.64809096
vt 0.17133100 0.64809096
vt 0.16684499 0.68605602
vt 0.17133100 0.68605602
vt 0.15292799 0.67262799
vt 0.15314201 0.65825403
vt 0.23352800 0.69237304
vt 0.22666100 0.64415401
vt 0.23725100 0.64809096
vt 0.24610101 0.64809096
vt 0.23725100 0.68605602
vt 0.24610101 0.68605602
vt 0.16684499 0.64809096
vt 0.16684499 0.68605602
vt 0.17133100 0.64809096
vt 0.17133100 0.68605602
vt 0.20953999 0.64809096
vt 0.20953999 0.68605602
vt 0.20545100 0.64809096
vt 0.20545100 0.68605602
vt 0.24906200 0.66173303
vt 0.25226599 0.67580199
vt 0.22666100 0.64415401
vt 0.23352800 0.69237304
vt 0.04956200 0.77691001
vt 0.08731300 0.77855802
vt 0.10391600 0.76161999
vt 0.13141300 0.76964599
vt 0.14633600 0.74907696
vt 0.13885900 0.78634000
vt 0.16602100 0.74147797
vt 0.18039501 0.74111104
vt 0.21939801 0.77901500
vt 0.22144200 0.74303401
vt 0.26828799 0.77413201
vt 0.27784100 0.74208796
vt 0.32029200 0.76824200
vt 0.32325199 0.74358404
vt 0.36750400 0.76308501
vt 0.37327200 0.74538398
vt 0.20953999 0.64809096
vt 0.20545100 0.64809096
vt 0.20953999 0.68605602
vt 0.20545100 0.68605602
vt 0.20953999 0.64809096
vt 0.23725100 0.64809096
vt 0.20953999 0.68605602
vt 0.23725100 0.68605602
vt 0.39875501 0.05581802
vt 0.40702501 0.06170797
vt 0.40632299 0.05273598
vt 0.45921201 0.03692698
vt 0.45802200 0.02868700
vt 0.46055499 0.03610301
vt 0.45951700 0.02868700
vt 0.46232501 0.03064102
vt 0.15292799 0.67262799
vt 0.15314201 0.65825403
vt 0.23352800 0.69237304
vt 0.22666100 0.64415401
vt 0.17133100 0.68605602
vt 0.17133100 0.64809096
vt 0.16684499 0.68605602
vt 0.16684499 0.64809096
vt 0.01980700 0.66441798
vt 0.10855400 0.72527200
vt 0.03671400 0.66661596
vt 0.14633600 0.73378700
vt 0.14017200 0.73885298
vt 0.10345800 0.73671699
vt 0.09198300 0.75728601
vt 0.04690700 0.75942302
vt 0.09439400 0.76046002
vt 0.04001000 0.77221000
vt 0.20953999 0.64809096
vt 0.20545100 0.64809096
vt 0.20953999 0.68605602
vt 0.20545100 0.68605602
vt 0.23725100 0.68605602
vt 0.20953999 0.68605602
vt 0.23725100 0.64809096
vt 0.20953999 0.64809096
vt 0.23725100 0.64809096
vt 0.23725100 0.68605602
vt 0.24610101 0.64809096
vt 0.24610101 0.68605602
vt 0.95522898 0.94802701
vt 0.90884101 0.95449698
vt 0.91289997 0.96645999
vt 0.86407101 0.96319503
vt 0.24906200 0.66173303
vt 0.25226599 0.67580199
vt 0.22666100 0.64415401
vt 0.23352800 0.69237304
vt 0.15292799 0.67262799
vt 0.15314201 0.65825403
vt 0.23352800 0.69237304
vt 0.22666100 0.64415401
vt 0.20953999 0.64809096
vt 0.20953999 0.68605602
vt 0.20545100 0.64809096
vt 0.20545100 0.68605602
vt 0.15292799 0.67262799
vt 0.23352800 0.69237304
vt 0.15314201 0.65825403
vt 0.22666100 0.64415401
vt 0.23352800 0.69237304
vt 0.22666100 0.64415401
vt 0.25226599 0.67580199
vt 0.24906200 0.66173303
vt 0.15292799 0.67262799
vt 0.23352800 0.69237304
vt 0.15314201 0.65825403
vt 0.22666100 0.64415401
vt 0.24906200 0.66173303
vt 0.22666100 0.64415401
vt 0.25226599 0.67580199
vt 0.23352800 0.69237304
vt 0.10391600 0.76161999
vt 0.09439400 0.76046002
vt 0.09198300 0.75728601
vt 0.04690700 0.75942302
vt 0.10345800 0.73671699
vt 0.14017200 0.73885298
vt 0.10855400 0.72527200
vt 0.14633600 0.73378700
vt 0.03671400 0.66661596
vt 0.15292799 0.67262799
vt 0.23352800 0.69237304
vt 0.15314201 0.65825403
vt 0.22666100 0.64415401
vt 0.46516299 0.12088400
vt 0.46424800 0.12131101
vt 0.46589601 0.11645901
vt 0.45863199 0.12195200
vt 0.46458301 0.11508501
vt 0.45765600 0.12121999
vt 0.40702501 0.06170797
vt 0.40275300 0.06787300
vt 0.39875501 0.05581802
vt 0.39387199 0.06701899
vt 0.38520500 0.05581802
vt 0.38520500 0.06701899
vt 0.35056600 0.05581802
vt 0.35056600 0.06701899
vt 0.29310000 0.06701899
vt 0.29310000 0.05581802
vt 0.23883800 0.06701899
vt 0.23883800 0.05581802
vt 0.19119801 0.06701899
vt 0.19119801 0.05581802
vt 0.14700800 0.05581802
vt 0.14700800 0.06701899
vt 0.10693700 0.06701899
vt 0.10693700 0.05581802
vt 0.08465800 0.06701899
vt 0.08456700 0.05581802
vt 0.08282700 0.06112897
vt 0.17133100 0.68605602
vt 0.16684499 0.68605602
vt 0.17133100 0.64809096
vt 0.16684499 0.64809096
vt 0.39875501 0.05581802
vt 0.40632299 0.05273598
vt 0.40702501 0.06170797
vt 0.45921201 0.03692698
vt 0.45802200 0.02868700
vt 0.46055499 0.03610301
vt 0.45951700 0.02868700
vt 0.46232501 0.03064102
vt 0.20953999 0.64809096
vt 0.20953999 0.68605602
vt 0.20545100 0.64809096
vt 0.20545100 0.68605602
vt 0.23725100 0.68605602
vt 0.20953999 0.68605602
vt 0.23725100 0.64809096
vt 0.20953999 0.64809096
vt 0.24906200 0.66173303
vt 0.22666100 0.64415401
vt 0.25226599 0.67580199
vt 0.23352800 0.69237304
vt 0.23725100 0.64809096
vt 0.24610101 0.64809096
vt 0.23725100 0.68605602
vt 0.24610101 0.68605602
vt 0.37327200 0.74538398
vt 0.36750400 0.76308501
vt 0.32325199 0.74358404
vt 0.32029200 0.76824200
vt 0.27784100 0.74208796
vt 0.26828799 0.77413201
vt 0.22144200 0.74303401
vt 0.21939801 0.77901500
vt 0.18039501 0.74111104
vt 0.13885900 0.78634000
vt 0.16602100 0.74147797
vt 0.14633600 0.74907696
vt 0.13141300 0.76964599
vt 0.10391600 0.76161999
vt 0.08731300 0.77855802
vt 0.04956200 0.77691001
vt 0.03671400 0.66661596
vt 0.04702900 0.66469300
vt 0.14633600 0.73378700
vt 0.15900099 0.72920901
vt 0.16602100 0.74147797
vt 0.17926601 0.73497701
vt 0.18039501 0.74111104
vt 0.22138099 0.73494697
vt 0.22144200 0.74303401
vt 0.27796301 0.73546600
vt 0.27784100 0.74208796
vt 0.31916299 0.73760200
vt 0.32325199 0.74358404
vt 0.37311900 0.74089801
vt 0.37327200 0.74538398
vt 0.14633600 0.74907696
vt 0.14017200 0.73885298
vt 0.10391600 0.76161999
vt 0.09198300 0.75728601
vt 0.03781200 0.65636200
vt 0.13223700 0.70424497
vt 0.04702900 0.66469300
vt 0.15900099 0.72920901
vt 0.14404701 0.70738900
vt 0.17926601 0.73497701
vt 0.19916400 0.70848703
vt 0.22138099 0.73494697
vt 0.25684401 0.71343100
vt 0.27796301 0.73546600
vt 0.28287601 0.71504903
vt 0.30924401 0.71864998
vt 0.31916299 0.73760200
vt 0.33503199 0.72209799
vt 0.37311900 0.74089801
vt 0.36777899 0.72804999
vt 0.09198300 0.75728601
vt 0.10391600 0.76161999
vt 0.14017200 0.73885298
vt 0.14633600 0.74907696
vt 0.14633600 0.73378700
vt 0.16602100 0.74147797
vt 0.15900099 0.72920901
vt 0.17926601 0.73497701
vt 0.18039501 0.74111104
vt 0.22138099 0.73494697
vt 0.22144200 0.74303401
vt 0.27796301 0.73546600
vt 0.27784100 0.74208796
vt 0.31916299 0.73760200
vt 0.32325199 0.74358404
vt 0.37311900 0.74089801
vt 0.10391600 0.76161999
vt 0.04956200 0.77691001
vt 0.09439400 0.76046002
vt 0.04001000 0.77221000
vt 0.04702900 0.66469300
vt 0.03979600 0.66289300
vt 0.03671400 0.66661596
vt 0.02435400 0.65675801
vt 0.01980700 0.66441798
vt 0.04702900 0.66469300
vt 0.03671400 0.66661596
vt 0.98062098 0.14136201
vt 0.91482300 0.13495302
vt 0.98052901 0.26413798
vt 0.90102798 0.26685399
vt 0.84902501 0.12854397
vt 0.82152802 0.26953900
vt 0.01980700 0.66441798
vt 0.02435400 0.65675801
vt 0.03671400 0.66661596
vt 0.03979600 0.66289300
vt 0.04702900 0.66469300
vt 0.22666100 0.64415401
vt 0.15314201 0.65825403
vt 0.23352800 0.69237304
vt 0.15292799 0.67262799
vt 0.04702900 0.66469300
vt 0.03979600 0.66289300
vt 0.03781200 0.65636200
vt 0.02435400 0.65675801
vt 0.98062098 0.14136201
vt 0.98052901 0.26413798
vt 0.91482300 0.13495302
vt 0.90102798 0.26685399
vt 0.84902501 0.12854397
vt 0.82152802 0.26953900
vt 0.20953999 0.64809096
vt 0.20953999 0.68605602
vt 0.20545100 0.64809096
vt 0.20545100 0.68605602
vt 0.06442500 0.94143498
vt 0.06576700 0.98803699
vt 0.70366502 0.94051898
vt 0.70366502 0.98715198
vt 0.06576700 0.98803699
vt 0.23352800 0.69237304
vt 0.25226599 0.67580199
vt 0.22666100 0.64415401
vt 0.24906200 0.66173303
vt 0.17133100 0.68605602
vt 0.16684499 0.68605602
vt 0.17133100 0.64809096
vt 0.16684499 0.64809096
vt 0.23725100 0.68605602
vt 0.20953999 0.68605602
vt 0.24167600 0.64809096
vt 0.20953999 0.64809096
vt 0.10391600 0.76161999
vt 0.09439400 0.76046002
vt 0.04956200 0.77691001
vt 0.04001000 0.77221000
vt 0.16684499 0.64809096
vt 0.17133100 0.64809096
vt 0.16684499 0.68605602
vt 0.17133100 0.68605602
vt 0.93939000 0.89263600
vt 0.89809901 0.89523000
vt 0.94363201 0.92007202
vt 0.90380597 0.92422301
vt 0.95522898 0.94802701
vt 0.90884101 0.95449698
vt 0.96386600 0.91775298
vt 0.96246201 0.91198498
vt 0.86407101 0.96319503
vt 0.86614603 0.93209600
vt 0.84612602 0.93902397
vt 0.84411103 0.92986798
vt 0.86022502 0.90453798
vt 0.96246201 0.91198498
vt 0.96386600 0.91775298
vt 0.94363201 0.92007202
vt 0.95522898 0.94802701
vt 0.90380597 0.92422301
vt 0.90884101 0.95449698
vt 0.86407101 0.96319503
vt 0.86614603 0.93209600
vt 0.89809901 0.89523000
vt 0.93939000 0.89263600
vt 0.84612602 0.93902397
vt 0.84411103 0.92986798
vt 0.86022502 0.90453798
vt 0.37311900 0.74089801
vt 0.37492001 0.74346101
vt 0.37327200 0.74538398
vt 0.01980700 0.66441798
vt 0.04001000 0.77221000
vt 0.20545100 0.64809096
vt 0.20545100 0.68605602
vt 0.18158500 0.68605602
vt 0.18158500 0.68605602
vt 0.18158500 0.64809096
vt 0.20545100 0.64809096
vt 0.18158500 0.64809096
vt 0.18158500 0.68605602
vt 0.17133100 0.68605602
vt 0.17133100 0.68605602
vt 0.17133100 0.64809096
vt 0.18158500 0.64809096
vt 0.20545100 0.64809096
vt 0.20545100 0.68605602
vt 0.18158500 0.68605602
vt 0.18158500 0.68605602
vt 0.18158500 0.64809096
vt 0.20545100 0.64809096
vt 0.18158500 0.64809096
vt 0.18158500 0.68605602
vt 0.17133100 0.68605602
vt 0.17133100 0.68605602
vt 0.17133100 0.64809096
vt 0.18158500 0.64809096
vt 0.20545100 0.64809096
vt 0.20545100 0.68605602
vt 0.18158500 0.68605602
vt 0.18158500 0.68605602
vt 0.18158500 0.64809096
vt 0.20545100 0.64809096
vt 0.18158500 0.64809096
vt 0.18158500 0.68605602
vt 0.17133100 0.68605602
vt 0.17133100 0.68605602
vt 0.17133100 0.64809096
vt 0.18158500 0.64809096
vt 0.20545100 0.64809096
vt 0.20545100 0.68605602
vt 0.18158500 0.68605602
vt 0.18158500 0.68605602
vt 0.18158500 0.64809096
vt 0.20545100 0.64809096
vt 0.18158500 0.64809096
vt 0.18158500 0.68605602
vt 0.17133100 0.68605602
vt 0.17133100 0.68605602
vt 0.17133100 0.64809096
vt 0.18158500 0.64809096
vt 0.20545100 0.64809096
vt 0.20545100 0.68605602
vt 0.18158500 0.68605602
vt 0.18158500 0.68605602
vt 0.18158500 0.64809096
vt 0.20545100 0.64809096
vt 0.18158500 0.64809096
vt 0.18158500 0.68605602
vt 0.17133100 0.68605602
vt 0.17133100 0.68605602
vt 0.17133100 0.64809096
vt 0.18158500 0.64809096
vt 0.23725100 0.68605602
vt 0.24167600 0.64809096
vt 0.24610101 0.68605602
vt 0.37327200 0.74538398
vt 0.37311900 0.74089801
vt 0.37327200 0.74538398
vt 0.37492001 0.74346101
vt 0.10391600 0.76161999
vt 0.20545100 0.64809096
vt 0.18158500 0.64809096
vt 0.18158500 0.68605602
vt 0.18158500 0.68605602
vt 0.20545100 0.68605602
vt 0.20545100 0.64809096
vt 0.18158500 0.64809096
vt 0.17133100 0.64809096
vt 0.17133100 0.68605602
vt 0.17133100 0.68605602
vt 0.18158500 0.68605602
vt 0.18158500 0.64809096
vt 0.20545100 0.64809096
vt 0.18158500 0.64809096
vt 0.18158500 0.68605602
vt 0.18158500 0.68605602
vt 0.20545100 0.68605602
vt 0.20545100 0.64809096
vt 0.18158500 0.64809096
vt 0.17133100 0.64809096
vt 0.17133100 0.68605602
vt 0.17133100 0.68605602
vt 0.18158500 0.68605602
vt 0.18158500 0.64809096
vt 0.20545100 0.64809096
vt 0.18158500 0.64809096
vt 0.18158500 0.68605602
vt 0.18158500 0.68605602
vt 0.20545100 0.68605602
vt 0.20545100 0.64809096
vt 0.18158500 0.64809096
vt 0.17133100 0.64809096
vt 0.17133100 0.68605602
vt 0.17133100 0.68605602
vt 0.18158500 0.68605602
vt 0.18158500 0.64809096
vt 0.20545100 0.64809096
vt 0.18158500 0.64809096
vt 0.18158500 0.68605602
vt 0.18158500 0.68605602
vt 0.20545100 0.68605602
vt 0.20545100 0.64809096
vt 0.18158500 0.64809096
vt 0.17133100 0.64809096
vt 0.17133100 0.68605602
vt 0.17133100 0.68605602
vt 0.18158500 0.68605602
vt 0.18158500 0.64809096
vt 0.20545100 0.64809096
vt 0.18158500 0.64809096
vt 0.18158500 0.68605602
vt 0.18158500 0.68605602
vt 0.20545100 0.68605602
vt 0.20545100 0.64809096
vt 0.18158500 0.64809096
vt 0.17133100 0.64809096
vt 0.17133100 0.68605602
vt 0.17133100 0.68605602
vt 0.18158500 0.68605602
vt 0.18158500 0.64809096
vt 0.23725100 0.68605602
vt 0.24610101 0.68605602
vt 0.24167600 0.64809096
vt 0.06442500 0.94143498
vt 0.08029400 0.21076101
vt 0.08145400 0.21262199
vt 0.08063000 0.20972300
vt 0.08536000 0.21307999
vt 0.08136200 0.20902097
vt 0.08594000 0.21268302
vt 0.11096500 0.17667198
vt 0.11813700 0.18033397
vt 0.13275599 0.17206299
vt 0.13797399 0.18057799
vt 0.14719100 0.17206299
vt 0.14719100 0.18057799
vt 0.18414900 0.17206299
vt 0.18414900 0.18057799
vt 0.24549100 0.18057799
vt 0.24549100 0.17206299
vt 0.30341500 0.18057799
vt 0.30341500 0.17206299
vt 0.35422799 0.18057799
vt 0.35422799 0.17206299
vt 0.40137899 0.17206299
vt 0.40137899 0.18057799
vt 0.44413599 0.18057799
vt 0.44413599 0.17206299
vt 0.46794000 0.18057799
vt 0.46803200 0.17206299
vt 0.47334200 0.17761803
vt 0.06350900 0.14691597
vt 0.06381400 0.15244001
vt 0.06762900 0.14609200
vt 0.06854500 0.14609200
vt 0.06460800 0.15289801
vt 0.11935800 0.17258197
vt 0.11096500 0.17667198
vt 0.13275599 0.17206299
vt 0.08029400 0.21076101
vt 0.08063000 0.20972300
vt 0.08145400 0.21262199
vt 0.08536000 0.21307999
vt 0.08136200 0.20902097
vt 0.08594000 0.21268302
vt 0.11096500 0.17667198
vt 0.11813700 0.18033397
vt 0.13275599 0.17206299
vt 0.13797399 0.18057799
vt 0.14719100 0.17206299
vt 0.14719100 0.18057799
vt 0.18414900 0.17206299
vt 0.18414900 0.18057799
vt 0.24549100 0.18057799
vt 0.24549100 0.17206299
vt 0.30341500 0.18057799
vt 0.30341500 0.17206299
vt 0.35422799 0.18057799
vt 0.35422799 0.17206299
vt 0.40137899 0.17206299
vt 0.40137899 0.18057799
vt 0.44413599 0.18057799
vt 0.44413599 0.17206299
vt 0.46794000 0.18057799
vt 0.46803200 0.17206299
vt 0.47334200 0.17761803
vt 0.13275599 0.17206299
vt 0.11096500 0.17667198
vt 0.11935800 0.17258197
vt 0.06460800 0.15289801
vt 0.06854500 0.14609200
vt 0.06381400 0.15244001
vt 0.06762900 0.14609200
vt 0.06350900 0.14691597
vt 0.83745801 0.51814300
vt 0.83965600 0.53431797
vt 0.84041899 0.51548803
vt 0.85998100 0.52446103
vt 0.86486399 0.32102400
vt 0.86025602 0.31708699
vt 0.84298199 0.34369898
vt 0.84078503 0.34534699
vt 0.75279999 0.35325199
vt 0.73296303 0.40070802
vt 0.73030800 0.36143100
vt 0.71715403 0.40070802
vt 0.71404201 0.36350602
vt 0.70098001 0.40070802
vt 0.64525300 0.36402500
vt 0.64039999 0.40070802
vt 0.54557902 0.36402500
vt 0.53645402 0.40079999
vt 0.44517401 0.36402500
vt 0.43855101 0.40079999
vt 0.35508299 0.36402500
vt 0.35190901 0.40079999
vt 0.27320200 0.36402500
vt 0.27195001 0.40079999
vt 0.20108600 0.36402500
vt 0.19983500 0.40079999
vt 0.16275500 0.40043300
vt 0.08917500 0.38590699
vt 0.16159600 0.40693402
vt 0.16275500 0.41325098
vt 0.16275500 0.40043300
vt 0.19962201 0.41773701
vt 0.19983500 0.40079999
vt 0.27195001 0.40079999
vt 0.27216399 0.41773701
vt 0.35193899 0.41773701
vt 0.35190901 0.40079999
vt 0.43760499 0.41773701
vt 0.43855101 0.40079999
vt 0.53578299 0.41773701
vt 0.53645402 0.40079999
vt 0.63911903 0.41773701
vt 0.64039999 0.40070802
vt 0.70098001 0.40070802
vt 0.70284098 0.41773701
vt 0.71715403 0.40070802
vt 0.72890401 0.41773701
vt 0.73296303 0.40070802
vt 0.74355298 0.42057598
vt 0.84078503 0.34534699
vt 0.84398901 0.35871500
vt 0.76961601 0.42725903
vt 0.86736703 0.36280400
vt 0.84676701 0.35377097
vt 0.84298199 0.34369898
vt 0.84685802 0.34397399
vt 0.84844500 0.34641600
vt 0.87121201 0.32755500
vt 0.87310398 0.33552098
vt 0.87084597 0.35084099
vt 0.84041899 0.51548803
vt 0.83745801 0.51814300
vt 0.83941197 0.50798100
vt 0.83483398 0.51789904
vt 0.83715302 0.50441003
vt 0.74355298 0.42057598
vt 0.74367499 0.43150097
vt 0.72890401 0.41773701
vt 0.54554898 0.82427400
vt 0.60719597 0.67467296
vt 0.61232299 0.55256796
vt 0.73351198 0.67839599
vt 0.72170198 0.80715400
vt 0.73427498 0.54527402
vt 0.87939101 0.68691099
vt 0.83715302 0.50441003
vt 0.86068302 0.50593603
vt 0.83941197 0.50798100
vt 0.86236203 0.51301599
vt 0.84041899 0.51548803
vt 0.85998100 0.52446103
vt 0.08926700 0.41312897
vt 0.16275500 0.41325098
vt 0.09003000 0.46336299
vt 0.19836999 0.46363699
vt 0.19962201 0.41773701
vt 0.27359799 0.46363699
vt 0.27216399 0.41773701
vt 0.35193899 0.41773701
vt 0.35551000 0.46363699
vt 0.43760499 0.41773701
vt 0.44590601 0.46363699
vt 0.53578299 0.41773701
vt 0.54814303 0.46363699
vt 0.63911903 0.41773701
vt 0.65596497 0.46363699
vt 0.70284098 0.41773701
vt 0.72334999 0.46443099
vt 0.72890401 0.41773701
vt 0.73424500 0.46534598
vt 0.74367499 0.43150097
vt 0.75249499 0.47382998
vt 0.83483398 0.51789904
vt 0.83236200 0.53489804
vt 0.83745801 0.51814300
vt 0.83965600 0.53431797
vt 0.16159600 0.40693402
vt 0.16275500 0.40043300
vt 0.16275500 0.41325098
vt 0.19962201 0.41773701
vt 0.19983500 0.40079999
vt 0.27195001 0.40079999
vt 0.27216399 0.41773701
vt 0.35193899 0.41773701
vt 0.35190901 0.40079999
vt 0.43760499 0.41773701
vt 0.43855101 0.40079999
vt 0.53578299 0.41773701
vt 0.53645402 0.40079999
vt 0.63911903 0.41773701
vt 0.64039999 0.40070802
vt 0.70098001 0.40070802
vt 0.70284098 0.41773701
vt 0.71715403 0.40070802
vt 0.72890401 0.41773701
vt 0.73296303 0.40070802
vt 0.74355298 0.42057598
vt 0.84078503 0.34534699
vt 0.84398901 0.35871500
vt 0.84298199 0.34369898
vt 0.84676701 0.35377097
vt 0.84685802 0.34397399
vt 0.84844500 0.34641600
vt 0.87121201 0.32755500
vt 0.87310398 0.33552098
vt 0.87084597 0.35084099
vt 0.86736703 0.36280400
vt 0.76961601 0.42725903
vt 0.83715302 0.50441003
vt 0.86068302 0.50593603
vt 0.83941197 0.50798100
vt 0.86236203 0.51301599
vt 0.84041899 0.51548803
vt 0.16275500 0.40043300
vt 0.15482000 0.40708601
vt 0.08917500 0.38590699
vt 0.08905300 0.39988399
vt 0.08926700 0.41312897
vt 0.16275500 0.41325098
vt 0.08926700 0.41312897
vt 0.09003000 0.46336299
vt 0.16275500 0.41325098
vt 0.19836999 0.46363699
vt 0.19962201 0.41773701
vt 0.27359799 0.46363699
vt 0.27216399 0.41773701
vt 0.35193899 0.41773701
vt 0.35551000 0.46363699
vt 0.43760499 0.41773701
vt 0.44590601 0.46363699
vt 0.53578299 0.41773701
vt 0.54814303 0.46363699
vt 0.63911903 0.41773701
vt 0.65596497 0.46363699
vt 0.70284098 0.41773701
vt 0.72334999 0.46443099
vt 0.72890401 0.41773701
vt 0.73424500 0.46534598
vt 0.74367499 0.43150097
vt 0.75249499 0.47382998
vt 0.83483398 0.51789904
vt 0.83236200 0.53489804
vt 0.83745801 0.51814300
vt 0.08917500 0.38590699
vt 0.20108600 0.36402500
vt 0.16275500 0.40043300
vt 0.19983500 0.40079999
vt 0.27195001 0.40079999
vt 0.27320200 0.36402500
vt 0.35190901 0.40079999
vt 0.35508299 0.36402500
vt 0.43855101 0.40079999
vt 0.44517401 0.36402500
vt 0.53645402 0.40079999
vt 0.54557902 0.36402500
vt 0.64039999 0.40070802
vt 0.64525300 0.36402500
vt 0.70098001 0.40070802
vt 0.71404201 0.36350602
vt 0.71715403 0.40070802
vt 0.73030800 0.36143100
vt 0.73296303 0.40070802
vt 0.75279999 0.35325199
vt 0.84078503 0.34534699
vt 0.86025602 0.31708699
vt 0.84298199 0.34369898
vt 0.86486399 0.32102400
vt 0.87121201 0.32755500
vt 0.86486399 0.32102400
vt 0.84685802 0.34397399
vt 0.84298199 0.34369898
vt 0.85998100 0.52446103
vt 0.83965600 0.53431797
vt 0.84041899 0.51548803
vt 0.83745801 0.51814300
vt 0.79048997 0.85399902
vt 0.14066000 0.85332799
vt 0.78911698 0.88851601
vt 0.14066000 0.88784498
vt 0.78911698 0.88851601
vt 0.79048997 0.85399902
vt 0.87121201 0.32755500
vt 0.84685802 0.34397399
vt 0.86486399 0.32102400
vt 0.84298199 0.34369898
vt 0.84041899 0.51548803
vt 0.83941197 0.50798100
vt 0.83745801 0.51814300
vt 0.83483398 0.51789904
vt 0.83715302 0.50441003
vt 0.74355298 0.42057598
vt 0.74367499 0.43150097
vt 0.72890401 0.41773701
vt 0.91891199 0.60295403
vt 0.75444800 0.60264897
vt 0.94604301 0.66707397
vt 0.75444800 0.67040002
vt 0.91891199 0.74123400
vt 0.75444800 0.74095899
vt 0.56782699 0.67485601
vt 0.59422600 0.74123400
vt 0.54554898 0.82427400
vt 0.60719597 0.67467296
vt 0.73351198 0.67839599
vt 0.61232299 0.55256796
vt 0.73427498 0.54527402
vt 0.72170198 0.80715400
vt 0.87939101 0.68691099
vt 0.16275500 0.41325098
vt 0.15482000 0.40708601
vt 0.08926700 0.41312897
vt 0.08905300 0.39988399
vt 0.08917500 0.38590699
vt 0.16275500 0.40043300
vt 0.78911698 0.88851601
vt 0.14066000 0.88784498
vt 0.14438300 0.91790497
vt 0.78911698 0.88851601
vt 0.79287100 0.91790497
vt 0.83342999 0.88851601
vt 0.79287100 0.91790497
vt 0.83342999 0.88851601
vt 0.79048997 0.85399902
vt 0.83477300 0.85399902
vt 0.79421401 0.81801802
vt 0.14066000 0.85332799
vt 0.14438300 0.81801802
vt 0.79421401 0.81801802
vt 0.79048997 0.85399902
vt 0.83477300 0.85399902
vt 0.15482000 0.40708601
vt 0.16275500 0.41325098
vt 0.16159600 0.40693402
vt 0.16159600 0.40693402
vt 0.16275500 0.40043300
vt 0.15482000 0.40708601
vt 0.83965600 0.53431797
vt 0.85998100 0.52446103
vt 0.15482000 0.40708601
vt 0.16159600 0.40693402
vt 0.16275500 0.41325098
vt 0.16159600 0.40693402
vt 0.15482000 0.40708601
vt 0.16275500 0.40043300
vt 0.59422600 0.60295403
f 1/1 2/2 3/3
f 3/3 2/2 4/4
f 5/5 6/6 7/7
f 7/7 6/6 8/8
f 9/9 10/10 11/11
f 11/11 10/10 12/12
f 13/13 14/14 15/15
f 15/15 14/14 16/16
f 17/17 18/18 19/19
f 19/19 18/18 20/20
f 21/21 22/22 23/23
f 23/23 22/22 24/24
f 25/25 26/26 27/27
f 27/27 26/26 28/28
f 27/27 28/28 29/29
f 29/29 28/28 30/30
f 29/29 30/30 31/31
f 31/31 30/30 32/32
f 31/31 32/32 33/33
f 33/33 32/32 34/34
f 33/33 34/34 35/35
f 35/35 34/34 36/36
f 34/34 37/37 36/36
f 36/36 37/37 38/38
f 37/37 39/39 38/38
f 38/38 39/39 40/40
f 41/41 42/42 43/43
f 43/43 42/42 44/44
f 45/45 46/46 47/47
f 47/47 46/46 48/48
f 49/49 50/50 51/51
f 51/51 50/50 52/52
f 53/53 54/54 55/55
f 55/55 54/54 56/56
f 57/57 58/58 59/59
f 59/59 58/58 60/60
f 61/61 62/62 63/63
f 63/63 62/62 64/64
f 65/65 66/66 67/67
f 67/67 66/66 68/68
f 69/69 70/70 71/71
f 71/71 70/70 72/72
f 73/73 74/74 75/75
f 75/75 74/74 76/76
f 77/77 78/78 79/79
f 79/79 78/78 80/80
f 81/81 82/82 83/83
f 83/83 82/82 84/84
f 85/85 86/86 87/87
f 87/87 86/86 88/88
f 89/89 90/90 91/91
f 91/91 90/90 92/92
f 93/93 94/94 95/95
f 95/95 94/94 96/96
f 97/97 98/98 99/99
f 99/99 98/98 100/100
f 101/101 102/102 103/103
f 103/103 102/102 104/104
f 105/105 106/106 107/107
f 107/107 106/106 108/108
f 106/106 109/109 108/108
f 108/108 109/109 110/110
f 109/109 111/111 110/110
f 110/110 111/111 112/112
f 110/110 112/112 113/113
f 113/113 112/112 114/114
f 112/112 115/115 114/114
f 114/114 115/115 116/116
f 115/115 117/117 116/116
f 116/116 117/117 118/118
f 117/117 119/119 118/118
f 118/118 119/119 120/120
f 118/118 120/120 121/121
f 121/121 120/120 122/122
f 121/121 122/122 123/123
f 123/123 122/122 124/124
f 123/123 124/124 125/125
f 125/125 124/124 126/126
f 125/125 126/126 127/127
f 127/127 126/126 128/128
f 127/127 128/128 129/129
f 129/129 128/128 130/130
f 129/129 130/130 131/131
f 132/132 133/133 134/134
f 134/134 133/133 135/135
f 136/136 137/137 138/138
f 138/138 137/137 139/139
f 140/140 141/141 142/142
f 142/142 141/141 143/143
f 144/144 145/145 146/146
f 146/146 145/145 147/147
f 148/148 149/149 150/150
f 150/150 149/149 151/151
f 152/152 153/153 154/154
f 154/154 153/153 155/155
f 156/156 157/157 158/158
f 158/158 157/157 159/159
f 160/160 161/161 162/162
f 162/162 161/161 163/163
f 164/164 165/165 166/166
f 166/166 165/165 167/167
f 168/168 169/169 170/170
f 170/170 169/169 171/171
f 172/172 173/173 174/174
f 174/174 173/173 175/175
f 176/176 177/177 178/178
f 178/178 177/177 179/179
f 180/180 181/181 182/182
f 182/182 181/181 183/183
f 184/184 185/185 186/186
f 186/186 185/185 187/187
f 188/188 189/189 190/190
f 190/190 189/189 191/191
f 192/192 193/193 194/194
f 194/194 193/193 195/195
f 196/196 197/197 198/198
f 198/198 197/197 199/199
f 198/198 199/199 200/200
f 200/200 199/199 201/201
f 200/200 201/201 202/202
f 202/202 201/201 203/203
f 201/201 204/204 203/203
f 203/203 204/204 205/205
f 204/204 206/206 205/205
f 205/205 206/206 207/207
f 206/206 208/208 207/207
f 207/207 208/208 209/209
f 208/208 210/210 209/209
f 209/209 210/210 211/211
f 212/212 213/213 214/214
f 214/214 213/213 215/215
f 216/216 217/217 218/218
f 218/218 217/217 219/219
f 220/220 221/221 222/222
f 222/222 221/221 223/223
f 222/222 223/223 224/224
f 224/224 223/223 225/225
f 224/224 225/225 226/226
f 226/226 225/225 227/227
f 228/228 229/229 230/230
f 230/230 229/229 231/231
f 232/232 233/233 234/234
f 234/234 233/233 235/235
f 236/236 237/237 238/238
f 238/238 237/237 239/239
f 239/239 237/237 240/240
f 240/240 237/237 241/241
f 240/240 241/241 242/242
f 242/242 241/241 243/243
f 242/242 243/243 244/244
f 244/244 243/243 245/245
f 246/246 247/247 248/248
f 248/248 247/247 249/249
f 250/250 251/251 252/252
f 252/252 251/251 253/253
f 254/254 255/255 256/256
f 256/256 255/255 257/257
f 258/258 259/259 260/260
f 260/260 259/259 261/261
f 262/262 263/263 264/264
f 264/264 263/263 265/265
f 266/266 267/267 268/268
f 268/268 267/267 269/269
f 270/270 271/271 272/272
f 272/272 271/271 273/273
f 274/274 275/275 276/276
f 276/276 275/275 277/277
f 278/278 279/279 280/280
f 280/280 279/279 281/281
f 282/282 283/283 284/284
f 284/284 283/283 285/285
f 286/286 287/287 288/288
f 288/288 287/287 289/289
f 290/290 291/291 292/292
f 292/292 291/291 293/293
f 292/292 293/293 294/294
f 292/292 294/294 295/295
f 295/295 294/294 296/296
f 295/295 296/296 297/297
f 297/297 296/296 298/298
f 299/299 300/300 301/301
f 301/301 300/300 302/302
f 303/303 304/304 305/305
f 305/305 304/304 306/306
f 305/305 306/306 307/307
f 307/307 306/306 308/308
f 307/307 308/308 309/309
f 309/309 308/308 310/310
f 309/309 310/310 311/311
f 311/311 310/310 312/312
f 311/311 312/312 313/313
f 313/313 312/312 314/314
f 313/313 314/314 315/315
f 315/315 314/314 316/316
f 315/315 316/316 317/317
f 315/315 317/317 318/318
f 318/318 317/317 319/319
f 318/318 319/319 320/320
f 320/320 319/319 321/321
f 320/320 321/321 322/322
f 322/322 321/321 323/323
f 321/321 324/324 323/323
f 323/323 324/324 325/325
f 323/323 325/325 326/326
f 326/326 325/325 327/327
f 326/326 327/327 328/328
f 328/328 327/327 329/329
f 330/330 331/331 332/332
f 332/332 331/331 333/333
f 334/334 335/335 336/336
f 336/336 335/335 337/337
f 335/335 338/338 337/337
f 337/337 338/338 339/339
f 338/338 340/340 339/339
f 339/339 340/340 341/341
f 342/342 343/343 344/344
f 344/344 343/343 345/345
f 346/346 347/347 348/348
f 348/348 347/347 349/349
f 350/350 351/351 352/352
f 352/352 351/351 353/353
f 354/354 355/355 356/356
f 356/356 355/355 357/357
f 358/358 359/359 360/360
f 360/360 359/359 361/361
f 360/360 361/361 362/362
f 362/362 361/361 363/363
f 362/362 363/363 364/364
f 364/364 363/363 365/365
f 364/364 365/365 366/366
f 366/366 365/365 367/367
f 366/366 367/367 368/368
f 368/368 367/367 369/369
f 367/367 370/370 369/369
f 369/369 370/370 371/371
f 370/370 372/372 371/371
f 371/371 372/372 373/373
f 374/374 375/375 376/376
f 376/376 375/375 377/377
f 376/376 377/377 378/378
f 378/378 377/377 379/379
f 378/378 379/379 380/380
f 380/380 379/379 381/381
f 380/380 381/381 382/382
f 382/382 381/381 383/383
f 382/382 383/383 384/384
f 384/384 383/383 385/385
f 384/384 385/385 386/386
f 386/386 385/385 387/387
f 386/386 387/387 388/388
f 378/378 389/389 376/376
f 376/376 389/389 390/390
f 389/389 391/391 390/390
f 390/390 391/391 392/392
f 393/393 394/394 395/395
f 395/395 394/394 396/396
f 394/394 397/397 396/396
f 396/396 397/397 398/398
f 397/397 399/399 398/398
f 398/398 399/399 400/400
f 399/399 401/401 400/400
f 400/400 401/401 402/402
f 401/401 403/403 402/402
f 402/402 403/403 404/404
f 402/402 404/404 405/405
f 405/405 404/404 406/406
f 405/405 406/406 407/407
f 407/407 406/406 408/408
f 409/409 410/410 411/411
f 411/411 410/410 412/412
f 411/411 412/412 413/413
f 413/413 412/412 414/414
f 413/413 414/414 415/415
f 415/415 414/414 416/416
f 414/414 417/417 416/416
f 416/416 417/417 418/418
f 417/417 419/419 418/418
f 418/418 419/419 420/420
f 419/419 421/421 420/420
f 420/420 421/421 422/422
f 421/421 423/423 422/422
f 422/422 423/423 424/424
f 425/425 426/426 427/427
f 427/427 426/426 428/428
f 429/429 430/430 431/431
f 431/431 430/430 432/432
f 431/431 432/432 433/433
f 415/415 434/434 413/413
f 413/413 434/434 435/435
f 436/436 437/437 438/438
f 438/438 437/437 439/439
f 437/437 440/440 439/439
f 439/439 440/440 441/441
f 442/442 443/443 444/444
f 444/444 443/443 445/445
f 444/444 445/445 446/446
f 447/447 448/448 449/449
f 449/449 448/448 450/450
f 451/451 452/452 453/453
f 453/453 452/452 454/454
f 455/455 456/456 457/457
f 457/457 456/456 458/458
f 457/457 458/458 459/459
f 459/459 458/458 460/460
f 461/461 462/462 463/463
f 463/463 462/462 464/464
f 465/465 466/466 467/467
f 467/467 466/466 468/468
f 467/467 468/468 469/469
f 470/470 471/471 472/472
f 472/472 471/471 473/473
f 474/474 475/475 476/476
f 476/476 475/475 477/477
f 478/478 479/479 480/480
f 480/480 479/479 481/481
f 482/482 483/483 484/484
f 484/484 483/483 485/485
f 486/486 487/487 488/488
f 488/488 487/487 489/489
f 490/490 491/491 492/492
f 492/492 491/491 493/493
f 492/492 493/493 494/494
f 494/494 493/493 495/495
f 494/494 496/496 492/492
f 492/492 496/496 497/497
f 492/492 497/497 490/490
f 495/495 493/493 498/498
f 498/498 493/493 499/499
f 498/498 499/499 500/500
f 500/500 499/499 501/501
f 493/493 491/491 499/499
f 499/499 491/491 502/502
f 499/499 502/502 501/501
f 503/503 504/504 505/505
f 505/505 504/504 506/506
f 505/505 506/506 507/507
f 507/507 506/506 508/508
f 507/507 508/508 509/509
f 509/509 510/510 507/507
f 507/507 510/510 511/511
f 507/507 511/511 505/505
f 505/505 511/511 512/512
f 505/505 512/512 503/503
f 509/509 513/513 510/510
f 510/510 513/513 514/514
f 510/510 514/514 515/515
f 510/510 515/515 511/511
f 516/516 517/517 518/518
f 296/296 519/519 298/298
f 291/291 520/520 293/293
f 521/521 522/522 523/523
f 524/524 525/525 526/526
f 527/527 528/528 529/529
f 530/530 531/531 532/532
f 533/533 534/534 535/535
f 536/536 537/537 538/538
f 539/539 540/540 541/541
f 542/542 543/543 544/544
f 545/545 546/546 547/547
f 548/548 549/549 550/550
f 551/551 552/552 553/553
f 554/554 555/555 556/556
f 557/557 558/558 559/559
f 560/560 561/561 562/562
f 563/563 564/564 565/565
f 566/566 567/567 568/568
f 569/569 570/570 571/571
f 572/572 573/573 574/574
f 575/575 576/576 577/577
f 578/578 579/579 580/580
f 581/581 582/582 583/583
f 423/423 584/584 424/424
f 585/585 586/586 587/587
f 588/588 242/242 244/244
f 589/589 590/590 591/591
f 592/592 593/593 594/594
f 595/595 596/596 597/597
f 598/598 599/599 600/600
f 601/601 602/602 603/603
f 604/604 605/605 606/606
f 607/607 608/608 609/609
f 610/610 611/611 612/612
f 613/613 614/614 615/615
f 616/616 617/617 618/618
f 619/619 620/620 621/621
f 622/622 623/623 624/624
f 625/625 626/626 627/627
f 628/628 629/629 630/630
f 631/631 632/632 633/633
f 634/634 635/635 636/636
f 637/637 638/638 639/639
f 640/640 641/641 642/642
f 643/643 644/644 645/645
f 646/646 647/647 648/648
f 649/649 650/650 651/651
f 469/469 652/652 467/467
f 653/653 654/654 655/655
f 655/655 654/654 656/656
f 655/655 656/656 657/657
f 657/657 656/656 658/658
f 657/657 658/658 659/659
f 659/659 658/658 660/660
f 659/659 660/660 661/661
f 661/661 660/660 662/662
f 661/661 662/662 663/663
f 663/663 662/662 664/664
f 663/663 664/664 665/665
f 665/665 664/664 666/666
f 665/665 666/666 667/667
f 665/665 667/667 668/668
f 668/668 667/667 669/669
f 668/668 669/669 670/670
f 670/670 669/669 671/671
f 670/670 671/671 672/672
f 672/672 671/671 673/673
f 671/671 674/674 673/673
f 673/673 674/674 675/675
f 673/673 675/675 676/676
f 676/676 675/675 677/677
f 676/676 677/677 678/678
f 678/678 677/677 679/679
f 680/680 681/681 682/682
f 682/682 681/681 683/683
f 681/681 684/684 683/683
f 683/683 684/684 685/685
f 684/684 686/686 685/685
f 685/685 686/686 687/687
f 688/688 689/689 690/690
f 690/690 689/689 691/691
f 689/689 692/692 691/691
f 691/691 692/692 693/693
f 692/692 694/694 693/693
f 693/693 694/694 695/695
f 694/694 696/696 695/695
f 695/695 696/696 697/697
f 696/696 698/698 697/697
f 697/697 698/698 699/699
f 698/698 700/700 699/699
f 699/699 700/700 701/701
f 701/701 700/700 702/702
f 702/702 700/700 703/703
f 702/702 703/703 704/704
f 704/704 703/703 705/705
f 704/704 705/705 706/706
f 706/706 705/705 707/707
f 706/706 707/707 708/708
f 706/706 708/708 709/709
f 709/709 708/708 710/710
f 708/708 711/711 710/710
f 710/710 711/711 712/712
f 711/711 713/713 712/712
f 712/712 713/713 714/714
f 715/715 716/716 717/717
f 717/717 716/716 718/718
f 717/717 718/718 719/719
f 719/719 718/718 720/720
f 719/719 720/720 721/721
f 721/721 720/720 722/722
f 723/723 724/724 725/725
f 725/725 724/724 726/726
f 727/727 728/728 729/729
f 729/729 728/728 730/730
f 728/728 731/731 730/730
f 730/730 731/731 732/732
f 731/731 733/733 732/732
f 732/732 733/733 734/734
f 733/733 735/735 734/734
f 734/734 735/735 736/736
f 735/735 737/737 736/736
f 736/736 737/737 738/738
f 737/737 739/739 738/738
f 738/738 739/739 740/740
f 739/739 741/741 740/740
f 740/740 741/741 742/742
f 741/741 743/743 742/742
f 742/742 743/743 744/744
f 743/743 745/745 744/744
f 744/744 745/745 746/746
f 745/745 747/747 746/746
f 746/746 747/747 748/748
f 748/748 747/747 749/749
f 749/749 747/747 750/750
f 751/751 752/752 753/753
f 753/753 752/752 754/754
f 753/753 754/754 755/755
f 755/755 754/754 756/756
f 754/754 757/757 756/756
f 756/756 757/757 758/758
f 756/756 758/758 759/759
f 759/759 758/758 760/760
f 759/759 760/760 761/761
f 761/761 760/760 762/762
f 761/761 762/762 763/763
f 763/763 762/762 764/764
f 763/763 764/764 765/765
f 765/765 764/764 766/766
f 764/764 767/767 766/766
f 766/766 767/767 768/768
f 767/767 769/769 768/768
f 768/768 769/769 770/770
f 769/769 771/771 770/770
f 770/770 771/771 772/772
f 772/772 771/771 773/773
f 773/773 771/771 774/774
f 773/773 774/774 775/775
f 775/775 776/776 773/773
f 773/773 776/776 777/777
f 773/773 777/777 772/772
f 777/777 776/776 778/778
f 778/778 776/776 779/779
f 778/778 779/779 780/780
f 780/780 779/779 781/781
f 781/781 779/779 782/782
f 782/782 779/779 776/776
f 782/782 776/776 775/775
f 783/783 784/784 785/785
f 785/785 784/784 786/786
f 785/785 786/786 787/787
f 787/787 786/786 788/788
f 786/786 789/789 788/788
f 788/788 789/789 790/790
f 793/793 792/792 794/794
f 794/794 792/792 791/791
f 794/794 791/791 795/795
f 793/793 794/794 796/796
f 796/796 794/794 797/797
f 771/771 798/798 774/774
f 774/774 798/798 799/799
f 798/798 800/800 799/799
f 799/799 800/800 801/801
f 800/800 802/802 801/801
f 801/801 802/802 803/803
f 804/804 805/805 806/806
f 806/806 805/805 807/807
f 805/805 808/808 807/807
f 807/807 808/808 809/809
f 808/808 810/810 809/809
f 809/809 810/810 811/811
f 809/809 811/811 812/812
f 812/812 811/811 813/813
f 812/812 813/813 814/814
f 814/814 813/813 815/815
f 814/814 815/815 816/816
f 816/816 815/815 817/817
f 816/816 817/817 818/818
f 818/818 817/817 819/819
f 818/818 819/819 820/820
f 820/820 819/819 821/821
f 820/820 821/821 822/822
f 822/822 821/821 823/823
f 822/822 823/823 824/824
f 824/824 823/823 825/825
f 824/824 825/825 826/826
f 826/826 825/825 827/827
f 826/826 827/827 828/828
f 829/829 830/830 831/831
f 831/831 830/830 832/832
f 830/830 833/833 832/832
f 832/832 833/833 834/834
f 832/832 834/834 835/835
f 835/835 834/834 836/836
f 834/834 837/837 836/836
f 836/836 837/837 838/838
f 837/837 839/839 838/838
f 838/838 839/839 840/840
f 839/839 841/841 840/840
f 840/840 841/841 842/842
f 841/841 843/843 842/842
f 842/842 843/843 844/844
f 842/842 844/844 845/845
f 845/845 844/844 846/846
f 845/845 846/846 847/847
f 847/847 846/846 848/848
f 847/847 848/848 849/849
f 849/849 848/848 850/850
f 849/849 850/850 851/851
f 851/851 850/850 852/852
f 851/851 852/852 853/853
f 853/853 852/852 854/854
f 853/853 854/854 855/855
f 855/855 854/854 856/856
f 856/856 857/857 855/855
f 855/855 857/857 858/858
f 855/855 858/858 853/853
f 853/853 858/858 859/859
f 853/853 859/859 851/851
f 851/851 859/859 860/860
f 851/851 860/860 849/849
f 849/849 860/860 861/861
f 860/860 862/862 861/861
f 861/861 862/862 863/863
f 862/862 864/864 863/863
f 863/863 864/864 865/865
f 866/866 867/867 868/868
f 868/868 867/867 869/869
f 869/869 867/867 870/870
f 870/870 867/867 871/871
f 872/872 873/873 874/874
f 874/874 873/873 875/875
f 874/874 875/875 876/876
f 876/876 875/875 877/877
f 876/876 877/877 878/878
f 878/878 877/877 879/879
f 877/877 880/880 879/879
f 879/879 880/880 881/881
f 880/880 882/882 881/881
f 881/881 882/882 883/883
f 882/882 884/884 883/883
f 883/883 884/884 885/885
f 884/884 886/886 885/885
f 885/885 886/886 887/887
f 886/886 888/888 887/887
f 887/887 888/888 889/889
f 888/888 890/890 889/889
f 889/889 890/890 891/891
f 890/890 892/892 891/891
f 891/891 892/892 893/893
f 892/892 894/894 893/893
f 893/893 894/894 895/895
f 896/896 897/897 898/898
f 898/898 897/897 899/899
f 899/899 897/897 900/900
f 900/900 897/897 901/901
f 900/900 901/901 902/902
f 902/902 901/901 903/903
f 902/902 903/903 904/904
f 904/904 903/903 905/905
f 904/904 905/905 906/906
f 906/906 905/905 907/907
f 906/906 907/907 908/908
f 908/908 907/907 909/909
f 908/908 909/909 910/910
f 910/910 909/909 911/911
f 910/910 911/911 912/912
f 912/912 911/911 913/913
f 912/912 913/913 914/914
f 914/914 913/913 915/915
f 914/914 915/915 916/916
f 916/916 915/915 917/917
f 916/916 917/917 918/918
f 918/918 917/917 919/919
f 920/920 921/921 922/922
f 922/922 921/921 923/923
f 924/924 925/925 926/926
f 926/926 925/925 927/927
f 928/928 929/929 930/930
f 930/930 929/929 931/931
f 931/931 929/929 932/932
f 932/932 929/929 933/933
f 934/934 935/935 936/936
f 936/936 935/935 937/937
f 938/938 939/939 940/940
f 940/940 939/939 941/941
f 939/939 942/942 941/941
f 941/941 942/942 943/943
f 941/941 943/943 944/944
f 944/944 943/943 945/945
f 946/946 947/947 948/948
f 948/948 947/947 949/949
f 948/948 949/949 950/950
f 950/950 949/949 951/951
f 947/947 952/952 949/949
f 949/949 952/952 953/953
f 949/949 953/953 951/951
f 954/954 955/955 956/956
f 956/956 955/955 957/957
f 956/956 957/957 958/958
f 954/954 956/956 959/959
f 960/960 956/956 958/958
f 961/961 962/962 963/963
f 963/963 962/962 964/964
f 964/964 962/962 965/965
f 965/965 962/962 966/966
f 967/967 968/968 969/969
f 969/969 968/968 970/970
f 969/969 970/970 971/971
f 971/971 970/970 972/972
f 969/969 973/973 967/967
f 967/967 973/973 974/974
f 967/967 974/974 975/975
f 975/975 974/974 976/976
f 975/975 976/976 977/977
f 975/975 977/977 978/978
f 978/978 977/977 979/979
f 978/978 979/979 980/980
f 978/978 980/980 981/981
f 981/981 980/980 982/982
f 981/981 982/982 972/972
f 983/983 984/984 985/985
f 986/986 987/987 988/988
f 894/894 989/989 895/895
f 864/864 990/990 865/865
f 991/991 992/992 993/993
f 994/994 995/995 996/996
f 972/972 970/970 981/981
f 947/947 997/997 952/952

