# https://github.com/mikedh/trimesh
v 2.07108700 0.56801963 0.47367134
v 2.09562069 0.57415181 0.48010254
v 2.09427757 0.54886815 0.47337233
v 2.10295377 0.54662804 0.47651441
v 2.09801767 0.57355381 0.48190152
v 2.10504689 0.54557903 0.47890650
v 2.10459592 0.54542710 0.48279855
v 2.09726766 0.57504886 0.48519065
v 2.09412564 0.54827015 0.49312181
v 2.07826815 0.57250480 0.48982778
v 2.07438094 0.55560331 0.49790600
v 2.05777359 0.57624490 0.50179806
v 2.06854787 0.58118107 0.49431786
v 2.06540571 0.58806322 0.49416590
v 2.06540571 0.58193104 0.50134709
v 2.06270969 0.58626918 0.50194511
v 2.04535730 0.58223004 0.49730797
v 2.03608303 0.59210236 0.50344017
v 2.04774931 0.57908799 0.50029809
v -2.24267891 0.14465802 0.26513189
v -2.24522299 0.12117334 0.26588190
v -2.24118386 0.14451097 0.26572993
v -2.24372795 0.12117334 0.26632793
v -2.22802253 0.12147235 0.26782791
v -2.22846853 0.10292382 0.27710218
v -2.12001060 0.10546787 0.24942646
v -2.12105950 0.07749309 0.28188641
v -2.25210526 0.10112974 0.27590614
v -2.25045814 0.10127680 0.27635221
v -2.23220863 0.08721343 0.29699874
v -2.25629633 0.08227728 0.31839033
v -2.12210373 0.07853719 0.31734136
v -2.27245271 0.08796342 0.34232598
v -2.12300567 0.10815897 0.34861017
v -2.23415466 0.11474213 0.36640871
v -2.12345167 0.14855008 0.34965424
v -2.23519873 0.15303526 0.36745769
v -2.12285359 0.17891694 0.32227750
v -2.23400272 0.18191196 0.34157601
v -2.26287458 0.08721343 0.29266060
v -2.26137953 0.08751244 0.29310667
v -2.27783496 0.08138025 0.31375319
v -2.27619280 0.08167926 0.31419926
v -2.29878049 0.08257629 0.33978192
v -2.29653544 0.08287531 0.33948292
v -2.31314279 0.08646836 0.35743342
v -2.28382011 0.10187482 0.35983042
v -2.35966624 0.10022781 0.39887353
v -2.28935429 0.11952632 0.36865373
v -2.38704291 0.11504114 0.42385327
v -2.28995222 0.13732978 0.37104583
v -2.39721415 0.13104563 0.43447553
v -2.39407213 0.14421196 0.43298049
v -2.39586622 0.14406000 0.43387751
v -2.38659194 0.15408425 0.42625027
v -2.39870934 0.13089858 0.43537258
v -2.38928796 0.11504114 0.42505421
v -2.36310729 0.10022781 0.40052054
v -2.31583399 0.08601739 0.35818341
v 2.04296514 0.59584245 0.50493523
v 2.05059244 0.60751370 0.49805795
v 2.04745027 0.61469493 0.49760698
v 2.04700427 0.60870975 0.50538619
v 2.04446018 0.61304788 0.50598422
v 2.02247058 0.61349395 0.50149904
v 2.01379439 0.62022910 0.50747927
v 2.03817600 0.60287657 0.50613618
v 2.02546067 0.60511672 0.50478817
v 2.02621068 0.60885682 0.50104807
v -2.22816949 0.14361394 0.26677894
v -2.12016253 0.15049611 0.24837745
v -2.12734368 -0.21138179 0.24763237
v -2.20498389 -0.22768528 0.29669974
v -2.20932206 -0.22573927 0.29295961
v -2.26841358 -0.23471942 0.33514479
v -2.26497252 -0.23695956 0.33948292
v -2.30610875 -0.23636154 0.36491363
v -2.30311866 -0.23860659 0.36955077
v -2.31523592 -0.23456747 0.37209482
v -2.31224583 -0.23695956 0.37688390
v -2.34410778 -0.22199916 0.40216266
v -2.34649979 -0.22005804 0.39707945
v -2.38973396 -0.19013725 0.43313244
v -2.38808699 -0.19163231 0.43896562
v -2.40334641 -0.17847089 0.44479879
v -2.40170426 -0.17966693 0.45078394
v -2.40828251 -0.17338278 0.44913693
v -2.40648843 -0.17443177 0.45497011
v -2.41067949 -0.16829468 0.45856315
v -2.41232164 -0.16725058 0.45257802
v -2.41665982 -0.15842239 0.45586715
v -2.41501766 -0.15902041 0.46200424
v -2.41935583 -0.14839813 0.45766612
v -2.41786079 -0.14869714 0.46379830
v -2.42219882 -0.11728618 0.46529337
v -2.42384097 -0.11743324 0.45930822
v -2.43177213 -0.03919507 0.46155327
v -2.42997804 -0.04023916 0.46738645
v -2.43386525 0.00000000 0.46215129
v -2.43221827 0.00000000 0.46813643
v -2.43177213 0.03934212 0.46155327
v -2.43012515 0.03934212 0.46753841
v -2.42384097 0.11758519 0.45930822
v -2.42219882 0.11743324 0.46529337
v -2.41935583 0.14855008 0.45766612
v -2.41786079 0.14884909 0.46379830
v -2.41501766 0.15917236 0.46200424
v -2.41665982 0.15857433 0.45586715
v -2.41232164 0.16739764 0.45257802
v -2.41067949 0.16829468 0.45856315
v -2.40648843 0.17457883 0.45497011
v -2.40828251 0.17352984 0.44913693
v -2.40170426 0.17966693 0.45078394
v -2.40334641 0.17861794 0.44479879
v -2.38091066 0.19716647 0.43283344
v -2.38285185 0.19552435 0.42714729
v -2.34649979 0.22020509 0.39707945
v -2.34410778 0.22215113 0.40216266
v -2.31224583 0.23711152 0.37688390
v -2.31523592 0.23471942 0.37209482
v -2.30311866 0.23875853 0.36955077
v -2.30610875 0.23651350 0.36491363
v -2.26841358 0.23486647 0.33514479
v -2.26497252 0.23711152 0.33948292
v -2.23639970 0.23052836 0.31136111
v -2.23236056 0.23247439 0.31524826
v -2.18224428 0.22125408 0.27455814
v -2.17760707 0.22304817 0.27814627
v -2.12734368 0.21152884 0.24763237
v -2.12150565 0.18221098 0.28338635
v -2.23101263 0.18460307 0.30043983
v -2.22906661 0.16635354 0.27620514
v -2.24387988 0.16665256 0.27530810
v -2.24118386 0.14451097 0.26572993
v -2.24267891 0.14465802 0.26513189
v -2.22816949 0.14361394 0.26677894
v -2.12016253 0.15049611 0.24837745
v -2.14603934 0.00688218 0.27380817
v -2.14633838 0.02872475 0.28323438
v -2.28008001 0.00658316 0.30627300
v -2.28053098 0.02722479 0.31524825
v -2.29429038 0.01810247 0.30806704
v -2.30012842 0.03485694 0.32033635
v -2.27798689 0.04278321 0.32931161
v -2.29084933 0.04472924 0.34696311
v -2.14753921 0.04712133 0.31674334
v -2.14813729 0.04383220 0.33753691
v -2.29458943 0.04144010 0.36700672
v -2.32256417 0.04667527 0.35474231
v -2.30954980 0.04383220 0.33649279
v -2.35891623 0.04114109 0.39318741
v -2.29593737 0.02572973 0.38600623
v -2.39168012 0.02902376 0.42176019
v -2.40963059 0.01795052 0.43821564
v -2.14888233 0.02767576 0.35773247
v -2.14903441 0.00449008 0.36715869
v -2.29653545 0.00403911 0.39453541
v -2.41591477 0.01017131 0.44404882
v -2.41830679 0.00000000 0.44614680
v -2.29608944 -0.01884755 0.38989827
v -2.41591477 -0.01002425 0.44404882
v -2.14903441 -0.02049457 0.36207058
v -2.29533944 -0.03710198 0.37493787
v -2.39168012 -0.02887180 0.42176019
v -2.35891623 -0.04098914 0.39318741
v -2.40963059 -0.01780346 0.43821564
v 2.04865125 0.61648894 0.49521489
v 2.03204389 0.63533652 0.50104808
v 2.03114678 0.64221871 0.49805795
v 2.02815669 0.64266967 0.50104807
v 2.01379439 0.66226229 0.50389113
v 2.00631420 0.64939986 0.51286639
v 2.00032905 0.65642915 0.51406244
v 1.99853497 0.65493403 0.51421439
v 1.99628992 0.65762516 0.51466046
v 2.00960332 0.66256133 0.51301345
v 2.01095126 0.66810040 0.50359212
v 2.01364246 0.66794840 0.50089612
v 1.99599088 0.68949200 0.50598422
v 1.99658896 0.69278113 0.50359212
v 1.99105478 0.69592322 0.50673419
v 1.96622205 0.72704006 0.51167034
v 1.95260960 0.71537370 0.52243966
v 1.94288437 0.72853510 0.51226835
v 1.98372155 0.67542859 0.51705255
v 2.00631420 0.66750233 0.51361637
v 1.98297651 0.66660039 0.50942530
v 1.98432445 0.66256133 0.50852827
v 1.97654537 0.67184050 0.51630747
v 1.79358428 0.83744407 0.58287925
v 1.85746508 0.81934160 0.52303768
v 1.90368933 0.80572916 0.52019461
v 1.88588583 0.80453315 0.51615550
v 1.91490962 0.79854801 0.51555749
v 1.92687509 0.74902966 0.51002331
v 1.95425176 0.74663757 0.50957725
v 1.96337892 0.70145740 0.52079265
v 1.98791261 0.69427617 0.51705255
v 1.99105478 0.68934000 0.51645453
v 1.96068787 0.69367817 0.51241541
v 1.96218292 0.68963904 0.51137133
v 1.95290864 0.69861427 0.51944954
v 2.00197602 0.64999793 0.51346442
v 2.00347107 0.64835089 0.51316541
v 2.02456370 0.64146870 0.51002333
v 1.99374583 0.64506176 0.51151838
v 2.00137795 0.63922862 0.50553814
v 2.02830380 0.63578749 0.50927825
v 2.02037746 0.62920434 0.51002333
v 2.02396563 0.62426816 0.50927825
v 2.01768144 0.62935137 0.51047429
v 2.02112265 0.62351823 0.50972432
v 2.01633833 0.63099842 0.51062136
v 2.00466708 0.63099842 0.50942530
v 2.00511804 0.63608652 0.50419014
v 1.96472700 0.68530094 0.51810155
v 1.97818737 0.68275685 0.51810155
v -2.12016253 0.15049611 0.24837745
v -2.12001060 0.10546787 0.24942646
v -2.12150565 0.18221098 0.28338635
v -2.12345167 0.14855008 0.34965424
v -2.12285359 0.17891694 0.32227750
v -2.12210373 0.07853719 0.31734136
v -2.12105950 0.07749309 0.28188641
v -2.12330456 -0.16754959 0.33634087
v -2.12330457 -0.12805552 0.35279632
v -2.12150565 -0.18221098 0.28308734
v -2.12001060 -0.10546787 0.24927449
v -2.12016253 -0.15049611 0.24823041
v -2.12135854 -0.07509610 0.29191065
v -2.12270663 -0.09050747 0.33589480
v -2.14813729 0.04383220 0.33753691
v -2.14753921 0.04712133 0.31674334
v -2.14888233 0.02767576 0.35773247
v -2.14603934 0.00688218 0.27380817
v -2.14753921 -0.04592528 0.31719430
v -2.14664224 -0.03605299 0.29041556
v -2.14903441 -0.02049457 0.36207058
v -2.14843633 -0.03934212 0.34606611
v 1.79358428 -0.83744407 0.58287925
v 1.90368933 -0.80572916 0.52019461
v 1.85746508 -0.81934160 0.52303768
v 1.88588583 -0.80453315 0.51615550
v 1.91490962 -0.79854801 0.51555749
v 1.92687509 -0.74902966 0.51002331
v 1.95425176 -0.74663757 0.50957725
v 1.94288437 -0.72853510 0.51226835
v 1.96622205 -0.72704006 0.51167034
v 1.99658896 -0.69278113 0.50359212
v 1.99105478 -0.69592322 0.50673419
v 1.99599088 -0.68949200 0.50598422
v 1.99105478 -0.68934000 0.51645453
v 1.97818737 -0.68275685 0.51810155
v 1.96472700 -0.68530094 0.51810155
v 1.95260960 -0.71537370 0.52243966
v 1.96337892 -0.70145740 0.52079265
v 1.98791261 -0.69427617 0.51705255
v 1.95290864 -0.69861427 0.51944954
v 1.96068787 -0.69367817 0.51241541
v 1.96218292 -0.68963904 0.51137133
v 2.01364246 -0.66794840 0.50089612
v 2.01095126 -0.66810040 0.50359212
v 1.98372155 -0.67542859 0.51705255
v 2.00631420 -0.66750233 0.51361637
v 1.97654537 -0.67184050 0.51630747
v 1.98297651 -0.66660039 0.50942530
v 2.00960332 -0.66256133 0.51301345
v 2.01379439 -0.66226229 0.50389113
v 2.03114678 -0.64221871 0.49805795
v 1.98432445 -0.66256133 0.50852827
v 1.98641757 -0.65822316 0.51451340
v 1.99628992 -0.65762516 0.51466046
v 2.00032905 -0.65642915 0.51406244
v 1.99853497 -0.65493403 0.51421439
v 2.00631420 -0.64939986 0.51286639
v 2.00197602 -0.64999793 0.51346442
v 2.00347107 -0.64835089 0.51316541
v 2.02815669 -0.64266967 0.50104807
v 2.02456370 -0.64146870 0.51002333
v 1.99374583 -0.64506176 0.51151838
v 2.02830380 -0.63578749 0.50927825
v 2.00137795 -0.63922862 0.50553814
v 2.03204389 -0.63533652 0.50104808
v 2.02037746 -0.62920434 0.51002333
v 2.01633833 -0.63099842 0.51062136
v 2.01768144 -0.62935137 0.51047429
v 2.00466708 -0.63099842 0.50942530
v 2.00511804 -0.63608652 0.50419014
v 2.04865125 -0.61648894 0.49521489
v 2.04745027 -0.61469493 0.49760698
v 2.02396563 -0.62426816 0.50927825
v 2.04446018 -0.61304788 0.50598422
v 2.02336770 -0.62157215 0.50927825
v 2.01379439 -0.62022910 0.50747927
v 2.04700427 -0.60870975 0.50538619
v 2.02247058 -0.61349395 0.50149904
v 2.05059244 -0.60751370 0.49805795
v 2.06540571 -0.58806322 0.49416590
v 2.04296514 -0.59584245 0.50493523
v 2.06270969 -0.58626918 0.50194511
v 2.03608303 -0.59210236 0.50344017
v 2.04535730 -0.58223004 0.49730797
v 2.07826815 -0.57250480 0.48982778
v 2.06854787 -0.58118107 0.49431786
v 2.05777359 -0.57624490 0.50179806
v 2.06540571 -0.58193104 0.50134709
v 2.04774931 -0.57908799 0.50029809
v 2.02112265 -0.62351823 0.50972432
v 2.07438094 -0.55560331 0.49790600
v 2.09412564 -0.54827015 0.49312181
v 2.09726766 -0.57504886 0.48519065
v 2.10459592 -0.54542710 0.48279855
v 2.09801767 -0.57355381 0.48190152
v 2.10504689 -0.54557903 0.47890650
v 2.10295377 -0.54662804 0.47651441
v 2.09562069 -0.57415181 0.48010254
v 2.09427757 -0.54886815 0.47337233
v 2.07108700 -0.56801963 0.47367134
v 2.03817600 -0.60287657 0.50613618
v 2.02546067 -0.60511672 0.50478817
v 2.02621068 -0.60885682 0.50104807
v -2.32570619 -0.04652331 0.35908045
v -2.29399135 -0.04397926 0.35713442
v -2.31583399 -0.04577823 0.34576706
v -2.28606516 -0.04293517 0.33783589
v -2.30431466 -0.04023916 0.32796360
v -2.28112891 -0.03410696 0.32213042
v -2.29668736 -0.02707773 0.31330222
v -2.28023194 -0.01780346 0.30971409
v -2.29294727 -0.00643121 0.30477792
v -2.28008001 0.00658316 0.30627300
v -2.14753921 -0.04592528 0.31719430
v -2.14664224 -0.03605299 0.29041556
v -2.14619127 -0.01884755 0.27724927
v -2.14603934 0.00688218 0.27380817
v -2.14843633 -0.03934212 0.34606611
v 1.98641757 0.65822316 0.51451340
v 2.02336770 0.62157215 0.50927825
v -2.24267891 -0.14451097 0.26513189
v -2.24118386 -0.14435901 0.26572993
v -2.24522299 -0.12102138 0.26588190
v -2.24372795 -0.12102138 0.26632793
v -2.25210526 -0.10097778 0.27590614
v -2.25045814 -0.10112974 0.27635221
v -2.26287458 -0.08706638 0.29266060
v -2.26137953 -0.08736539 0.29310667
v -2.27783496 -0.08123320 0.31375319
v -2.27619280 -0.08153221 0.31419926
v -2.30730475 -0.08422331 0.34905619
v -2.30491274 -0.08452232 0.34845817
v -2.34021575 -0.09319858 0.38182005
v -2.28187410 -0.09768865 0.35668835
v -2.28710924 -0.11010499 0.36506558
v -2.23370369 -0.10202677 0.35788440
v -2.22802253 -0.12132530 0.26782791
v -2.22846853 -0.10277186 0.27710218
v -2.23295864 -0.08811047 0.29475369
v -2.25629633 -0.08213023 0.31839033
v -2.27245271 -0.08781146 0.34232598
v -2.23146360 -0.08242924 0.32138046
v -2.12135854 -0.07509610 0.29191065
v -2.12270663 -0.09050747 0.33589480
v -2.12330457 -0.12805552 0.35279632
v -2.23460080 -0.13358969 0.37149681
v -2.23535081 -0.15318721 0.36820766
v -2.28831021 -0.14570702 0.37014879
v -2.28247203 -0.16246148 0.36431561
v -2.32914740 -0.17682386 0.38002597
v -2.30626068 -0.18265704 0.36012944
v -2.30835380 -0.18340703 0.36027649
v -2.28845717 -0.18729417 0.33948292
v -2.12330456 -0.16754959 0.33634087
v -2.23505177 -0.17039266 0.35803146
v -2.27469280 -0.17293180 0.35609033
v -2.28681020 -0.18669615 0.33963487
v -2.26931069 -0.18894120 0.31599822
v -2.26257554 -0.18310801 0.34067897
v -2.23355672 -0.18504914 0.33484579
v -2.12150565 -0.18221098 0.28308734
v -2.23146360 -0.18654910 0.30537597
v -2.25165912 -0.18774514 0.32571857
v -2.26766357 -0.18834318 0.31629724
v -2.23056166 -0.18250998 0.29565073
v -2.25315416 -0.18250998 0.29445468
v -2.25464920 -0.18325508 0.29415568
v -2.22906661 -0.16620160 0.27620514
v -2.24387988 -0.16650060 0.27530810
v -2.24537493 -0.16695157 0.27471009
v -2.24118386 -0.14435901 0.26572993
v -2.24267891 -0.14451097 0.26513189
v -2.22816949 -0.14346198 0.26677894
v -2.12016253 -0.15049611 0.24823041
v -2.24537493 0.16709862 0.27471009
v -2.25315416 0.18265704 0.29445468
v -2.25464920 0.18340703 0.29415568
v -2.26766357 0.18849024 0.31629724
v -2.26931069 0.18908826 0.31599822
v -2.28023194 0.18789220 0.33245368
v -2.28187409 0.18849024 0.33215468
v -2.29982457 0.18430407 0.35354628
v -2.30177058 0.18490209 0.35369333
v -2.36221018 0.16590258 0.40665274
v -2.36505331 0.16635354 0.40799584
v -2.25509535 0.18684812 0.33035571
v -2.27065381 0.17697091 0.35130125
v -2.28471708 0.15692732 0.36670770
v -2.38404785 0.15408425 0.42490226
v -2.33169134 -0.17742188 0.38077107
v -2.36221018 -0.16590258 0.40665274
v -2.38404785 -0.15393720 0.42490226
v -2.39601815 -0.13972188 0.43432848
v -2.38659194 -0.15393720 0.42625027
v -2.39766512 -0.13957482 0.43522552
v -2.36505331 -0.16620160 0.40799584
v -2.34231370 -0.09260054 0.38211905
v -2.37567069 -0.10770801 0.41338296
v -2.37717056 -0.10710997 0.41353491
v -2.39542022 -0.12222233 0.43148543
v -2.39377310 -0.12222233 0.43058839
v -2.29025126 -0.12909960 0.37059976
v -2.22816949 -0.14346198 0.26677894
v -2.12016253 -0.15049611 0.24823041
v -2.12001060 -0.10546787 0.24927449
v -2.38659194 -0.15393720 0.42625027
v -2.36505331 -0.16620160 0.40799584
v -2.39482214 -0.16171641 0.43462750
v -2.36998941 -0.17861794 0.41338296
v -2.40334641 -0.17847089 0.44479879
v -2.38973396 -0.19013725 0.43313244
v -2.39766512 -0.13957482 0.43522552
v -2.40783651 -0.14585898 0.44554878
v -2.41022852 -0.12461442 0.44599485
v -2.41935583 -0.14839813 0.45766612
v -2.42384097 -0.11743324 0.45930822
v -2.41665982 -0.15842239 0.45586715
v -2.41232164 -0.16725058 0.45257802
v -2.40828251 -0.17338278 0.44913693
v -2.34649979 -0.22005804 0.39707945
v -2.33318639 -0.18564716 0.38196711
v -2.30954981 -0.19133329 0.36177156
v -2.33288749 -0.18415210 0.38166809
v -2.30954981 -0.18983823 0.36162450
v -2.33169134 -0.17742188 0.38077107
v -2.30835380 -0.18340703 0.36027649
v -2.39542022 -0.12222233 0.43148543
v -2.39242516 -0.10546787 0.42729435
v -2.37717056 -0.10710997 0.41353491
v -2.35607310 -0.08781146 0.39318741
v -2.34231370 -0.09260054 0.38211905
v -2.30850573 -0.07644410 0.35025223
v -2.30880477 -0.07793917 0.34980618
v -2.27783496 -0.07494904 0.31330222
v -2.27783496 -0.08123320 0.31375319
v -2.26287458 -0.08706638 0.29266060
v -2.36116128 -0.05849359 0.39557949
v -2.39646429 -0.05205748 0.42714729
v -2.41800775 -0.03874410 0.44704384
v -2.43177213 -0.03919507 0.46155327
v -2.30835380 -0.06073863 0.35205121
v -2.27633991 -0.07435102 0.31360124
v -2.26153146 -0.08123320 0.28966558
v -2.25210526 -0.10097778 0.27590614
v -2.26018338 -0.05789556 0.31509629
v -2.30266769 -0.04472924 0.32512054
v -2.23519872 -0.05445448 0.29864085
v -2.11731940 0.00000000 0.22683878
v -2.25973738 -0.08108124 0.28936658
v -2.24866405 -0.09678671 0.27111703
v -2.25015924 -0.09723768 0.27126900
v -2.24522299 -0.12102138 0.26588190
v -2.31523592 -0.23456747 0.37209482
v -2.30610875 -0.23636154 0.36491363
v -2.26841358 -0.23471942 0.33514479
v -2.28756020 -0.19522535 0.33993389
v -2.26661467 -0.19642139 0.31524825
v -2.28815813 -0.19372539 0.33963487
v -2.26826165 -0.19522535 0.31540020
v -2.28845717 -0.18729417 0.33948292
v -2.26931069 -0.18894120 0.31599822
v -2.25315416 -0.18908826 0.29191063
v -2.25150718 -0.18968628 0.29176356
v -2.20932206 -0.22573927 0.29295961
v -2.24148290 -0.17128970 0.27036707
v -2.24283098 -0.17069166 0.27021999
v -2.25464920 -0.18325508 0.29415568
v -2.24537493 -0.16695157 0.27471009
v -2.23968882 -0.14615799 0.25915168
v -2.23819377 -0.14615799 0.25885264
v -2.12734368 -0.21138179 0.24763237
v -2.24103690 -0.11922731 0.25974968
v -2.12016253 -0.13119759 0.23177495
v -1.99614614 -0.17398081 0.18854077
v -2.24238001 -0.11982533 0.25989675
v -2.24267891 -0.14451097 0.26513189
v -2.43386525 0.00000000 0.46215129
v -2.41651270 -0.01047032 0.44465174
v -2.41008156 -0.01914656 0.43866661
v -2.41591477 -0.01002425 0.44404882
v -2.40963059 -0.01780346 0.43821564
v -2.41830679 0.00000000 0.44614680
v -2.41920390 0.00000000 0.44719090
v -2.41651270 0.01062227 0.44465174
v -2.41800775 0.03889605 0.44704384
v -2.43177213 0.03934212 0.46155327
v -2.42384097 0.11758519 0.45930822
v -2.41008156 0.01929852 0.43866661
v -2.41591477 0.01017131 0.44404882
v -2.39197901 0.03036686 0.42205919
v -2.40963059 0.01795052 0.43821564
v -2.39168012 0.02902376 0.42176019
v -2.36011224 0.04652331 0.39393738
v -2.35891623 0.04114109 0.39318741
v -2.32196610 0.05191042 0.35414429
v -2.32256417 0.04667527 0.35474231
v -2.30820669 0.04876835 0.33454676
v -2.30954980 0.04383220 0.33649279
v -2.29818241 0.03889605 0.31659626
v -2.30012842 0.03485694 0.32033635
v -2.29219726 0.02004360 0.30283190
v -2.29429038 0.01810247 0.30806704
v -2.29070221 -0.00702923 0.29924378
v -2.29294727 -0.00643121 0.30477792
v -2.29668736 -0.02707773 0.31330222
v -2.24776709 0.05639560 0.30687101
v -2.29458942 -0.03021981 0.30881705
v -2.30431466 -0.04023916 0.32796360
v -2.31583399 -0.04577823 0.34576706
v -2.31478494 -0.05086143 0.34457102
v -2.32570619 -0.04652331 0.35908045
v -2.32570619 -0.05205748 0.35908045
v -2.35891623 -0.04098914 0.39318741
v -2.36011224 -0.04637625 0.39393738
v -2.39197901 -0.03021981 0.42205919
v -2.39168012 -0.02887180 0.42176019
v -2.30730475 -0.08422331 0.34905619
v -1.99195507 0.00000000 0.18255566
v -2.11821652 0.14391295 0.23117691
v -1.99614614 0.17413275 0.18854077
v -2.12734368 0.21152884 0.24763237
v -2.23819377 0.14630504 0.25885264
v -2.24148290 0.17143675 0.27036707
v -2.18224428 0.22125408 0.27455814
v -2.25150718 0.18983823 0.29176356
v -2.26661467 0.19656845 0.31524825
v -2.26826165 0.19537240 0.31540020
v -2.28127602 0.19492633 0.33215468
v -2.28187409 0.18849024 0.33215468
v -2.30177058 0.18490209 0.35369333
v -2.25315416 0.18924020 0.29191063
v -2.24283098 0.17083873 0.27021999
v -2.23968882 0.14630504 0.25915168
v -2.24103690 0.11937927 0.25974968
v -2.24238001 0.11997729 0.25989675
v -2.24866405 0.09693867 0.27111703
v -2.25015924 0.09738964 0.27126900
v -2.26153146 0.08138025 0.28966558
v -2.25210526 0.10112974 0.27590614
v -2.26287458 0.08721343 0.29266060
v -2.18493533 0.07704213 0.26572994
v -2.25973738 0.08123320 0.28936658
v -2.27633991 0.07449807 0.31360124
v -2.27783496 0.07509610 0.31330222
v -2.29922649 0.07509610 0.34097798
v -2.29967746 0.07659116 0.34037994
v -2.31762807 0.07809111 0.35937945
v -2.31778000 0.07958618 0.35922750
v -2.36310729 0.10022781 0.40052054
v -2.31583399 0.08601739 0.35818341
v -2.30835380 0.06088568 0.35205121
v -2.36953844 0.05804262 0.40321165
v -2.36549931 0.09155156 0.40186364
v -2.39646429 0.05220943 0.42714729
v -2.39242516 0.10561492 0.42729435
v -2.41022852 0.12476148 0.44599485
v -2.38928796 0.11504114 0.42505421
v -2.39870934 0.13089858 0.43537258
v -2.23639970 0.23052836 0.31136111
v -2.26841358 0.23486647 0.33514479
v -2.28067794 0.19642139 0.33230173
v -2.30236865 0.19148525 0.35444332
v -2.36505331 0.16635354 0.40799584
v -2.30206962 0.19298030 0.35459037
v -2.36804340 0.17368179 0.41128988
v -2.38659194 0.15408425 0.42625027
v -2.39257709 0.15977038 0.43238245
v -2.38285185 0.19552435 0.42714729
v -2.34649979 0.22020509 0.39707945
v -2.31523592 0.23471942 0.37209482
v -2.39586622 0.14406000 0.43387751
v -2.40783651 0.14600603 0.44554878
v -2.41665982 0.15857433 0.45586715
v -2.41935583 0.14855008 0.45766612
v -2.27783496 0.08138025 0.31375319
v -2.29878049 0.08257629 0.33978192
v -2.24522299 0.12117334 0.26588190
v -2.24267891 0.14465802 0.26513189
v -2.24537493 0.16709862 0.27471009
v -2.25464920 0.18340703 0.29415568
v -2.26931069 0.18908826 0.31599822
v -2.40334641 0.17861794 0.44479879
v -2.40828251 0.17352984 0.44913693
v -2.41232164 0.16739764 0.45257802
v -2.30610875 0.23651350 0.36491363
v -2.29294727 -0.00643121 0.30477792
v -2.12300567 0.10815897 0.34861017
v -2.14633838 0.02872475 0.28323438
v -2.14619127 -0.01884755 0.27724927
v -2.14903441 0.00449008 0.36715869
vt 0.92330700 0.60884404
vt 0.93145502 0.60905802
vt 0.93340898 0.60856998
vt 0.93627697 0.60863101
vt 0.93191302 0.60905802
vt 0.93731499 0.60866100
vt 0.93823099 0.60869199
vt 0.93234003 0.60908800
vt 0.94048899 0.60893601
vt 0.93606400 0.60933304
vt 0.94201499 0.60927200
vt 0.94009203 0.60969901
vt 0.93612498 0.60957700
vt 0.93475097 0.60969901
vt 0.93746799 0.60969901
vt 0.93700999 0.60975999
vt 0.94116002 0.60994303
vt 0.93972600 0.61015701
vt 0.94149601 0.60988200
vt 0.99731398 0.80416298
vt 0.99594098 0.80449802
vt 0.99731398 0.80401003
vt 0.99591100 0.80434597
vt 0.99581897 0.80303401
vt 0.99420100 0.80324697
vt 0.99301100 0.78661501
vt 0.99050897 0.78701103
vt 0.99423200 0.80513901
vt 0.99423200 0.80501699
vt 0.99218702 0.80376601
vt 0.99072200 0.80593300
vt 0.98843300 0.78731698
vt 0.98803699 0.80416298
vt 0.98583901 0.78753000
vt 0.98544300 0.80434597
vt 0.98339802 0.78750002
vt 0.98217702 0.80431497
vt 0.98098701 0.78716397
vt 0.97894198 0.80388796
vt 0.99273700 0.80608499
vt 0.99270600 0.80596298
vt 0.99151599 0.80755001
vt 0.99145502 0.80745900
vt 0.99026501 0.81020498
vt 0.99020398 0.80999202
vt 0.98938000 0.81243300
vt 0.98718202 0.80953401
vt 0.98724300 0.81948298
vt 0.98522902 0.81045002
vt 0.98535103 0.82369500
vt 0.98333699 0.81054103
vt 0.98355103 0.82534301
vt 0.98217702 0.82488501
vt 0.98217702 0.82512903
vt 0.98114002 0.82366401
vt 0.98358101 0.82555598
vt 0.98535103 0.82400000
vt 0.98724300 0.81994098
vt 0.98944098 0.81273800
vt 0.93768102 0.61009598
vt 0.93267602 0.61009598
vt 0.93108898 0.61021799
vt 0.93420202 0.61021799
vt 0.93368298 0.61027896
vt 0.93823099 0.61061400
vt 0.93728399 0.61082804
vt 0.93731499 0.61024797
vt 0.93997002 0.61043096
vt 0.93865800 0.61049199
vt 0.99716198 0.80285001
vt 0.99462903 0.78640103
vt 0.98016298 0.74880201
vt 0.99029499 0.71541500
vt 0.98803699 0.71452999
vt 0.99157703 0.68596500
vt 0.99404901 0.68611699
vt 0.99215698 0.66713500
vt 0.99459797 0.66685998
vt 0.99151599 0.66261804
vt 0.99392700 0.66206896
vt 0.98834199 0.64592397
vt 0.98614502 0.64702296
vt 0.97503603 0.62486601
vt 0.97686702 0.62318802
vt 0.97067201 0.61790800
vt 0.97232002 0.61604702
vt 0.96877998 0.61540604
vt 0.97024399 0.61345303
vt 0.96777201 0.61122501
vt 0.96649098 0.61336100
vt 0.96319503 0.61125499
vt 0.96411002 0.60896599
vt 0.95944101 0.60991204
vt 0.95999002 0.60750103
vt 0.94790500 0.60548699
vt 0.94762999 0.60789800
vt 0.91726398 0.60463297
vt 0.91784400 0.60228300
vt 0.90194398 0.60377800
vt 0.90197498 0.60133696
vt 0.88659298 0.60423601
vt 0.88650203 0.60179400
vt 0.85616601 0.60673904
vt 0.85592198 0.60432696
vt 0.84429502 0.60844803
vt 0.84380603 0.60603702
vt 0.83965600 0.60737896
vt 0.84051001 0.60969901
vt 0.83715302 0.61171299
vt 0.83596301 0.60957700
vt 0.83342999 0.61174399
vt 0.83483398 0.61369699
vt 0.83129400 0.61430699
vt 0.83291101 0.61616898
vt 0.82442701 0.62492800
vt 0.82628900 0.62654501
vt 0.81673598 0.64485598
vt 0.81459999 0.64369601
vt 0.80864900 0.65968800
vt 0.81099898 0.66029799
vt 0.80782503 0.66444898
vt 0.81026602 0.66478503
vt 0.81035799 0.68358397
vt 0.80791700 0.68367600
vt 0.81148702 0.69948399
vt 0.80913699 0.70006400
vt 0.81490499 0.72493696
vt 0.81267703 0.72600496
vt 0.82015401 0.74663496
vt 0.97872901 0.78655398
vt 0.97561598 0.80297202
vt 0.97326601 0.80217898
vt 0.97299099 0.80339998
vt 0.97112900 0.80263698
vt 0.97112900 0.80269802
vt 0.97137398 0.80150801
vt 0.97598201 0.78566802
vt 0.79912698 0.69978899
vt 0.79775399 0.70018601
vt 0.80309498 0.71593404
vt 0.80126297 0.71645296
vt 0.80239302 0.71700203
vt 0.80105001 0.71779501
vt 0.79943198 0.71562898
vt 0.79851699 0.71782601
vt 0.79555601 0.70088804
vt 0.79430503 0.70128500
vt 0.79708201 0.71883297
vt 0.79943198 0.72081697
vt 0.80010402 0.71901596
vt 0.79787600 0.72606599
vt 0.79485500 0.71953499
vt 0.79638100 0.73070502
vt 0.79509902 0.73332900
vt 0.79274899 0.70165098
vt 0.79122299 0.70186496
vt 0.79262698 0.71993196
vt 0.79424399 0.73430598
vt 0.79314601 0.73470300
vt 0.79033798 0.71996200
vt 0.79201603 0.73442799
vt 0.78960502 0.70192599
vt 0.78807902 0.71968699
vt 0.78948301 0.73113203
vt 0.78743899 0.72673702
vt 0.79106998 0.73357296
vt 0.93008202 0.61018699
vt 0.92852598 0.61067498
vt 0.92602301 0.61073601
vt 0.92703003 0.61082804
vt 0.92446703 0.61128604
vt 0.93054003 0.61128604
vt 0.92999101 0.61143804
vt 0.93075401 0.61143804
vt 0.93072301 0.61149901
vt 0.92675602 0.61140800
vt 0.92333800 0.61140800
vt 0.92226899 0.61134696
vt 0.92159802 0.61189604
vt 0.92022502 0.61192703
vt 0.92138398 0.61204898
vt 0.92220801 0.61272001
vt 0.92846501 0.61268997
vt 0.92760998 0.61296403
vt 0.92843401 0.61186600
vt 0.92641997 0.61149901
vt 0.93148601 0.61177397
vt 0.93212700 0.61171299
vt 0.93057001 0.61195701
vt 0.93945098 0.61653501
vt 0.93520898 0.61504000
vt 0.92373401 0.61445999
vt 0.92935002 0.61455101
vt 0.92229998 0.61424601
vt 0.92733502 0.61339200
vt 0.92089599 0.61311698
vt 0.92791498 0.61241496
vt 0.92443597 0.61207902
vt 0.92446703 0.61198801
vt 0.93063098 0.61232299
vt 0.93099803 0.61226201
vt 0.93066198 0.61247599
vt 0.93118101 0.61134696
vt 0.93133301 0.61131597
vt 0.92989898 0.61092001
vt 0.93411100 0.61143804
vt 0.93514800 0.61122501
vt 0.93044800 0.61079699
vt 0.93374401 0.61082804
vt 0.93411100 0.61070597
vt 0.93438500 0.61085904
vt 0.93493497 0.61073601
vt 0.93435502 0.61088896
vt 0.93713200 0.61104202
vt 0.93545300 0.61113298
vt 0.93139398 0.61214000
vt 0.92834300 0.61198801
vt 0.97598201 0.78566802
vt 0.99301100 0.78661501
vt 0.97872901 0.78655398
vt 0.98339802 0.78750002
vt 0.98098701 0.78716397
vt 0.98843300 0.78731698
vt 0.99050897 0.78701103
vt 0.98202503 0.78737801
vt 0.98461902 0.78753000
vt 0.97872901 0.78655398
vt 0.99301100 0.78661501
vt 0.98220801 0.78591299
vt 0.98989803 0.78710300
vt 0.98712099 0.78743899
vt 0.79430503 0.70128500
vt 0.79555601 0.70088804
vt 0.79274899 0.70165098
vt 0.79912698 0.69978899
vt 0.78624803 0.70159000
vt 0.78453898 0.70128500
vt 0.78960502 0.70192599
vt 0.78807902 0.70183396
vt 0.93945098 0.61653501
vt 0.92373401 0.61445999
vt 0.93520898 0.61504000
vt 0.92935002 0.61455101
vt 0.92229998 0.61424601
vt 0.92733502 0.61339200
vt 0.92089599 0.61311698
vt 0.92760998 0.61296403
vt 0.92220801 0.61272001
vt 0.92022502 0.61192703
vt 0.92138398 0.61204898
vt 0.92159802 0.61189604
vt 0.92446703 0.61198801
vt 0.92834300 0.61198801
vt 0.93139398 0.61214000
vt 0.92846501 0.61268997
vt 0.92791498 0.61241496
vt 0.92443597 0.61207902
vt 0.93066198 0.61247599
vt 0.93063098 0.61232299
vt 0.93099803 0.61226201
vt 0.92226899 0.61134696
vt 0.92333800 0.61140800
vt 0.92843401 0.61186600
vt 0.92641997 0.61149901
vt 0.93057001 0.61195701
vt 0.93148601 0.61177397
vt 0.92675602 0.61140800
vt 0.92446703 0.61128604
vt 0.92602301 0.61073601
vt 0.93212700 0.61171299
vt 0.93295097 0.61159098
vt 0.93072301 0.61149901
vt 0.92999101 0.61143804
vt 0.93075401 0.61143804
vt 0.93054003 0.61128604
vt 0.93118101 0.61134696
vt 0.93133301 0.61131597
vt 0.92703003 0.61082804
vt 0.92989898 0.61092001
vt 0.93411100 0.61143804
vt 0.93044800 0.61079699
vt 0.93514800 0.61122501
vt 0.92852598 0.61067498
vt 0.93374401 0.61082804
vt 0.93435502 0.61088896
vt 0.93438500 0.61085904
vt 0.93713200 0.61104202
vt 0.93545300 0.61113298
vt 0.93008202 0.61018699
vt 0.93108898 0.61021799
vt 0.93411100 0.61070597
vt 0.93368298 0.61027896
vt 0.93499601 0.61067498
vt 0.93728399 0.61082804
vt 0.93420202 0.61021799
vt 0.93823099 0.61061400
vt 0.93267602 0.61009598
vt 0.93475097 0.60969901
vt 0.93768102 0.61009598
vt 0.93700999 0.60975999
vt 0.93972600 0.61015701
vt 0.94116002 0.60994303
vt 0.93606400 0.60933304
vt 0.93612498 0.60957700
vt 0.94009203 0.60969901
vt 0.93746799 0.60969901
vt 0.94149601 0.60988200
vt 0.93493497 0.61073601
vt 0.94201499 0.60927200
vt 0.94048899 0.60893601
vt 0.93234003 0.60908800
vt 0.93823099 0.60869199
vt 0.93191302 0.60905802
vt 0.93731499 0.60866100
vt 0.93627697 0.60863101
vt 0.93145502 0.60905802
vt 0.93340898 0.60856998
vt 0.92330700 0.60884404
vt 0.93731499 0.61024797
vt 0.93997002 0.61043096
vt 0.93865800 0.61049199
vt 0.78548503 0.72222102
vt 0.78643101 0.71932101
vt 0.78481400 0.72087801
vt 0.78511900 0.71819198
vt 0.78383702 0.71950400
vt 0.78362399 0.71791697
vt 0.78258598 0.71871102
vt 0.78194499 0.71767300
vt 0.78093803 0.71837497
vt 0.78041899 0.71748996
vt 0.78624803 0.70159000
vt 0.78453898 0.70128500
vt 0.78325802 0.70110202
vt 0.78212798 0.70094901
vt 0.78807902 0.70183396
vt 0.93295097 0.61159098
vt 0.93499601 0.61067498
vt 0.99731398 0.80416298
vt 0.99731398 0.80401003
vt 0.99594098 0.80449802
vt 0.99591100 0.80434597
vt 0.99423200 0.80513901
vt 0.99423200 0.80501699
vt 0.99273700 0.80608499
vt 0.99270600 0.80596298
vt 0.99151599 0.80755001
vt 0.99145502 0.80745900
vt 0.98986799 0.81148702
vt 0.98977602 0.81121200
vt 0.98821998 0.81652302
vt 0.98764002 0.80919802
vt 0.98623598 0.81008303
vt 0.98672402 0.80425400
vt 0.99581897 0.80303401
vt 0.99420100 0.80324697
vt 0.99240100 0.80382699
vt 0.99072200 0.80593300
vt 0.98901302 0.80785501
vt 0.99017298 0.80388796
vt 0.98989803 0.78710300
vt 0.98712099 0.78743899
vt 0.98461902 0.78753000
vt 0.98382503 0.80437601
vt 0.98217702 0.80434597
vt 0.98242098 0.81029701
vt 0.98068202 0.80931997
vt 0.97875899 0.81493598
vt 0.97805703 0.81148702
vt 0.97793502 0.81170100
vt 0.97714198 0.80877101
vt 0.98202503 0.78737801
vt 0.98056000 0.80419302
vt 0.97958302 0.80816102
vt 0.97723299 0.80864900
vt 0.97610402 0.80629897
vt 0.97827101 0.80648202
vt 0.97836202 0.80373502
vt 0.97872901 0.78655398
vt 0.97604299 0.80309498
vt 0.97723299 0.80510902
vt 0.97616500 0.80620700
vt 0.97521901 0.80281997
vt 0.97479200 0.80458999
vt 0.97476101 0.80474299
vt 0.97326601 0.80217898
vt 0.97299099 0.80339998
vt 0.97296101 0.80355203
vt 0.97112900 0.80263698
vt 0.97112900 0.80275899
vt 0.97137398 0.80150801
vt 0.98220801 0.78591299
vt 0.97296101 0.80346102
vt 0.97479200 0.80458999
vt 0.97476101 0.80474299
vt 0.97616500 0.80620700
vt 0.97610402 0.80629897
vt 0.97692800 0.80773300
vt 0.97683603 0.80785501
vt 0.97781301 0.81051099
vt 0.97769099 0.81069398
vt 0.97991902 0.81997097
vt 0.97982699 0.82033801
vt 0.97753799 0.80553603
vt 0.97912502 0.80758101
vt 0.98129201 0.80971700
vt 0.98114002 0.82332802
vt 0.97863698 0.81524098
vt 0.97991902 0.81997097
vt 0.98114002 0.82332802
vt 0.98263502 0.82519001
vt 0.98114002 0.82366401
vt 0.98263502 0.82540399
vt 0.97982699 0.82033801
vt 0.98831099 0.81676698
vt 0.98623598 0.82195497
vt 0.98632801 0.82210803
vt 0.98452699 0.82500702
vt 0.98449701 0.82476300
vt 0.98419100 0.81057203
vt 0.99716198 0.80285001
vt 0.98220801 0.78591299
vt 0.99301100 0.78661501
vt 0.96102798 0.62724698
vt 0.96542299 0.63823402
vt 0.96414101 0.62285197
vt 0.97030598 0.63554800
vt 0.97067201 0.61790800
vt 0.97503603 0.62486601
vt 0.95574802 0.62166202
vt 0.95825100 0.61623001
vt 0.95019400 0.61531401
vt 0.95944101 0.60991204
vt 0.94762999 0.60789800
vt 0.96319503 0.61125499
vt 0.96649098 0.61336100
vt 0.96877998 0.61540604
vt 0.98614502 0.64702296
vt 0.97256398 0.65443897
vt 0.97445601 0.66658497
vt 0.97195399 0.65456104
vt 0.97384602 0.66661596
vt 0.96932900 0.65504897
vt 0.97128201 0.66719604
vt 0.94918698 0.62312698
vt 0.94277799 0.62507999
vt 0.94348001 0.63295400
vt 0.93606400 0.64439797
vt 0.93807799 0.65123403
vt 0.93234003 0.66975904
vt 0.93295097 0.66975904
vt 0.93356103 0.68837500
vt 0.93588102 0.68804002
vt 0.93862700 0.69728696
vt 0.92458898 0.64235401
vt 0.92211699 0.62385899
vt 0.91698998 0.61247599
vt 0.91726398 0.60463297
vt 0.92602301 0.66942400
vt 0.93301201 0.68874204
vt 0.93664402 0.69850802
vt 0.94299102 0.70412302
vt 0.92437500 0.69277000
vt 0.91732502 0.67818201
vt 0.92175102 0.70363498
vt 0.88210702 0.72771400
vt 0.93633801 0.69902599
vt 0.94146502 0.70604599
vt 0.94173998 0.70561802
vt 0.94860703 0.70818198
vt 0.99151599 0.66261804
vt 0.99215698 0.66713500
vt 0.99157703 0.68596500
vt 0.97546297 0.67885399
vt 0.97476101 0.69158000
vt 0.97485298 0.67873204
vt 0.97424197 0.69103098
vt 0.97232002 0.67851800
vt 0.97189200 0.69029796
vt 0.97048903 0.70107102
vt 0.97082400 0.70155901
vt 0.98803699 0.71452999
vt 0.96374398 0.70870101
vt 0.96340799 0.70833504
vt 0.96853501 0.69984996
vt 0.96237099 0.70662600
vt 0.95571798 0.71114200
vt 0.95574802 0.71160001
vt 0.98016298 0.74880201
vt 0.94790500 0.71044004
vt 0.94998002 0.75573003
vt 0.96432400 0.80190396
vt 0.94811898 0.71004403
vt 0.95541197 0.70918900
vt 0.90194398 0.60377800
vt 0.90600300 0.61342204
vt 0.90933001 0.61687100
vt 0.90582001 0.61378801
vt 0.90884101 0.61714500
vt 0.90182197 0.61253703
vt 0.90182197 0.61195701
vt 0.89761001 0.61333001
vt 0.88665402 0.61207902
vt 0.88659298 0.60423601
vt 0.85616601 0.60673904
vt 0.89422297 0.61668801
vt 0.89779401 0.61369699
vt 0.88967597 0.62614799
vt 0.89468098 0.61696196
vt 0.89019400 0.62633097
vt 0.88253403 0.64250600
vt 0.88518900 0.64317799
vt 0.88067299 0.66441798
vt 0.88323599 0.66396099
vt 0.88323599 0.67339098
vt 0.88500601 0.67238402
vt 0.88735598 0.68037999
vt 0.88863802 0.67885399
vt 0.89416200 0.68495703
vt 0.89471102 0.68303502
vt 0.90337801 0.68620896
vt 0.90322602 0.68416399
vt 0.91058099 0.68153900
vt 0.87850600 0.69762301
vt 0.91146600 0.68334001
vt 0.91558599 0.67632103
vt 0.91842401 0.66869104
vt 0.92031598 0.66951501
vt 0.91937000 0.66237402
vt 0.92150599 0.66252601
vt 0.91769201 0.64360499
vt 0.91982800 0.64311701
vt 0.91360199 0.62648404
vt 0.91308302 0.62663698
vt 0.93545300 0.67021704
vt 0.89934999 0.80663502
vt 0.84411103 0.75801897
vt 0.83449799 0.80010402
vt 0.82015401 0.74663496
vt 0.84557599 0.71010500
vt 0.83764201 0.70699203
vt 0.81490499 0.72493696
vt 0.83071399 0.69969797
vt 0.82702100 0.68959600
vt 0.82757002 0.68907702
vt 0.82699102 0.68083704
vt 0.82949299 0.68053198
vt 0.83059198 0.66905701
vt 0.83108002 0.69917899
vt 0.83797699 0.70665598
vt 0.84560698 0.70967698
vt 0.85342002 0.70918900
vt 0.85320598 0.70882297
vt 0.85995102 0.70500803
vt 0.85970598 0.70458102
vt 0.86492503 0.69759202
vt 0.85848600 0.70305502
vt 0.86300200 0.69637096
vt 0.87102902 0.72530299
vt 0.86523002 0.69814098
vt 0.86877000 0.68794799
vt 0.86825198 0.68755102
vt 0.87008297 0.67418396
vt 0.86947203 0.67415404
vt 0.86968601 0.66371703
vt 0.86910599 0.66371703
vt 0.86217803 0.63939297
vt 0.86648202 0.66432703
vt 0.87624699 0.66878301
vt 0.87868899 0.63731802
vt 0.86559600 0.63850796
vt 0.88125199 0.62334096
vt 0.86056101 0.62404299
vt 0.85342002 0.61406302
vt 0.85692900 0.62538499
vt 0.85100901 0.61995304
vt 0.81148702 0.69948399
vt 0.81035799 0.68358397
vt 0.82638001 0.68092901
vt 0.82802802 0.66872203
vt 0.83767200 0.63658601
vt 0.82741803 0.66875201
vt 0.83483398 0.63487697
vt 0.84231102 0.62568998
vt 0.84011400 0.62245601
vt 0.82628900 0.62654501
vt 0.81673598 0.64485598
vt 0.81099898 0.66029799
vt 0.84603399 0.62111300
vt 0.84533203 0.61479497
vt 0.84051001 0.60969901
vt 0.84429502 0.60844803
vt 0.86593199 0.68718499
vt 0.86706102 0.67433703
vt 0.85280901 0.70693099
vt 0.84597301 0.70772398
vt 0.83904499 0.70494699
vt 0.83306402 0.69801903
vt 0.82991999 0.68840599
vt 0.83291101 0.61616898
vt 0.83483398 0.61369699
vt 0.83715302 0.61171299
vt 0.81026602 0.66478503
vt 0.80370498 0.71660501
vt 0.98583901 0.78753000
vt 0.79775399 0.70018601
vt 0.78325802 0.70110202
vt 0.79122299 0.70186496
f 1/1 2/2 3/3
f 3/3 2/2 4/4
f 2/2 5/5 4/4
f 4/4 5/5 6/6
f 6/6 5/5 7/7
f 7/7 5/5 8/8
f 7/7 8/8 9/9
f 9/9 8/8 10/10
f 9/9 10/10 11/11
f 11/11 10/10 12/12
f 12/12 10/10 13/13
f 13/13 10/10 14/14
f 13/13 14/14 15/15
f 15/15 14/14 16/16
f 15/15 16/16 17/17
f 17/17 16/16 18/18
f 17/17 19/19 15/15
f 15/15 19/19 12/12
f 15/15 12/12 13/13
f 20/20 21/21 22/22
f 22/22 21/21 23/23
f 22/22 23/23 24/24
f 24/24 23/23 25/25
f 24/24 25/25 26/26
f 26/26 25/25 27/27
f 21/21 28/28 23/23
f 23/23 28/28 29/29
f 23/23 29/29 25/25
f 25/25 29/29 30/30
f 25/25 30/30 27/27
f 27/27 30/30 31/31
f 27/27 31/31 32/32
f 32/32 31/31 33/33
f 32/32 33/33 34/34
f 34/34 33/33 35/35
f 34/34 35/35 36/36
f 36/36 35/35 37/37
f 36/36 37/37 38/38
f 38/38 37/37 39/39
f 28/28 40/40 29/29
f 29/29 40/40 41/41
f 29/29 41/41 30/30
f 30/30 41/41 31/31
f 40/40 42/42 41/41
f 41/41 42/42 43/43
f 41/41 43/43 31/31
f 31/31 43/43 33/33
f 42/42 44/44 43/43
f 43/43 44/44 45/45
f 43/43 45/45 33/33
f 33/33 45/45 46/46
f 33/33 46/46 47/47
f 47/47 46/46 48/48
f 47/47 48/48 49/49
f 49/49 48/48 50/50
f 49/49 50/50 51/51
f 51/51 50/50 52/52
f 51/51 52/52 53/53
f 53/53 52/52 54/54
f 53/53 54/54 55/55
f 54/54 52/52 56/56
f 56/56 52/52 50/50
f 56/56 50/50 57/57
f 57/57 50/50 48/48
f 57/57 48/48 58/58
f 58/58 48/48 59/59
f 48/48 46/46 59/59
f 59/59 46/46 45/45
f 59/59 45/45 44/44
f 18/18 16/16 60/60
f 60/60 16/16 14/14
f 60/60 14/14 61/61
f 61/61 14/14 62/62
f 61/61 62/62 63/63
f 63/63 62/62 64/64
f 63/63 64/64 65/65
f 65/65 64/64 66/66
f 60/60 61/61 67/67
f 67/67 61/61 63/63
f 67/67 63/63 68/68
f 68/68 63/63 69/69
f 22/22 24/24 70/70
f 70/70 24/24 71/71
f 72/72 73/73 74/74
f 74/74 73/73 75/75
f 73/73 76/76 75/75
f 75/75 76/76 77/77
f 76/76 78/78 77/77
f 77/77 78/78 79/79
f 78/78 80/80 79/79
f 79/79 80/80 81/81
f 79/79 81/81 82/82
f 82/82 81/81 83/83
f 81/81 84/84 83/83
f 83/83 84/84 85/85
f 84/84 86/86 85/85
f 85/85 86/86 87/87
f 86/86 88/88 87/87
f 87/87 88/88 89/89
f 87/87 89/89 90/90
f 90/90 89/89 91/91
f 89/89 92/92 91/91
f 91/91 92/92 93/93
f 92/92 94/94 93/93
f 93/93 94/94 95/95
f 93/93 95/95 96/96
f 96/96 95/95 97/97
f 95/95 98/98 97/97
f 97/97 98/98 99/99
f 98/98 100/100 99/99
f 99/99 100/100 101/101
f 100/100 102/102 101/101
f 101/101 102/102 103/103
f 102/102 104/104 103/103
f 103/103 104/104 105/105
f 104/104 106/106 105/105
f 105/105 106/106 107/107
f 105/105 107/107 108/108
f 108/108 107/107 109/109
f 107/107 110/110 109/109
f 109/109 110/110 111/111
f 109/109 111/111 112/112
f 112/112 111/111 113/113
f 112/112 113/113 114/114
f 114/114 113/113 115/115
f 114/114 115/115 116/116
f 116/116 115/115 117/117
f 115/115 118/118 117/117
f 117/117 118/118 119/119
f 117/117 119/119 120/120
f 120/120 119/119 121/121
f 120/120 121/121 122/122
f 122/122 121/121 123/123
f 121/121 124/124 123/123
f 123/123 124/124 125/125
f 124/124 126/126 125/125
f 125/125 126/126 127/127
f 126/126 128/128 127/127
f 127/127 128/128 129/129
f 38/38 39/39 130/130
f 130/130 39/39 131/131
f 130/130 131/131 132/132
f 132/132 131/131 133/133
f 132/132 133/133 134/134
f 134/134 133/133 135/135
f 134/134 136/136 132/132
f 132/132 136/136 137/137
f 132/132 137/137 130/130
f 138/138 139/139 140/140
f 140/140 139/139 141/141
f 140/140 141/141 142/142
f 142/142 141/141 143/143
f 143/143 141/141 144/144
f 144/144 141/141 139/139
f 144/144 139/139 145/145
f 145/145 139/139 146/146
f 145/145 146/146 147/147
f 147/147 148/148 145/145
f 145/145 148/148 149/149
f 145/145 149/149 144/144
f 144/144 149/149 150/150
f 144/144 150/150 143/143
f 149/149 148/148 151/151
f 151/151 148/148 152/152
f 151/151 152/152 153/153
f 153/153 152/152 154/154
f 152/152 148/148 155/155
f 155/155 148/148 147/147
f 155/155 156/156 152/152
f 152/152 156/156 157/157
f 152/152 157/157 158/158
f 158/158 157/157 159/159
f 156/156 160/160 157/157
f 157/157 160/160 161/161
f 157/157 161/161 159/159
f 156/156 162/162 160/160
f 160/160 162/162 163/163
f 160/160 163/163 164/164
f 164/164 163/163 165/165
f 164/164 166/166 160/160
f 160/160 166/166 161/161
f 10/10 167/167 14/14
f 14/14 167/167 62/62
f 62/62 167/167 168/168
f 168/168 167/167 169/169
f 168/168 169/169 170/170
f 170/170 169/169 171/171
f 170/170 171/171 172/172
f 172/172 171/171 173/173
f 172/172 173/173 174/174
f 174/174 173/173 175/175
f 175/175 173/173 176/176
f 176/176 173/173 171/171
f 176/176 171/171 177/177
f 177/177 171/171 178/178
f 177/177 178/178 179/179
f 179/179 178/178 180/180
f 179/179 180/180 181/181
f 181/181 180/180 182/182
f 181/181 182/182 183/183
f 183/183 182/182 184/184
f 179/179 185/185 177/177
f 177/177 185/185 186/186
f 177/177 186/186 176/176
f 176/176 186/186 187/187
f 176/176 187/187 188/188
f 187/187 186/186 189/189
f 189/189 186/186 185/185
f 190/190 191/191 192/192
f 192/192 191/191 193/193
f 192/192 193/193 194/194
f 194/194 193/193 195/195
f 194/194 195/195 196/196
f 196/196 195/195 184/184
f 196/196 184/184 182/182
f 183/183 197/197 181/181
f 181/181 197/197 198/198
f 181/181 198/198 199/199
f 199/199 198/198 200/200
f 199/199 200/200 201/201
f 200/200 198/198 202/202
f 202/202 198/198 197/197
f 174/174 203/203 172/172
f 172/172 203/203 204/204
f 172/172 204/204 205/205
f 205/205 204/204 206/206
f 205/205 206/206 207/207
f 207/207 208/208 205/205
f 205/205 208/208 170/170
f 205/205 170/170 172/172
f 170/170 208/208 168/168
f 168/168 208/208 209/209
f 168/168 209/209 210/210
f 210/210 209/209 211/211
f 210/210 211/211 212/212
f 211/211 209/209 213/213
f 213/213 209/209 208/208
f 213/213 208/208 214/214
f 214/214 208/208 215/215
f 201/201 216/216 199/199
f 199/199 216/216 217/217
f 199/199 217/217 179/179
f 179/179 217/217 185/185
f 218/218 219/219 220/220
f 220/220 219/219 221/221
f 220/220 221/221 222/222
f 221/221 219/219 223/223
f 223/223 219/219 224/224
f 225/225 226/226 227/227
f 227/227 226/226 228/228
f 227/227 228/228 229/229
f 228/228 226/226 230/230
f 230/230 226/226 231/231
f 232/232 233/233 234/234
f 234/234 233/233 235/235
f 234/234 235/235 236/236
f 236/236 235/235 237/237
f 234/234 236/236 238/238
f 238/238 236/236 239/239
f 240/240 241/241 242/242
f 242/242 241/241 243/243
f 241/241 244/244 243/243
f 243/243 244/244 245/245
f 244/244 246/246 245/245
f 245/245 246/246 247/247
f 247/247 246/246 248/248
f 248/248 246/246 249/249
f 248/248 249/249 250/250
f 250/250 249/249 251/251
f 250/250 251/251 252/252
f 252/252 251/251 253/253
f 252/252 253/253 254/254
f 247/247 248/248 255/255
f 255/255 248/248 250/250
f 255/255 250/250 256/256
f 256/256 250/250 257/257
f 256/256 257/257 258/258
f 258/258 257/257 259/259
f 250/250 252/252 257/257
f 257/257 252/252 259/259
f 259/259 252/252 260/260
f 260/260 252/252 254/254
f 249/249 261/261 251/251
f 251/251 261/261 262/262
f 251/251 262/262 263/263
f 263/263 262/262 264/264
f 263/263 264/264 265/265
f 265/265 264/264 266/266
f 266/266 264/264 267/267
f 267/267 264/264 262/262
f 267/267 262/262 268/268
f 268/268 262/262 261/261
f 268/268 261/261 269/269
f 266/266 267/267 270/270
f 270/270 267/267 271/271
f 271/271 267/267 272/272
f 272/272 267/267 273/273
f 272/272 273/273 274/274
f 274/274 273/273 275/275
f 274/274 275/275 276/276
f 276/276 275/275 277/277
f 267/267 268/268 273/273
f 273/273 268/268 275/275
f 268/268 278/278 275/275
f 275/275 278/278 279/279
f 275/275 279/279 277/277
f 277/277 279/279 280/280
f 278/278 281/281 279/279
f 279/279 281/281 282/282
f 279/279 282/282 280/280
f 278/278 283/283 281/281
f 281/281 283/283 284/284
f 281/281 284/284 285/285
f 285/285 284/284 286/286
f 285/285 287/287 281/281
f 281/281 287/287 288/288
f 281/281 288/288 282/282
f 268/268 269/269 278/278
f 278/278 269/269 283/283
f 269/269 289/289 283/283
f 283/283 289/289 290/290
f 283/283 290/290 291/291
f 291/291 290/290 292/292
f 291/291 292/292 293/293
f 293/293 292/292 294/294
f 290/290 295/295 292/292
f 292/292 295/295 296/296
f 292/292 296/296 294/294
f 295/295 290/290 297/297
f 297/297 290/290 298/298
f 297/297 298/298 299/299
f 299/299 298/298 300/300
f 299/299 300/300 301/301
f 301/301 300/300 302/302
f 290/290 289/289 298/298
f 298/298 289/289 303/303
f 298/298 303/303 304/304
f 304/304 303/303 305/305
f 304/304 305/305 306/306
f 306/306 305/305 307/307
f 306/306 307/307 302/302
f 302/302 300/300 306/306
f 306/306 300/300 298/298
f 306/306 298/298 304/304
f 293/293 308/308 291/291
f 291/291 308/308 286/286
f 291/291 286/286 284/284
f 305/305 303/303 309/309
f 309/309 303/303 310/310
f 303/303 311/311 310/310
f 310/310 311/311 312/312
f 311/311 313/313 312/312
f 312/312 313/313 314/314
f 314/314 313/313 315/315
f 315/315 313/313 316/316
f 315/315 316/316 317/317
f 317/317 316/316 318/318
f 299/299 319/319 297/297
f 297/297 319/319 295/295
f 319/319 320/320 295/295
f 295/295 320/320 321/321
f 295/295 321/321 296/296
f 165/165 163/163 322/322
f 322/322 163/163 323/323
f 322/322 323/323 324/324
f 324/324 323/323 325/325
f 324/324 325/325 326/326
f 326/326 325/325 327/327
f 326/326 327/327 328/328
f 328/328 327/327 329/329
f 328/328 329/329 330/330
f 330/330 329/329 331/331
f 325/325 332/332 327/327
f 327/327 332/332 333/333
f 327/327 333/333 329/329
f 329/329 333/333 334/334
f 329/329 334/334 331/331
f 331/331 334/334 335/335
f 325/325 323/323 332/332
f 332/332 323/323 336/336
f 323/323 163/163 336/336
f 336/336 163/163 162/162
f 175/175 176/176 337/337
f 337/337 176/176 188/188
f 66/66 64/64 338/338
f 338/338 64/64 210/210
f 338/338 210/210 212/212
f 64/64 62/62 210/210
f 210/210 62/62 168/168
f 339/339 340/340 341/341
f 341/341 340/340 342/342
f 341/341 342/342 343/343
f 343/343 342/342 344/344
f 343/343 344/344 345/345
f 345/345 344/344 346/346
f 345/345 346/346 347/347
f 347/347 346/346 348/348
f 347/347 348/348 349/349
f 349/349 348/348 350/350
f 349/349 350/350 351/351
f 351/351 350/350 352/352
f 351/351 352/352 353/353
f 353/353 352/352 354/354
f 340/340 355/355 342/342
f 342/342 355/355 356/356
f 342/342 356/356 344/344
f 344/344 356/356 357/357
f 344/344 357/357 346/346
f 346/346 357/357 358/358
f 346/346 358/358 348/348
f 348/348 358/358 359/359
f 348/348 359/359 350/350
f 350/350 359/359 352/352
f 358/358 360/360 359/359
f 359/359 360/360 354/354
f 359/359 354/354 352/352
f 358/358 357/357 360/360
f 360/360 357/357 361/361
f 360/360 361/361 362/362
f 360/360 362/362 354/354
f 354/354 362/362 363/363
f 354/354 363/363 364/364
f 364/364 363/363 365/365
f 364/364 365/365 366/366
f 366/366 365/365 367/367
f 366/366 367/367 368/368
f 368/368 367/367 369/369
f 368/368 369/369 370/370
f 370/370 369/369 371/371
f 363/363 372/372 365/365
f 365/365 372/372 373/373
f 365/365 373/373 367/367
f 367/367 373/373 374/374
f 367/367 374/374 369/369
f 369/369 374/374 375/375
f 369/369 375/375 371/371
f 371/371 375/375 376/376
f 375/375 374/374 377/377
f 377/377 374/374 373/373
f 377/377 373/373 378/378
f 378/378 373/373 372/372
f 378/378 372/372 379/379
f 379/379 380/380 378/378
f 378/378 380/380 381/381
f 378/378 381/381 377/377
f 377/377 381/381 382/382
f 377/377 382/382 375/375
f 375/375 382/382 376/376
f 379/379 383/383 380/380
f 380/380 383/383 384/384
f 380/380 384/384 382/382
f 382/382 384/384 385/385
f 382/382 385/385 376/376
f 379/379 386/386 383/383
f 383/383 386/386 387/387
f 383/383 387/387 384/384
f 384/384 387/387 388/388
f 384/384 388/388 385/385
f 386/386 389/389 387/387
f 387/387 389/389 390/390
f 387/387 390/390 388/388
f 389/389 386/386 391/391
f 391/391 386/386 392/392
f 135/135 133/133 393/393
f 393/393 133/133 394/394
f 393/393 394/394 395/395
f 395/395 394/394 396/396
f 395/395 396/396 397/397
f 397/397 396/396 398/398
f 397/397 398/398 399/399
f 399/399 398/398 400/400
f 399/399 400/400 401/401
f 401/401 400/400 402/402
f 401/401 402/402 403/403
f 403/403 402/402 55/55
f 394/394 131/131 396/396
f 396/396 131/131 404/404
f 396/396 404/404 398/398
f 398/398 404/404 405/405
f 398/398 405/405 400/400
f 400/400 405/405 406/406
f 400/400 406/406 402/402
f 402/402 406/406 407/407
f 402/402 407/407 55/55
f 55/55 407/407 53/53
f 406/406 405/405 39/39
f 39/39 405/405 404/404
f 39/39 404/404 131/131
f 39/39 37/37 406/406
f 406/406 37/37 51/51
f 406/406 51/51 53/53
f 37/37 35/35 51/51
f 51/51 35/35 49/49
f 49/49 35/35 47/47
f 47/47 35/35 33/33
f 370/370 408/408 368/368
f 368/368 408/408 409/409
f 368/368 409/409 366/366
f 366/366 409/409 410/410
f 366/366 410/410 411/411
f 411/411 410/410 412/412
f 411/411 412/412 413/413
f 408/408 414/414 409/409
f 409/409 414/414 412/412
f 409/409 412/412 410/410
f 349/349 351/351 415/415
f 415/415 351/351 416/416
f 415/415 416/416 417/417
f 417/417 416/416 418/418
f 416/416 419/419 418/418
f 418/418 419/419 413/413
f 419/419 416/416 420/420
f 420/420 416/416 353/353
f 420/420 353/353 364/364
f 364/364 353/353 354/354
f 420/420 366/366 419/419
f 419/419 366/366 411/411
f 419/419 411/411 413/413
f 340/340 421/421 355/355
f 355/355 421/421 422/422
f 355/355 422/422 423/423
f 355/355 423/423 356/356
f 356/356 423/423 357/357
f 424/424 425/425 426/426
f 426/426 425/425 427/427
f 426/426 427/427 428/428
f 428/428 427/427 429/429
f 424/424 426/426 430/430
f 430/430 426/426 431/431
f 430/430 431/431 432/432
f 432/432 431/431 433/433
f 432/432 433/433 434/434
f 431/431 426/426 433/433
f 433/433 426/426 435/435
f 435/435 426/426 436/436
f 436/436 426/426 437/437
f 429/429 427/427 438/438
f 438/438 427/427 439/439
f 438/438 439/439 440/440
f 440/440 439/439 441/441
f 440/440 441/441 442/442
f 442/442 441/441 443/443
f 442/442 443/443 444/444
f 439/439 427/427 441/441
f 441/441 427/427 425/425
f 441/441 425/425 443/443
f 430/430 432/432 445/445
f 445/445 432/432 446/446
f 445/445 446/446 447/447
f 447/447 446/446 448/448
f 447/447 448/448 449/449
f 449/449 448/448 450/450
f 449/449 450/450 451/451
f 451/451 450/450 452/452
f 451/451 452/452 453/453
f 453/453 452/452 454/454
f 450/450 448/448 455/455
f 455/455 448/448 446/446
f 455/455 446/446 456/456
f 456/456 446/446 432/432
f 456/456 432/432 457/457
f 457/457 432/432 434/434
f 457/457 434/434 458/458
f 455/455 459/459 450/450
f 450/450 459/459 460/460
f 450/450 460/460 452/452
f 452/452 460/460 461/461
f 452/452 461/461 454/454
f 454/454 461/461 462/462
f 460/460 459/459 463/463
f 463/463 459/459 464/464
f 463/463 464/464 465/465
f 465/465 464/464 466/466
f 465/465 466/466 467/467
f 467/467 466/466 468/468
f 467/467 468/468 461/461
f 461/461 468/468 469/469
f 461/461 469/469 462/462
f 462/462 469/469 470/470
f 461/461 460/460 467/467
f 467/467 460/460 463/463
f 467/467 463/463 465/465
f 438/438 440/440 471/471
f 471/471 440/440 472/472
f 472/472 440/440 473/473
f 473/473 440/440 474/474
f 473/473 474/474 475/475
f 475/475 474/474 476/476
f 475/475 476/476 477/477
f 477/477 476/476 478/478
f 477/477 478/478 479/479
f 479/479 480/480 477/477
f 477/477 480/480 481/481
f 477/477 481/481 475/475
f 475/475 481/481 482/482
f 475/475 482/482 473/473
f 482/482 481/481 483/483
f 483/483 481/481 480/480
f 483/483 480/480 484/484
f 484/484 480/480 485/485
f 484/484 485/485 486/486
f 486/486 487/487 484/484
f 484/484 487/487 488/488
f 484/484 488/488 483/483
f 483/483 488/488 489/489
f 483/483 489/489 482/482
f 487/487 490/490 488/488
f 488/488 490/490 491/491
f 488/488 491/491 489/489
f 489/489 491/491 492/492
f 492/492 491/491 466/466
f 466/466 491/491 490/490
f 466/466 490/490 468/468
f 468/468 490/490 493/493
f 468/468 493/493 469/469
f 469/469 493/493 470/470
f 490/490 487/487 493/493
f 493/493 487/487 494/494
f 493/493 494/494 470/470
f 458/458 495/495 457/457
f 457/457 495/495 496/496
f 457/457 496/496 497/497
f 497/497 496/496 498/498
f 497/497 498/498 499/499
f 498/498 496/496 500/500
f 500/500 496/496 501/501
f 500/500 501/501 502/502
f 502/502 501/501 495/495
f 502/502 495/495 503/503
f 503/503 495/495 504/504
f 503/503 504/504 505/505
f 503/503 506/506 502/502
f 502/502 506/506 507/507
f 502/502 507/507 500/500
f 503/503 508/508 506/506
f 506/506 508/508 509/509
f 506/506 509/509 507/507
f 509/509 508/508 510/510
f 510/510 508/508 511/511
f 510/510 511/511 512/512
f 512/512 511/511 513/513
f 512/512 513/513 514/514
f 514/514 513/513 515/515
f 514/514 515/515 516/516
f 516/516 515/515 517/517
f 516/516 517/517 518/518
f 518/518 517/517 519/519
f 518/518 519/519 520/520
f 520/520 519/519 521/521
f 520/520 521/521 522/522
f 522/522 521/521 523/523
f 517/517 524/524 519/519
f 519/519 524/524 466/466
f 519/519 466/466 521/521
f 521/521 466/466 525/525
f 521/521 525/525 523/523
f 523/523 525/525 526/526
f 466/466 464/464 525/525
f 525/525 464/464 526/526
f 526/526 464/464 527/527
f 527/527 464/464 528/528
f 527/527 528/528 529/529
f 529/529 528/528 530/530
f 529/529 530/530 531/531
f 531/531 530/530 532/532
f 531/531 532/532 533/533
f 533/533 532/532 455/455
f 533/533 455/455 456/456
f 455/455 532/532 459/459
f 459/459 532/532 530/530
f 459/459 530/530 528/528
f 457/457 497/497 456/456
f 456/456 497/497 533/533
f 533/533 497/497 534/534
f 534/534 497/497 499/499
f 440/440 442/442 474/474
f 474/474 442/442 476/476
f 442/442 444/444 476/476
f 476/476 444/444 478/478
f 449/449 451/451 535/535
f 535/535 451/451 453/453
f 492/492 466/466 536/536
f 536/536 466/466 537/537
f 536/536 537/537 538/538
f 538/538 537/537 539/539
f 537/537 540/540 539/539
f 539/539 540/540 541/541
f 539/539 541/541 542/542
f 542/542 541/541 543/543
f 542/542 543/543 544/544
f 544/544 543/543 545/545
f 544/544 545/545 546/546
f 546/546 545/545 547/547
f 546/546 547/547 548/548
f 545/545 543/543 549/549
f 549/549 543/543 541/541
f 549/549 541/541 550/550
f 550/550 541/541 540/540
f 550/550 540/540 551/551
f 551/551 540/540 552/552
f 551/551 552/552 553/553
f 553/553 552/552 554/554
f 553/553 554/554 555/555
f 555/555 554/554 556/556
f 555/555 556/556 557/557
f 557/557 556/556 558/558
f 540/540 537/537 552/552
f 552/552 537/537 559/559
f 552/552 559/559 554/554
f 554/554 559/559 560/560
f 554/554 560/560 556/556
f 556/556 560/560 561/561
f 556/556 561/561 562/562
f 562/562 561/561 563/563
f 562/562 563/563 564/564
f 564/564 563/563 565/565
f 564/564 565/565 566/566
f 566/566 565/565 567/567
f 566/566 567/567 568/568
f 537/537 466/466 559/559
f 559/559 466/466 524/524
f 559/559 524/524 560/560
f 560/560 524/524 561/561
f 524/524 569/569 561/561
f 561/561 569/569 563/563
f 563/563 569/569 565/565
f 565/565 569/569 570/570
f 565/565 570/570 571/571
f 571/571 570/570 572/572
f 571/571 572/572 573/573
f 573/573 572/572 574/574
f 573/573 574/574 575/575
f 575/575 574/574 576/576
f 565/565 571/571 567/567
f 567/567 571/571 573/573
f 567/567 573/573 575/575
f 542/542 544/544 577/577
f 577/577 544/544 578/578
f 578/578 544/544 579/579
f 579/579 544/544 546/546
f 579/579 546/546 580/580
f 580/580 546/546 548/548
f 580/580 548/548 581/581
f 578/578 579/579 582/582
f 582/582 579/579 580/580
f 582/582 580/580 583/583
f 583/583 580/580 581/581
f 583/583 581/581 584/584
f 584/584 585/585 583/583
f 583/583 585/585 586/586
f 583/583 586/586 582/582
f 582/582 586/586 587/587
f 582/582 587/587 588/588
f 584/584 589/589 585/585
f 585/585 589/589 590/590
f 585/585 590/590 591/591
f 591/591 590/590 592/592
f 589/589 576/576 590/590
f 590/590 576/576 574/574
f 590/590 574/574 592/592
f 592/592 574/574 505/505
f 505/505 574/574 503/503
f 503/503 574/574 572/572
f 503/503 572/572 508/508
f 508/508 572/572 511/511
f 572/572 570/570 511/511
f 511/511 570/570 569/569
f 511/511 569/569 513/513
f 513/513 569/569 515/515
f 569/569 524/524 515/515
f 515/515 524/524 517/517
f 556/556 562/562 558/558
f 558/558 562/562 593/593
f 562/562 564/564 593/593
f 593/593 564/564 594/594
f 564/564 566/566 594/594
f 594/594 566/566 568/568
f 557/557 595/595 555/555
f 555/555 595/595 553/553
f 595/595 596/596 553/553
f 553/553 596/596 551/551
f 596/596 597/597 551/551
f 551/551 597/597 550/550
f 597/597 598/598 550/550
f 550/550 598/598 549/549
f 598/598 599/599 549/549
f 549/549 599/599 545/545
f 586/586 585/585 600/600
f 600/600 585/585 601/601
f 601/601 585/585 602/602
f 602/602 585/585 591/591
f 588/588 603/603 582/582
f 582/582 603/603 578/578
f 65/65 69/69 63/63
f 207/207 215/215 208/208
f 199/199 179/179 181/181
f 171/171 169/169 178/178
f 180/180 196/196 182/182
f 291/291 284/284 283/283
f 263/263 253/253 251/251
f 158/158 154/154 152/152
f 142/142 604/604 140/140
f 131/131 394/394 133/133
f 406/406 53/53 407/407
f 353/353 416/416 351/351
f 380/380 382/382 381/381
f 366/366 420/420 364/364
f 428/428 437/437 426/426
f 501/501 496/496 495/495
f 533/533 534/534 531/531
f 545/545 599/599 547/547
f 486/486 494/494 487/487
f 479/479 485/485 480/480
f 459/459 528/528 464/464
f 379/379 392/392 386/386
f 24/24 26/26 71/71
f 423/423 361/361 357/357
f 223/223 605/605 221/221
f 233/233 606/606 235/235
f 235/235 607/607 237/237
f 608/608 234/234 238/238

