# Objaverse 78f76d386a4341b0b71745bdc50fd5ab; source material M_License
v -2.539714670 -0.157256358 0.337442729
v -2.610417528 -0.157256358 0.477107880
v -2.610417528 0.157256358 0.477107880
v -2.539714670 0.157256358 0.337442729
v 2.611240201 0.157256339 0.492135194
v 2.579968282 0.157256339 0.645729625
v 2.579968282 -0.157256339 0.645729625
v 2.611240201 -0.157256339 0.492135194
v -2.537386229 -0.157256358 0.338621474
v -2.537386229 0.157256358 0.338621474
v -2.608089089 0.157256358 0.478286606
v -2.608089089 -0.157256358 0.478286606
v -2.539714670 0.157256358 0.337442729
v -2.537386229 0.157256358 0.338621474
v -2.537386229 -0.157256358 0.338621474
v -2.539714670 -0.157256358 0.337442729
v -2.610417528 0.157256358 0.477107880
v -2.608089089 0.157256358 0.478286606
v -2.537386229 0.157256358 0.338621474
v -2.539714670 0.157256358 0.337442729
v -2.539714670 -0.157256358 0.337442729
v -2.537386229 -0.157256358 0.338621474
v -2.608089089 -0.157256358 0.478286606
v -2.610417528 -0.157256358 0.477107880
v -2.610417528 -0.157256358 0.477107880
v -2.608089089 -0.157256358 0.478286606
v -2.608089089 0.157256358 0.478286606
v -2.610417528 0.157256358 0.477107880
v 2.608454863 0.157256339 0.491568150
v 2.608454863 -0.157256339 0.491568150
v 2.577182943 -0.157256339 0.645162581
v 2.577182943 0.157256339 0.645162581
v 2.579968282 -0.157256339 0.645729625
v 2.577182943 -0.157256339 0.645162581
v 2.608454863 -0.157256339 0.491568150
v 2.611240201 -0.157256339 0.492135194
v 2.611240201 0.157256339 0.492135194
v 2.608454863 0.157256339 0.491568150
v 2.577182943 0.157256339 0.645162581
v 2.579968282 0.157256339 0.645729625
v 2.579968282 0.157256339 0.645729625
v 2.577182943 0.157256339 0.645162581
v 2.577182943 -0.157256339 0.645162581
v 2.579968282 -0.157256339 0.645729625
v 2.611240201 -0.157256339 0.492135194
v 2.608454863 -0.157256339 0.491568150
v 2.608454863 0.157256339 0.491568150
v 2.611240201 0.157256339 0.492135194
vt 1.000000000 1.000000000
vt 1.000000000 0.000000000
vt 0.000000000 0.000000358
vt 0.000000119 0.999999642
vt 1.000000000 1.000000000
vt 1.000000000 0.000000000
vt 0.000000000 0.000000358
vt 0.000000119 0.999999642
vt 1.000000000 1.000000000
vt 0.000000119 0.999999642
vt 0.000000000 0.000000358
vt 1.000000000 0.000000000
vt 0.000000119 0.999999642
vt 0.000000119 0.999999642
vt 1.000000000 1.000000000
vt 1.000000000 1.000000000
vt 0.000000000 0.000000358
vt 0.000000000 0.000000358
vt 0.000000119 0.999999642
vt 0.000000119 0.999999642
vt 1.000000000 1.000000000
vt 1.000000000 1.000000000
vt 1.000000000 0.000000000
vt 1.000000000 0.000000000
vt 1.000000000 0.000000000
vt 1.000000000 0.000000000
vt 0.000000000 0.000000358
vt 0.000000000 0.000000358
vt 1.000000000 1.000000000
vt 0.000000119 0.999999642
vt 0.000000000 0.000000358
vt 1.000000000 0.000000000
vt 0.000000000 0.000000358
vt 0.000000000 0.000000358
vt 0.000000119 0.999999642
vt 0.000000119 0.999999642
vt 1.000000000 1.000000000
vt 1.000000000 1.000000000
vt 1.000000000 0.000000000
vt 1.000000000 0.000000000
vt 1.000000000 0.000000000
vt 1.000000000 0.000000000
vt 0.000000000 0.000000358
vt 0.000000000 0.000000358
vt 0.000000119 0.999999642
vt 0.000000119 0.999999642
vt 1.000000000 1.000000000
vt 1.000000000 1.000000000
f 1/1 2/2 3/3
f 1/1 3/3 4/4
f 5/5 6/6 7/7
f 5/5 7/7 8/8
f 9/9 10/10 11/11
f 9/9 11/11 12/12
f 13/13 14/14 15/15
f 13/13 15/15 16/16
f 17/17 18/18 19/19
f 17/17 19/19 20/20
f 21/21 22/22 23/23
f 21/21 23/23 24/24
f 25/25 26/26 27/27
f 25/25 27/27 28/28
f 29/29 30/30 31/31
f 29/29 31/31 32/32
f 33/33 34/34 35/35
f 33/33 35/35 36/36
f 37/37 38/38 39/39
f 37/37 39/39 40/40
f 41/41 42/42 43/43
f 41/41 43/43 44/44
f 45/45 46/46 47/47
f 45/45 47/47 48/48
